<?xml version="1.0" encoding="utf-8"?>
<!-- Generator: Adobe Illustrator 23.1.1, SVG Export Plug-In . SVG Version: 6.00 Build 0)  -->
<svg version="1.1" id="Layer_1" xmlns="http://www.w3.org/2000/svg" xmlns:xlink="http://www.w3.org/1999/xlink" x="0px" y="0px"
	 viewBox="0 0 595.3 595.3" style="enable-background:new 0 0 595.3 595.3;" xml:space="preserve">
<g>
	<path d="M593,264.1c0-28.5,0.1-58-0.1-87c0-2.9,0-5.8,0-8.7c0-12.6,0.1-25.7-2.1-38.5c-6.1-36.1-24.6-68.5-52.2-91.4
		c-27.4-22.8-62.7-35.3-99.5-35.2c-38.3,0.1-77.3,0.1-114.9,0c-44.7,0-90.9,0-136.4,0.1c-2.7,0-5.4,0-8.1,0c-17.7,0-35.9,0-53.7,3
		c-33.6,5.7-64.7,23.8-87.4,51.1c-22.7,27.2-35.2,61-35.2,95.2c-0.1,93.5-0.2,178,0.1,264.8l0,4c0,16.1,0.1,32.7,2.9,49
		C18.7,540.4,82.2,593,154,593c0.1,0,0.1,0,0.2,0c34,0,68.5,0,101.9,0c18.9,0,38.1,0,57.4,0c30,0,60.2,0,90.1-0.1c3.1,0,6.2,0,9.3,0
		c18.9,0,38.5,0,57.6-3c32.9-5.3,63.7-23.2,86.7-50.6c22.9-27.2,35.5-60.6,35.7-94.1c0.1-33.8,0.1-68.1,0.1-101.3
		c0-12.3,0-24.6,0-37l0-8.2C592.9,287.1,593,275.6,593,264.1z M535.5,439.8c-0.1,54.4-41,95.6-95.3,95.7c-32.9,0.1-66.4,0.1-98.7,0
		c-28.8,0-57.5,0-86.3,0c-32.4,0.1-65.9,0.1-98.8-0.1c-32.8-0.2-59-13.4-77.9-39.2c-11.6-15.8-17.5-33.9-17.6-53.7
		c-0.3-112.3-0.3-204.2,0-289c0.2-47.4,35.6-86.7,82.4-91.5c11.2-1.2,22.8-1.4,34.3-1.4c3.7,0,7.4,0,11,0c4.2,0,8.4,0.1,12.6,0
		c69.9-0.1,145.9-0.1,239.2,0c26,0,50,9.8,67.7,27.5c17.7,17.7,27.5,41.7,27.5,67.7C535.6,252.3,535.6,347.9,535.5,439.8z"/>
	<path d="M300.2,146.6c-0.3,0-0.5,0-0.8,0c-40.7,0-78.9,15.5-107.7,43.7c-28.9,28.4-45,66.4-45.2,107.2
		c-0.5,39.5,14.8,77.2,43,106.1c27.9,28.7,64.9,45.1,104.1,46.2c1.5,0,2.9,0.1,4.3,0.1c38.8,0,75.6-14.8,104.1-41.9
		c29.5-28,46.9-66.7,47.8-106.2c0.9-40.8-14.5-79.6-43.3-109.3C378.2,163.5,339.5,146.8,300.2,146.6z M298.1,204
		C298.1,204,298.2,204,298.1,204c25.1,0,48.7,9.9,66.6,27.8c17.9,17.9,27.6,41.6,27.6,66.7c-0.1,25-10,48.5-28,66.3
		c-17.9,17.7-41.4,27.4-66.2,27.4c-0.2,0-0.4,0-0.6,0c-51.7-0.3-93.6-42.7-93.5-94.5c0.1-24.9,10-48.4,27.8-66.2
		C249.7,213.8,273.2,204,298.1,204z"/>
	<path d="M456,101.1c-23.1-0.1-41.6,18-41.7,40.8c-0.1,22.3,18.2,41,40.2,41c23.3,0.1,41.6-17.8,41.7-40.8
		C496.3,119.8,478.1,101.3,456,101.1z"/>
</g>
</svg>
