<?xml version="1.0" encoding="utf-8"?>
<!-- Generator: Adobe Illustrator 23.1.1, SVG Export Plug-In . SVG Version: 6.00 Build 0)  -->
<svg version="1.1" id="Layer_1" xmlns="http://www.w3.org/2000/svg" xmlns:xlink="http://www.w3.org/1999/xlink" x="0px" y="0px"
	 viewBox="0 0 595.3 595.3" style="enable-background:new 0 0 595.3 595.3;" xml:space="preserve">
<g id="pq5NIQ.tif_2_">
	<g>
		<path d="M554.8,591.9c-171.8,0-343.5,0-515.3,0c-0.3-0.6-1-0.5-1.5-0.6C16.9,587,3.3,571,2.3,549.6c0-1,0.1-1.9,0.1-2.9
			c0-166.8,0-333.5,0-500.3c0-1,0-1.9-0.1-2.9C2.8,27.9,9.9,16.2,23,7.9c5.4-3.4,11.5-4.9,17.6-6.1c171.2,0,342.4,0,513.5,0
			c0.7,0.2,1.3,0.4,1.9,0.5c21.4,3.7,35.4,19.7,36.4,41.2c0,1-0.1,1.9-0.1,2.9c0,166.8,0,333.5,0,500.3c0,1,0,1.9,0.1,2.9
			c-1,19.2-10.6,32.3-28.2,39.5C561.3,590.4,558,591,554.8,591.9z M232.3,363.7c0,45.8,0,91.6-0.1,137.4c0,2.5,0.5,3.4,3.3,3.4
			c26.8-0.1,53.5-0.1,80.3,0c2.8,0,3.7-0.6,3.7-3.6c-0.1-45.9-0.1-91.8-0.1-137.7c0-13.5,1-27,5.7-39.9c3.8-10.6,10-19.3,20.2-24.7
			c8.7-4.6,18.2-5.9,28-5.8c21.2,0.1,35.4,11.1,40.7,31.6c3,11.6,3.7,23.4,3.7,35.3c0,47.2,0,94.5,0,141.7c0,2.4,0.6,3.1,3,3
			c27.3-0.1,54.7-0.1,82,0c2.3,0,2.8-0.7,2.8-2.9c-0.1-21.9,0-43.9-0.1-65.8c-0.2-35.7,0.8-71.5-0.6-107.2c-0.8-20-3.5-39.8-11-58.5
			c-8.3-20.8-22.3-36.3-43.2-45.1c-16.3-6.9-33.5-8.9-50.9-8.8c-13,0-25.7,2.2-37.8,7.2c-18.4,7.5-33.2,19.2-43.5,36.5
			c-0.5,0.8-0.6,2.1-1.9,1.7c-1.1-0.4-0.6-1.5-0.6-2.3c0-10.9-0.1-21.8,0-32.7c0-2.9-0.9-3.5-3.6-3.5c-25.5,0.1-51,0.1-76.5,0
			c-2.9,0-3.6,0.7-3.6,3.7C232.3,272.3,232.3,318,232.3,363.7z M89.9,363.6c0,45.9,0,91.7,0,137.6c0,2.4,0.3,3.3,3.1,3.2
			c27-0.1,54.1-0.1,81.1,0c2.7,0,3.1-0.9,3.1-3.3c-0.1-91.6-0.1-183.3,0-274.9c0-2.8-0.9-3.3-3.4-3.3c-26.8,0.1-53.7,0.1-80.5,0
			c-2.6,0-3.3,0.6-3.3,3.3C89.9,272,89.9,317.8,89.9,363.6z M82.9,133.5c-0.2,27.8,22.3,50.8,50.1,51.1c28,0.3,51.2-22.4,51.5-50.4
			c0.3-27.9-22.5-51-50.7-51.2C106,82.8,83.2,105.3,82.9,133.5z"/>
		<path d="M1.8,43.6c0.2,0,0.3,0,0.5,0c0,1,0.1,1.9,0.1,2.9c0,166.8,0,333.5,0,500.3c0,1,0,1.9-0.1,2.9c-0.2,0-0.3,0-0.5,0
			C1.8,380.9,1.8,212.2,1.8,43.6z"/>
		<path d="M592.5,43.5c0.2,0,0.3,0,0.5,0c0,168.7,0,337.3,0,506c-0.2,0-0.3,0-0.5,0c0-1-0.1-1.9-0.1-2.9c0-166.8,0-333.5,0-500.3
			C592.4,45.5,592.5,44.5,592.5,43.5z"/>
	</g>
</g>
</svg>
