<svg xmlns="http://www.w3.org/2000/svg" viewBox="0 0 22.87 20.01"><defs><style>.cls-1{fill:#231f20;}</style></defs><title>Zasób 1</title><g id="Warstwa_2" data-name="Warstwa 2"><g id="Layer_1" data-name="Layer 1"><path class="cls-1" d="M21,5a5.38,5.38,0,0,1,1-1,3,3,0,0,0,.95-1.51,3.12,3.12,0,0,1-.95.59,3.73,3.73,0,0,1-1.55.29,2.62,2.62,0,0,0,1.18-1.25c.29-.59.61-1.22,1-1.91a10.07,10.07,0,0,1-1.66.92,4.27,4.27,0,0,1-1.14.4C19,1.2,18.39.86,17.8.51A3.63,3.63,0,0,0,16,0a4.12,4.12,0,0,0-1.84.44,5.83,5.83,0,0,0-1.58,1.18A6,6,0,0,0,11.4,3.31,4.91,4.91,0,0,0,11,5.37a2.5,2.5,0,0,0,.07.55c.05.22.25.33.59.33A11.87,11.87,0,0,1,6,4.74,14.49,14.49,0,0,1,1.32.88,5.7,5.7,0,0,0,.77,3,6.22,6.22,0,0,0,1,4.93a6,6,0,0,0,.74,1.62A6.24,6.24,0,0,0,2.79,7.8l-.88,0A1.41,1.41,0,0,1,1,7.43,6.6,6.6,0,0,0,1.1,8.75a4.8,4.8,0,0,0,.55,1.44,4.31,4.31,0,0,0,1.14,1.25,4.69,4.69,0,0,0,1.92.77H2.5a2.33,2.33,0,0,0,.37,1.21,4.68,4.68,0,0,0,1,1.18,5.9,5.9,0,0,0,1.44.92,3.89,3.89,0,0,0,1.61.37,8.84,8.84,0,0,1-.84.66,8,8,0,0,1-1.55.81,8.75,8.75,0,0,1-2.06.51A8.22,8.22,0,0,1,0,17.8a20.39,20.39,0,0,0,3.57,1.58,12.48,12.48,0,0,0,4,.63,12.35,12.35,0,0,0,5.29-1.18,14.1,14.1,0,0,0,4.34-3.16A14.49,14.49,0,0,0,20.08,11,13.66,13.66,0,0,0,21,5.37Z"/></g></g></svg>