<svg xmlns="http://www.w3.org/2000/svg" viewBox="0 0 28.46 20.06"><defs><style>.cls-1{fill:#231f20;}</style></defs><title>Zasób 7</title><g id="Warstwa_2" data-name="Warstwa 2"><g id="Layer_1" data-name="Layer 1"><path class="cls-1" d="M28,4C27.68,1.67,26.52.65,24.18.4A89.43,89.43,0,0,0,15.07,0,100,100,0,0,0,4.12.41,3.7,3.7,0,0,0,.46,3.72a30.24,30.24,0,0,0-.44,5,42.5,42.5,0,0,0,.37,7.31,4,4,0,0,0,1.72,3A6,6,0,0,0,5,19.74c3.06.26,6.14.3,9.44.32,3.14,0,6.49,0,9.84-.41A3.74,3.74,0,0,0,28,16.28a33.17,33.17,0,0,0,.42-4.45A38.79,38.79,0,0,0,28,4ZM11,14.54V5.78L18.7,9.9Z"/></g></g></svg>