<?xml version="1.0" encoding="utf-8"?>
<!-- Generator: Adobe Illustrator 22.1.0, SVG Export Plug-In . SVG Version: 6.00 Build 0)  -->
<svg version="1.1" id="Warstwa_1" xmlns="http://www.w3.org/2000/svg" xmlns:xlink="http://www.w3.org/1999/xlink" x="0px" y="0px"
	 viewBox="0 0 33.6 29.7" style="enable-background:new 0 0 33.6 29.7;" xml:space="preserve">
<title>heart</title>
<g id="Warstwa_2_1_">
	<g id="Layer_1">
		<path d="M16.8,28.4L4.6,16.2c-1.7-1.6-3.2-3.6-3.2-6.5c0-4.7,3.7-8.4,8.4-8.4c2.8,0,5.4,1.4,7,3.8c2.6-3.9,7.8-4.9,11.6-2.4
			c2.3,1.6,3.8,4.2,3.8,7c0,3-1.5,4.9-3.2,6.6L16.8,28.4z M9.8,3.6c-3.7,0-6.2,2.7-6.2,5.9c0,1.7,0.7,3.4,2.5,5.2l10.7,10.6
			l10.7-10.7c1.8-1.8,2.5-3.5,2.5-5.2c0-3.2-2.3-5.8-6.2-5.8c-4.3,0-7,5.1-7,5.1S14,3.6,9.8,3.6z"/>
	</g>
</g>
</svg>
