<?xml version="1.0" encoding="utf-8"?>
<!-- Generator: Adobe Illustrator 22.1.0, SVG Export Plug-In . SVG Version: 6.00 Build 0)  -->
<svg version="1.1" id="Warstwa_1" xmlns="http://www.w3.org/2000/svg" xmlns:xlink="http://www.w3.org/1999/xlink" x="0px" y="0px"
	 viewBox="0 0 65 44.6" style="enable-background:new 0 0 65 44.6;" xml:space="preserve">
<style type="text/css">
	.st0{display:none;}
	.st1{display:inline;fill:none;stroke:#000000;stroke-width:1.5;stroke-miterlimit:10;}
	.st2{display:inline;fill:none;stroke:#E8E7E8;stroke-width:1.5;stroke-miterlimit:10;}
	.st3{fill:none;stroke:#E8E7E8;stroke-width:1.5;stroke-miterlimit:10;}
	.st4{fill:none;stroke:#000000;stroke-width:1.5;stroke-miterlimit:10;}
	.st5{display:inline;fill:none;}
	.st6{display:inline;}
	.st7{enable-background:new    ;}
	.st8{display:inline;fill:none;stroke:#000000;stroke-width:1.5;stroke-linecap:round;stroke-miterlimit:10;}
	.st9{font-family:'PlayfairDisplay-Regular';}
	.st10{font-size:138px;}
</style>
<g id="Warstwa_1_1_" class="st0">
	<path class="st1" d="M162.5,84H7.5c-0.6,0-1.2-0.5-1.2-1.2V-9.6c0-0.6,0.5-1.2,1.2-1.2h155c0.6,0,1.2,0.5,1.2,1.2v92.5
		C163.7,83.5,163.1,84,162.5,84z"/>
	<path class="st2" d="M91.6-26.3H178c1.9,0,3.5,1.6,3.5,3.5v80.5"/>
	<path class="st2" d="M105.4-40.2h86.4c1.9,0,3.5,1.6,3.5,3.5v80.6"/>
</g>
<g id="Warstwa_2_1_">
	<path class="st3" d="M58.3,43H6.1c-0.2,0-0.4-0.2-0.4-0.4V11.4c0-0.2,0.2-0.4,0.4-0.4h52.3c0.2,0,0.4,0.2,0.4,0.4v31.2
		C58.7,42.8,58.6,43,58.3,43z"/>
	<line class="st4" x1="14.8" y1="34.8" x2="31.1" y2="34.8"/>
</g>
<g id="Warstwa_3" class="st0">
	<path class="st2" d="M178.1,85.3H22.2c-0.6,0-1.2-0.5-1.2-1.2v-93c0-0.6,0.5-1.2,1.2-1.2h155.9c0.6,0,1.2,0.5,1.2,1.2v93
		C179.3,84.7,178.7,85.3,178.1,85.3z"/>
	<rect x="43.2" y="10.9" class="st5" width="113.9" height="111.8"/>
	<text transform="matrix(1 0 0 1 76.7231 65.7603)" class="st6" style="font-family:'PlayfairDisplay-Bold'; font-size:70.1437px;">T</text>
</g>
<g id="Warstwa_4" class="st0">
	<path class="st2" d="M178.4,83.8h-155c-0.6,0-1.2-0.5-1.2-1.2V-9.7c0-0.6,0.5-1.2,1.2-1.2h155c0.6,0,1.2,0.5,1.2,1.2v92.4
		C179.6,83.3,179,83.8,178.4,83.8z"/>
	<polyline class="st8" points="85.5,46.6 70,56.8 70,16.1 101,36.5 	"/>
	<polyline class="st8" points="100.9,36.5 131.8,56.8 131.8,16.1 116.4,26.3 	"/>
</g>
<g id="Warstwa_5" class="st0">
	<rect x="38.2" y="-22.9" class="st5" width="122.3" height="120.1"/>
	<text transform="matrix(1 0 0 1 60.1251 85.2427)" class="st6 st9 st10">F</text>
</g>
</svg>
