<?xml version="1.0" encoding="utf-8"?>
<!-- Generator: Adobe Illustrator 22.1.0, SVG Export Plug-In . SVG Version: 6.00 Build 0)  -->
<svg version="1.1" id="Warstwa_1" xmlns="http://www.w3.org/2000/svg" xmlns:xlink="http://www.w3.org/1999/xlink" x="0px" y="0px"
	 viewBox="0 0 65 44.6" style="enable-background:new 0 0 65 44.6;" xml:space="preserve">
<style type="text/css">
	.st0{display:none;}
	.st1{display:inline;fill:none;stroke:#000000;stroke-width:1.5;stroke-miterlimit:10;}
	.st2{display:inline;fill:none;stroke:#E8E7E8;stroke-width:1.5;stroke-miterlimit:10;}
	.st3{fill:none;stroke:#E8E7E8;stroke-width:1.5;stroke-miterlimit:10;}
	.st4{fill:none;}
	.st5{font-family:'PlayfairDisplay-Bold';}
	.st6{font-size:23.928px;}
	.st7{display:inline;fill:none;stroke:#000000;stroke-width:1.5;stroke-linecap:round;stroke-miterlimit:10;}
	.st8{display:inline;fill:none;}
	.st9{display:inline;}
	.st10{font-family:'PlayfairDisplay-Regular';}
	.st11{font-size:138px;}
</style>
<g id="Warstwa_1_1_" class="st0">
	<path class="st1" d="M162.5,84H7.5c-0.6,0-1.2-0.5-1.2-1.2V-9.6c0-0.6,0.5-1.2,1.2-1.2h155c0.6,0,1.2,0.5,1.2,1.2v92.5
		C163.7,83.5,163.1,84,162.5,84z"/>
	<path class="st2" d="M91.6-26.3H178c1.9,0,3.5,1.6,3.5,3.5v80.5"/>
	<path class="st2" d="M105.4-40.2h86.4c1.9,0,3.5,1.6,3.5,3.5v80.6"/>
</g>
<g id="Warstwa_2_1_" class="st0">
	<path class="st2" d="M177.3,84H22.2c-0.6,0-1.2-0.5-1.2-1.2V-9.7c0-0.6,0.5-1.2,1.2-1.2h155.2c0.6,0,1.2,0.5,1.2,1.2v92.5
		C178.5,83.5,178,84,177.3,84z"/>
	<line class="st1" x1="48" y1="59.6" x2="96.6" y2="59.6"/>
</g>
<g id="Warstwa_3">
	<path class="st3" d="M58.6,42.7H5.4c-0.2,0-0.4-0.2-0.4-0.4V10.6c0-0.2,0.2-0.4,0.4-0.4h53.2c0.2,0,0.4,0.2,0.4,0.4v31.7
		C59,42.5,58.8,42.7,58.6,42.7z"/>
	<rect x="12.6" y="17.3" class="st4" width="38.9" height="38.1"/>
	<text transform="matrix(1 0 0 1 24.0088 36.0733)" class="st5 st6">T</text>
</g>
<g id="Warstwa_4" class="st0">
	<path class="st2" d="M178.4,83.8h-155c-0.6,0-1.2-0.5-1.2-1.2V-9.7c0-0.6,0.5-1.2,1.2-1.2h155c0.6,0,1.2,0.5,1.2,1.2v92.4
		C179.6,83.3,179,83.8,178.4,83.8z"/>
	<polyline class="st7" points="85.5,46.6 70,56.8 70,16.1 101,36.5 	"/>
	<polyline class="st7" points="100.9,36.5 131.8,56.8 131.8,16.1 116.4,26.3 	"/>
</g>
<g id="Warstwa_5" class="st0">
	<rect x="38.2" y="-22.9" class="st8" width="122.3" height="120.1"/>
	<text transform="matrix(1 0 0 1 60.1251 85.2427)" class="st9 st10 st11">F</text>
</g>
</svg>
