<?xml version="1.0" encoding="utf-8"?>
<!-- Generator: Adobe Illustrator 22.1.0, SVG Export Plug-In . SVG Version: 6.00 Build 0)  -->
<svg version="1.1" xmlns="http://www.w3.org/2000/svg" xmlns:xlink="http://www.w3.org/1999/xlink" x="0px" y="0px"
	 viewBox="0 0 65 44.6" style="enable-background:new 0 0 65 44.6;" xml:space="preserve">
<style type="text/css">
	.st0{display:none;}
	.st1{display:inline;fill:none;stroke:#000000;stroke-width:1.5;stroke-miterlimit:10;}
	.st2{display:inline;fill:none;stroke:#E8E7E8;stroke-width:1.5;stroke-miterlimit:10;}
	.st3{display:inline;fill:none;}
	.st4{display:inline;}
	.st5{enable-background:new    ;}
	.st6{fill:none;stroke:#E8E7E8;stroke-width:1.5;stroke-miterlimit:10;}
	.st7{fill:none;stroke:#000000;stroke-width:1.5;stroke-linecap:round;stroke-miterlimit:10;}
	.st8{font-family:'PlayfairDisplay-Regular';}
	.st9{font-size:138px;}
	.st10{fill:none;stroke:#231F20;stroke-width:1.5;stroke-miterlimit:10;}
	.st11{fill:none;stroke:#B9B9BA;stroke-width:1.5;stroke-miterlimit:10;}
	.st12{fill:none;stroke:#E0E0E0;stroke-width:1.5;stroke-miterlimit:10;}
</style>
<g id="Warstwa_1" class="st0">
	<g id="Warstwa_1_1_">
		<path class="st1" d="M162.5,84H7.5c-0.6,0-1.2-0.5-1.2-1.2V-9.6c0-0.6,0.5-1.2,1.2-1.2h155c0.6,0,1.2,0.5,1.2,1.2v92.5
			C163.7,83.5,163.1,84,162.5,84z"/>
		<path class="st2" d="M91.6-26.3H178c1.9,0,3.5,1.6,3.5,3.5v80.5"/>
		<path class="st2" d="M105.4-40.2h86.4c1.9,0,3.5,1.6,3.5,3.5v80.6"/>
	</g>
	<g id="Warstwa_2_1_">
		<path class="st2" d="M177.3,84H22.2c-0.6,0-1.2-0.5-1.2-1.2V-9.7c0-0.6,0.5-1.2,1.2-1.2h155.2c0.6,0,1.2,0.5,1.2,1.2v92.5
			C178.5,83.5,178,84,177.3,84z"/>
		<line class="st1" x1="48" y1="59.6" x2="96.6" y2="59.6"/>
	</g>
	<g id="Warstwa_3">
		<path class="st2" d="M178.1,85.3H22.2c-0.6,0-1.2-0.5-1.2-1.2v-93c0-0.6,0.5-1.2,1.2-1.2h155.9c0.6,0,1.2,0.5,1.2,1.2v93
			C179.3,84.7,178.7,85.3,178.1,85.3z"/>
		<rect x="43.2" y="10.9" class="st3" width="113.9" height="111.8"/>
		
			<text transform="matrix(1 0 0 1 76.7231 65.7603)" class="st4" style="font-family:'PlayfairDisplay-Bold'; font-size:70.1437px;">T</text>
	</g>
	<g id="Warstwa_4" class="st4">
		<path class="st6" d="M59.6,43h-54c-0.2,0-0.4-0.2-0.4-0.4V10.5c0-0.2,0.2-0.4,0.4-0.4h54c0.2,0,0.4,0.2,0.4,0.4v32.2
			C60,42.9,59.8,43,59.6,43z"/>
		<polyline class="st7" points="27.2,30.1 21.8,33.6 21.8,19.5 32.6,26.6 		"/>
		<polyline class="st7" points="32.6,26.6 43.4,33.6 43.4,19.5 38,23 		"/>
	</g>
	<g id="Warstwa_5">
		<rect x="38.2" y="-22.9" class="st3" width="122.3" height="120.1"/>
		<text transform="matrix(1 0 0 1 60.1251 85.2427)" class="st4 st8 st9">F</text>
	</g>
</g>
<g id="Warstwa_2">
	<path class="st10" d="M30.2,25.1H8.1c-0.6,0-1.2-0.5-1.2-1.2V11.5c0-0.6,0.5-1.2,1.2-1.2h22.1c0.6,0,1.2,0.5,1.2,1.2v12.4
		C31.4,24.6,30.8,25.1,30.2,25.1z"/>
	<path class="st11" d="M57.7,25.1H35.6c-0.6,0-1.2-0.5-1.2-1.2V11.5c0-0.6,0.5-1.2,1.2-1.2h22.1c0.6,0,1.2,0.5,1.2,1.2v12.4
		C58.9,24.6,58.3,25.1,57.7,25.1z"/>
	<path class="st11" d="M30.2,43.1H8.1C7.5,43.1,7,42.6,7,42V29.6c0-0.6,0.5-1.2,1.2-1.2h22.1c0.6,0,1.2,0.5,1.2,1.2V42
		C31.4,42.6,30.8,43.1,30.2,43.1z"/>
	<path class="st12" d="M57.7,43.1H35.6c-0.6,0-1.2-0.5-1.2-1.2V29.6c0-0.6,0.5-1.2,1.2-1.2h22.1c0.6,0,1.2,0.5,1.2,1.2V42
		C58.9,42.6,58.3,43.1,57.7,43.1z"/>
</g>
</svg>
