<svg xmlns="http://www.w3.org/2000/svg" viewBox="0 0 38 38"><defs><style>.cls-1{fill:#010101;}</style></defs><title>logo</title><g id="Warstwa_2" data-name="Warstwa 2"><g id="Layer_1" data-name="Layer 1"><path class="cls-1" d="M19,0A19,19,0,1,0,38,19,19,19,0,0,0,19,0ZM14.87,27.7a1.18,1.18,0,0,1-1.18,1.18H11.22A1.18,1.18,0,0,1,10,27.7V10.11a1,1,0,0,1,1-1h2.78a1,1,0,0,1,1,1Zm6.55-8.89c0,.43-1.4,1.66-2.07,2.14a.6.6,0,0,1-.7,0c-.67-.48-2.07-1.71-2.07-2.14v-8.7a1,1,0,0,1,1-1h2.78a1,1,0,0,1,1,1ZM28,27.7a1.18,1.18,0,0,1-1.18,1.18H24.3a1.18,1.18,0,0,1-1.18-1.18V10.11a1,1,0,0,1,1-1h2.78a1,1,0,0,1,1,1Z"/></g></g></svg>