<?xml version="1.0" encoding="utf-8"?>
<!-- Generator: Adobe Illustrator 22.1.0, SVG Export Plug-In . SVG Version: 6.00 Build 0)  -->
<svg version="1.0" id="Layer_1" xmlns="http://www.w3.org/2000/svg" xmlns:xlink="http://www.w3.org/1999/xlink" x="0px" y="0px"
	 viewBox="0 0 598.2 494.4" style="enable-background:new 0 0 598.2 494.4;" xml:space="preserve">
<style type="text/css">
	.st0{fill:#0799D6;}
	.st1{fill:#273A81;}
	.st2{fill:#272C66;}
	.st3{fill:#FFFFFF;}
</style>
<circle class="st0" cx="206.1" cy="211" r="195"/>
<g>
	<circle class="st1" cx="389.1" cy="284" r="195"/>
</g>
<path class="st2" d="M194.1,284.2c0,45.2,15.4,86.8,41.2,119.8c93.9-14.1,165.8-95,165.8-192.8c0-45.2-15.4-86.8-41.2-119.8
	C266,105.4,194.1,186.4,194.1,284.2z"/>
<g>
	<path class="st3" d="M249,198.5c0-9-4-15.4-14.4-15.4c-9,0-16.4,6-20,11.2v65.2h-25.6v-61c0-9-4-15.4-14.4-15.4
		c-8.8,0-16.2,6-20,11.4v65h-25.4v-96.6h25.4v12.6c4-5.8,16.8-15,31.6-15c14.2,0,23.2,6.6,26.8,17.6c5.6-8.8,18.4-17.6,33.2-17.6
		c17.8,0,28.4,9.4,28.4,29.2v69.8H249V198.5z"/>
</g>
<g>
	<path class="st3" d="M317.9,283.4c0-41,31-69,70-69c30.4,0,47.4,16,56.8,32.6l-24.4,12c-5.6-10.8-17.6-19.4-32.4-19.4
		c-23.2,0-40.8,18.6-40.8,43.8s17.6,43.8,40.8,43.8c14.8,0,26.8-8.4,32.4-19.4l24.4,11.8c-9.6,16.6-26.4,32.8-56.8,32.8
		C348.9,352.4,317.9,324.4,317.9,283.4z"/>
</g>
</svg>
