<?xml version="1.0" encoding="utf-8"?>
<!-- Generator: Adobe Illustrator 22.1.0, SVG Export Plug-In . SVG Version: 6.00 Build 0)  -->
<svg version="1.1" id="Layer_1" xmlns="http://www.w3.org/2000/svg" xmlns:xlink="http://www.w3.org/1999/xlink" x="0px" y="0px"
	 viewBox="0 0 82.2 65.2" style="enable-background:new 0 0 82.2 65.2;" xml:space="preserve">
<path d="M5.1,8.6h72c2.2,0,4-1.8,4-4s-1.8-4-4-4h-72c-2.2,0-4,1.8-4,4S2.9,8.6,5.1,8.6z M77.1,28.6h-72c-2.2,0-4,1.8-4,4s1.8,4,4,4
	h72c2.2,0,4-1.8,4-4S79.3,28.6,77.1,28.6z M77.1,56.6h-72c-2.2,0-4,1.8-4,4s1.8,4,4,4h72c2.2,0,4-1.8,4-4S79.3,56.6,77.1,56.6z"/>
</svg>
