<?xml version="1.0" encoding="utf-8"?>
<!-- Generator: Adobe Illustrator 22.1.0, SVG Export Plug-In . SVG Version: 6.00 Build 0)  -->
<svg version="1.1" id="Layer_1" xmlns="http://www.w3.org/2000/svg" xmlns:xlink="http://www.w3.org/1999/xlink" x="0px" y="0px"
	 viewBox="0 0 1370 1080" style="enable-background:new 0 0 1370 1080;" xml:space="preserve">
<style type="text/css">
	.st0{fill:#3D98FF;}
</style>
<path class="st0" d="M1164.6,27.2c-86.1,0-157.3,64.5-168,147.7l0,0c-3.3,31.2-19.5,55.7-42.2,63.9c-23,8.3-53.3-3.9-80-30l0,0
	c-85.8-79-200.4-127.4-326-127.4c-265.7,0-481.8,216.1-481.8,481.8S282.7,1045,548.4,1045s481.8-216.1,481.8-481.8
	c0-43-5.7-84.7-16.3-124.5c-6-30.2,1-55,16.2-70.9c16-16.8,41.6-25.2,72-13.7l0,0c19.4,7.7,40.5,12.1,62.6,12.1
	c93.4,0,169.4-76,169.4-169.4S1258.1,27.2,1164.6,27.2z M548.4,940.3c-207.9,0-377-169.1-377-377s169.1-377,377-377
	s377,169.1,377,377C925.4,771.1,756.3,940.3,548.4,940.3z M1164.6,261.3c-35.7,0-64.7-29-64.7-64.7s29-64.7,64.7-64.7
	s64.7,29,64.7,64.7S1200.3,261.3,1164.6,261.3z"/>
</svg>
