<?xml version="1.0" encoding="utf-8"?>
<!-- Generator: Adobe Illustrator 24.1.2, SVG Export Plug-In . SVG Version: 6.00 Build 0)  -->
<!DOCTYPE svg PUBLIC "-//W3C//DTD SVG 1.1//EN" "http://www.w3.org/Graphics/SVG/1.1/DTD/svg11.dtd" [
	<!ENTITY ns_extend "http://ns.adobe.com/Extensibility/1.0/">
	<!ENTITY ns_ai "http://ns.adobe.com/AdobeIllustrator/10.0/">
	<!ENTITY ns_graphs "http://ns.adobe.com/Graphs/1.0/">
	<!ENTITY ns_vars "http://ns.adobe.com/Variables/1.0/">
	<!ENTITY ns_imrep "http://ns.adobe.com/ImageReplacement/1.0/">
	<!ENTITY ns_sfw "http://ns.adobe.com/SaveForWeb/1.0/">
	<!ENTITY ns_custom "http://ns.adobe.com/GenericCustomNamespace/1.0/">
	<!ENTITY ns_adobe_xpath "http://ns.adobe.com/XPath/1.0/">
]>
<svg version="1.1" id="Layer_1" xmlns:x="&ns_extend;" xmlns:i="&ns_ai;" xmlns:graph="&ns_graphs;"
	 xmlns="http://www.w3.org/2000/svg" xmlns:xlink="http://www.w3.org/1999/xlink" x="0px" y="0px" viewBox="0 0 32 32"
	 style="enable-background:new 0 0 32 32;" xml:space="preserve">
<style type="text/css">
	.st0{fill:#FFFFFF;}
</style>
<metadata>
	<sfw  xmlns="&ns_sfw;">
		<slices></slices>
		<sliceSourceBounds  bottomLeftOrigin="true" height="30.7" width="30.7" x="0.7" y="-31.3"></sliceSourceBounds>
	</sfw>
</metadata>
<g>
	<path class="st0" d="M29.9,1L29.9,1c-0.5-0.5-1.3-0.5-1.8,0L2.1,29.1c-0.5,0.5-0.5,1.3,0,1.8c0.2,0.2,0.6,0.4,0.9,0.4
		c0.3,0,0.7-0.1,0.9-0.4L29.9,2.8C30.4,2.3,30.4,1.5,29.9,1z"/>
	<path class="st0" d="M8,15.3c4.1,0,7.3-3.3,7.3-7.3c0-4-3.3-7.3-7.3-7.3C3.9,0.7,0.7,4,0.7,8C0.7,12.1,3.9,15.3,8,15.3z M3.3,8
		c0-2.6,2.1-4.6,4.7-4.6c2.6,0,4.7,2.1,4.7,4.6c0,2.6-2.1,4.6-4.7,4.6C5.4,12.6,3.3,10.6,3.3,8z"/>
	<path class="st0" d="M24,16.6c-4.1,0-7.4,3.3-7.4,7.3c0,4.1,3.3,7.4,7.4,7.4s7.4-3.3,7.4-7.4C31.3,19.9,28.1,16.6,24,16.6z
		 M28.7,24c0,2.6-2.1,4.7-4.7,4.7c-2.6,0-4.7-2.1-4.7-4.7c0-2.6,2.1-4.7,4.7-4.7C26.6,19.3,28.7,21.4,28.7,24z"/>
</g>
</svg>
