<svg width="16" height="16" xmlns="http://www.w3.org/2000/svg">

 <metadata/>
 <g>
  <title>background</title>
  <rect fill="none" id="canvas_background" height="402" width="582" y="-1" x="-1"/>
 </g>
 <g>
  <title>Layer 1</title>
  <path fill="#e8e8e8" id="svg_1" d="m8,1c-3.9,0 -7,3.1 -7,7s3.1,7 7,7s7,-3.1 7,-7s-3.1,-7 -7,-7zm0.8,11.1c0,0.1 -0.1,0.1 0,0l-1.5,0c0,0 0,0 0,0l0,-5.7c0,0 0,0 0,0l1.4,0c0,0 0,0 0,0l0,5.7l0.1,0zm-0.8,-6.5c-0.5,0 -0.9,-0.4 -0.9,-0.9c0,-0.5 0.4,-0.9 0.9,-0.9c0.5,0 0.9,0.4 0.9,0.9c0,0.5 -0.4,0.9 -0.9,0.9z" class="st0"/>
 </g>
</svg>