<?xml version="1.0" encoding="utf-8"?>
<!-- Generator: Adobe Illustrator 25.3.1, SVG Export Plug-In . SVG Version: 6.00 Build 0)  -->
<svg version="1.1" id="Layer_1" xmlns="http://www.w3.org/2000/svg" xmlns:xlink="http://www.w3.org/1999/xlink" x="0px" y="0px"
	 viewBox="0 0 507 520" style="enable-background:new 0 0 507 520;" xml:space="preserve">
<style type="text/css">
	.st0{fill:#FFFFFF;}
	.st1{fill:#F3F3F3;}
	.st2{enable-background:new    ;}
	.st3{fill:#F56065;}
	.st4{fill:#FA5F62;}
</style>
<g>
	<path class="st0" d="M413,0.8H93.9c-1.5,0-2.8,1.3-2.8,2.8v353.6c0,1.5,1.3,2.8,2.8,2.8H413c1.5,0,2.8-1.3,2.8-2.8V3.6
		C415.9,2.1,414.5,0.8,413,0.8z"/>
</g>
<g>
	<path class="st1" d="M388.5,27.8H118.4c-1.5,0-2.8,1.3-2.8,2.8v114c0,1.5,1.3,2.8,2.8,2.8h270.1c1.5,0,2.8-1.3,2.8-2.8v-114
		C391.4,29.1,390,27.8,388.5,27.8z"/>
</g>
<g>
	<path d="M388.5,27.8H118.4c-1.5,0-2.8,1.3-2.8,2.8v26.2c0,1.5,1.3,2.8,2.8,2.8h270.1c1.5,0,2.8-1.3,2.8-2.8V30.6
		C391.4,29.1,390,27.8,388.5,27.8z"/>
</g>
<g class="st2">
	<path class="st0" d="M192.5,37.8v2.1h-4.3v2.2h3.2v2h-3.2v4.3h-2.6V37.8H192.5z"/>
	<path class="st0" d="M196.4,37.8v10.5h-2.6V37.8H196.4z"/>
	<path class="st0" d="M203.6,48.3l-2.2-4h-0.6v4h-2.6V37.8h4.3c0.8,0,1.5,0.1,2.1,0.4s1,0.7,1.3,1.2s0.4,1.1,0.4,1.7
		c0,0.7-0.2,1.3-0.6,1.9c-0.4,0.5-1,0.9-1.7,1.2l2.4,4.2H203.6z M200.8,42.5h1.6c0.5,0,0.8-0.1,1.1-0.3c0.2-0.2,0.4-0.6,0.4-1
		c0-0.4-0.1-0.7-0.4-0.9c-0.2-0.2-0.6-0.3-1.1-0.3h-1.6V42.5z"/>
	<path class="st0" d="M209.8,48.1c-0.6-0.2-1.1-0.6-1.5-1.1c-0.4-0.5-0.6-1.1-0.6-1.8h2.7c0,0.4,0.2,0.7,0.4,0.9
		c0.2,0.2,0.5,0.3,0.9,0.3c0.4,0,0.7-0.1,0.9-0.3c0.2-0.2,0.3-0.4,0.3-0.7c0-0.3-0.1-0.5-0.3-0.6s-0.4-0.3-0.6-0.4
		c-0.3-0.1-0.6-0.2-1.1-0.4c-0.7-0.2-1.2-0.4-1.7-0.6s-0.8-0.5-1.1-0.9c-0.3-0.4-0.5-0.9-0.5-1.6c0-1,0.4-1.7,1.1-2.3
		c0.7-0.6,1.6-0.8,2.8-0.8c1.2,0,2.1,0.3,2.8,0.8c0.7,0.6,1.1,1.3,1.1,2.3h-2.8c0-0.3-0.1-0.6-0.4-0.8c-0.2-0.2-0.5-0.3-0.9-0.3
		c-0.3,0-0.6,0.1-0.8,0.2c-0.2,0.2-0.3,0.4-0.3,0.7c0,0.3,0.2,0.6,0.5,0.8c0.3,0.2,0.8,0.4,1.5,0.6c0.7,0.2,1.2,0.5,1.7,0.7
		c0.4,0.2,0.8,0.5,1.1,0.9c0.3,0.4,0.5,0.9,0.5,1.5c0,0.6-0.2,1.1-0.5,1.6c-0.3,0.5-0.7,0.9-1.3,1.2s-1.3,0.4-2.1,0.4
		C211.1,48.4,210.4,48.3,209.8,48.1z"/>
	<path class="st0" d="M224.8,37.8v2.1h-2.8v8.5h-2.6v-8.5h-2.8v-2.1H224.8z"/>
	<path class="st0" d="M231.1,48.1c-0.6-0.2-1.1-0.6-1.5-1.1c-0.4-0.5-0.6-1.1-0.6-1.8h2.7c0,0.4,0.2,0.7,0.4,0.9
		c0.2,0.2,0.5,0.3,0.9,0.3c0.4,0,0.7-0.1,0.9-0.3c0.2-0.2,0.3-0.4,0.3-0.7c0-0.3-0.1-0.5-0.3-0.6s-0.4-0.3-0.6-0.4
		c-0.3-0.1-0.6-0.2-1.1-0.4c-0.7-0.2-1.2-0.4-1.7-0.6s-0.8-0.5-1.1-0.9c-0.3-0.4-0.5-0.9-0.5-1.6c0-1,0.4-1.7,1.1-2.3
		c0.7-0.6,1.6-0.8,2.8-0.8c1.2,0,2.1,0.3,2.8,0.8c0.7,0.6,1.1,1.3,1.1,2.3h-2.8c0-0.3-0.1-0.6-0.4-0.8c-0.2-0.2-0.5-0.3-0.9-0.3
		c-0.3,0-0.6,0.1-0.8,0.2c-0.2,0.2-0.3,0.4-0.3,0.7c0,0.3,0.2,0.6,0.5,0.8c0.3,0.2,0.8,0.4,1.5,0.6c0.7,0.2,1.2,0.5,1.7,0.7
		c0.4,0.2,0.8,0.5,1.1,0.9c0.3,0.4,0.5,0.9,0.5,1.5c0,0.6-0.2,1.1-0.5,1.6c-0.3,0.5-0.7,0.9-1.3,1.2s-1.3,0.4-2.1,0.4
		C232.4,48.4,231.7,48.3,231.1,48.1z"/>
	<path class="st0" d="M240.8,47.7c-0.8-0.5-1.5-1.1-2-1.9c-0.5-0.8-0.7-1.8-0.7-2.8s0.2-2,0.7-2.8c0.5-0.8,1.1-1.5,2-1.9
		s1.7-0.7,2.7-0.7c1,0,1.9,0.2,2.7,0.7c0.8,0.5,1.5,1.1,2,1.9c0.5,0.8,0.7,1.7,0.7,2.8s-0.2,2-0.7,2.8s-1.1,1.5-2,1.9
		c-0.8,0.5-1.7,0.7-2.7,0.7C242.5,48.4,241.6,48.2,240.8,47.7z M245.5,45.3c0.5-0.6,0.8-1.3,0.8-2.2c0-0.9-0.3-1.7-0.8-2.2
		c-0.5-0.6-1.2-0.8-2-0.8c-0.9,0-1.5,0.3-2,0.8c-0.5,0.6-0.8,1.3-0.8,2.2c0,0.9,0.3,1.7,0.8,2.2s1.2,0.8,2,0.8
		C244.4,46.1,245,45.8,245.5,45.3z"/>
	<path class="st0" d="M252.9,46.4h3.4v2h-5.9V37.8h2.6V46.4z"/>
	<path class="st0" d="M259.7,47.7c-0.8-0.5-1.5-1.1-2-1.9c-0.5-0.8-0.7-1.8-0.7-2.8s0.2-2,0.7-2.8c0.5-0.8,1.1-1.5,2-1.9
		s1.7-0.7,2.7-0.7c1,0,1.9,0.2,2.7,0.7c0.8,0.5,1.5,1.1,2,1.9c0.5,0.8,0.7,1.7,0.7,2.8s-0.2,2-0.7,2.8c-0.5,0.8-1.1,1.5-2,1.9
		c-0.8,0.5-1.7,0.7-2.7,0.7C261.5,48.4,260.6,48.2,259.7,47.7z M264.5,45.3c0.5-0.6,0.8-1.3,0.8-2.2c0-0.9-0.3-1.7-0.8-2.2
		c-0.5-0.6-1.2-0.8-2-0.8c-0.9,0-1.5,0.3-2,0.8c-0.5,0.6-0.8,1.3-0.8,2.2c0,0.9,0.3,1.7,0.8,2.2s1.2,0.8,2,0.8
		C263.3,46.1,264,45.8,264.5,45.3z"/>
	<path class="st0" d="M279,46.5h-3.9l-0.6,1.9h-2.7l3.8-10.5h3l3.8,10.5h-2.7L279,46.5z M278.3,44.5l-1.3-3.9l-1.3,3.9H278.3z"/>
	<path class="st0" d="M286.1,46.4h3.4v2h-5.9V37.8h2.6V46.4z"/>
	<path class="st0" d="M298.5,43.8c0.4,0.5,0.6,1,0.6,1.6c0,0.9-0.3,1.6-0.9,2.1s-1.5,0.8-2.6,0.8h-4.9V37.8h4.7
		c1.1,0,1.9,0.2,2.5,0.7c0.6,0.5,0.9,1.2,0.9,2c0,0.6-0.2,1.1-0.5,1.5c-0.3,0.4-0.8,0.7-1.3,0.9C297.6,43.1,298.1,43.4,298.5,43.8z
		 M293.2,42.1h1.7c0.4,0,0.7-0.1,1-0.3c0.2-0.2,0.3-0.5,0.3-0.8c0-0.4-0.1-0.6-0.3-0.8c-0.2-0.2-0.5-0.3-1-0.3h-1.7V42.1z M296.1,46
		c0.2-0.2,0.4-0.5,0.4-0.8s-0.1-0.7-0.4-0.9s-0.6-0.3-1-0.3h-1.9v2.3h1.9C295.5,46.3,295.9,46.2,296.1,46z"/>
	<path class="st0" d="M303.1,37.8v6.3c0,0.6,0.2,1.1,0.5,1.5c0.3,0.3,0.8,0.5,1.4,0.5c0.6,0,1.1-0.2,1.4-0.5
		c0.3-0.3,0.5-0.8,0.5-1.5v-6.3h2.6v6.3c0,0.9-0.2,1.7-0.6,2.4c-0.4,0.7-0.9,1.1-1.6,1.5s-1.4,0.5-2.3,0.5s-1.6-0.2-2.2-0.5
		c-0.7-0.3-1.2-0.8-1.6-1.5c-0.4-0.7-0.6-1.5-0.6-2.4v-6.3H303.1z"/>
	<path class="st0" d="M323,37.8v10.5h-2.6V42l-2.4,6.3h-2.1l-2.4-6.3v6.3h-2.6V37.8h3l3,7.3l2.9-7.3H323z"/>
</g>
<g>
	<path d="M230.3,111c0-1.2-0.3-2.2-1-2.9c-0.7-0.7-1.8-1.4-3.5-2c-1.6-0.6-3-1.2-4.2-1.8c-1.2-0.6-2.2-1.3-3-2.1
		c-0.8-0.8-1.5-1.7-2-2.8c-0.5-1.1-0.7-2.3-0.7-3.8c0-2.5,0.8-4.6,2.4-6.2c1.6-1.6,3.8-2.6,6.4-2.8v-4.8h3.6v4.9
		c2.7,0.4,4.7,1.5,6.2,3.3s2.2,4.2,2.2,7.1h-6.5c0-1.8-0.4-3.1-1.1-4c-0.7-0.9-1.7-1.3-3-1.3c-1.2,0-2.2,0.3-2.9,1s-1,1.7-1,2.9
		c0,1.1,0.3,2.1,1,2.7c0.7,0.7,1.9,1.4,3.7,2.1s3.3,1.4,4.4,2c1.2,0.6,2.1,1.4,2.9,2.2c0.8,0.8,1.4,1.7,1.8,2.7
		c0.4,1,0.6,2.2,0.6,3.6c0,2.5-0.8,4.6-2.4,6.2c-1.6,1.6-3.8,2.5-6.6,2.8v4.5H224v-4.4c-3.1-0.3-5.4-1.4-7.1-3.3
		c-1.7-1.8-2.5-4.3-2.5-7.4h6.5c0,1.8,0.4,3.1,1.3,4.1c0.8,1,2.1,1.4,3.6,1.4c1.3,0,2.4-0.3,3.1-1S230.3,112.2,230.3,111z"/>
	<path d="M247.8,100.4h3.5c1.6,0,2.9-0.4,3.7-1.2c0.8-0.8,1.2-1.9,1.2-3.3c0-1.3-0.4-2.3-1.2-3.1c-0.8-0.7-1.9-1.1-3.2-1.1
		c-1.2,0-2.3,0.3-3.1,1s-1.3,1.6-1.3,2.7h-6.5c0-1.7,0.5-3.2,1.4-4.6s2.2-2.4,3.9-3.2c1.7-0.8,3.5-1.1,5.5-1.1
		c3.5,0,6.2,0.8,8.1,2.5c2,1.7,2.9,3.9,2.9,6.8c0,1.5-0.5,2.9-1.4,4.1c-0.9,1.3-2.1,2.2-3.6,2.9c1.8,0.7,3.2,1.6,4.1,3
		c0.9,1.3,1.4,2.9,1.4,4.7c0,2.9-1.1,5.2-3.2,7s-4.9,2.6-8.4,2.6c-3.3,0-5.9-0.9-8-2.6s-3.1-4-3.1-6.8h6.5c0,1.2,0.5,2.2,1.4,3
		s2.1,1.2,3.4,1.2c1.5,0,2.8-0.4,3.6-1.2c0.9-0.8,1.3-1.9,1.3-3.2c0-3.3-1.8-4.9-5.4-4.9h-3.4L247.8,100.4L247.8,100.4z"/>
	<path d="M289.6,106.1c0,4.5-0.9,8-2.8,10.4s-4.6,3.6-8.2,3.6s-6.3-1.2-8.2-3.5c-1.9-2.4-2.9-5.7-2.9-10.1v-6c0-4.6,0.9-8,2.8-10.4
		s4.6-3.5,8.2-3.5s6.3,1.2,8.2,3.5s2.9,5.7,2.9,10.1V106.1z M283.1,99.4c0-2.7-0.4-4.7-1.1-5.9c-0.7-1.2-1.9-1.9-3.5-1.9
		c-1.5,0-2.7,0.6-3.4,1.8c-0.7,1.2-1.1,3-1.2,5.5v8c0,2.7,0.4,4.7,1.1,5.9c0.7,1.3,1.9,1.9,3.5,1.9s2.7-0.6,3.4-1.9
		c0.7-1.2,1.1-3.1,1.1-5.7v-7.7C283,99.4,283.1,99.4,283.1,99.4z"/>
</g>
<g>
	<path d="M149.4,196.3h4v0.9h-5.1V186h1.1V196.3z"/>
	<path d="M155.5,186.6c-0.2-0.2-0.2-0.4-0.2-0.6c0-0.2,0.1-0.4,0.2-0.6c0.2-0.2,0.4-0.2,0.6-0.2s0.4,0.1,0.6,0.2
		c0.2,0.1,0.2,0.3,0.2,0.6c0,0.2-0.1,0.4-0.2,0.6c-0.1,0.2-0.4,0.2-0.6,0.2C155.8,186.8,155.6,186.8,155.5,186.6z M156.6,188.5v8.7
		h-1.1v-8.7H156.6z"/>
	<path d="M172.6,189.3c0.6,0.6,1,1.6,1,2.8v5.1h-1.1v-5c0-0.9-0.2-1.7-0.7-2.2s-1.1-0.8-1.9-0.8s-1.5,0.3-2,0.8s-0.7,1.3-0.7,2.4
		v4.7h-1.1v-5c0-0.9-0.2-1.7-0.7-2.2s-1.1-0.8-1.9-0.8s-1.5,0.3-2,0.8s-0.7,1.3-0.7,2.4v4.7h-1.1v-8.7h1.1v1.5
		c0.3-0.5,0.7-1,1.2-1.2c0.5-0.3,1.1-0.4,1.7-0.4c0.8,0,1.4,0.2,2,0.5c0.6,0.4,1,0.9,1.2,1.6c0.2-0.7,0.6-1.2,1.2-1.6
		c0.6-0.4,1.2-0.6,1.9-0.6C171.1,188.3,171.9,188.7,172.6,189.3z"/>
	<path d="M176.5,186.6c-0.2-0.2-0.2-0.4-0.2-0.6c0-0.2,0.1-0.4,0.2-0.6c0.2-0.2,0.4-0.2,0.6-0.2s0.4,0.1,0.6,0.2
		c0.2,0.1,0.2,0.3,0.2,0.6c0,0.2-0.1,0.4-0.2,0.6c-0.1,0.2-0.4,0.2-0.6,0.2C176.8,186.8,176.6,186.8,176.5,186.6z M177.6,188.5v8.7
		h-1.1v-8.7H177.6z"/>
	<path d="M182.1,189.4v5.4c0,0.5,0.1,0.9,0.3,1.1c0.2,0.2,0.6,0.3,1.1,0.3h1v1h-1.2c-0.8,0-1.4-0.2-1.8-0.6c-0.4-0.4-0.6-1-0.6-1.8
		v-5.4h-1.2v-0.9h1.2v-2.2h1.2v2.2h2.4v0.9H182.1z"/>
	<path d="M194.8,193.3h-7.2c0,0.7,0.2,1.2,0.5,1.7s0.7,0.8,1.1,1.1c0.5,0.2,1,0.4,1.5,0.4c0.7,0,1.3-0.2,1.8-0.5
		c0.5-0.4,0.8-0.8,1-1.4h1.2c-0.2,0.9-0.7,1.5-1.4,2.1c-0.7,0.5-1.6,0.8-2.6,0.8c-0.8,0-1.6-0.2-2.2-0.6c-0.7-0.4-1.2-0.9-1.5-1.6
		c-0.4-0.7-0.6-1.5-0.6-2.4s0.2-1.7,0.5-2.4c0.4-0.7,0.9-1.2,1.5-1.6c0.7-0.4,1.4-0.5,2.2-0.5s1.6,0.2,2.2,0.5
		c0.6,0.4,1.1,0.9,1.4,1.5s0.5,1.3,0.5,2C194.8,192.8,194.8,193.1,194.8,193.3z M193.2,190.7c-0.3-0.5-0.6-0.8-1.1-1s-1-0.4-1.5-0.4
		c-0.8,0-1.5,0.3-2.1,0.8s-0.9,1.3-1,2.3h6.1C193.6,191.7,193.4,191.2,193.2,190.7z"/>
	<path d="M197.3,190.5c0.4-0.7,0.9-1.2,1.5-1.6c0.6-0.4,1.4-0.6,2.2-0.6s1.5,0.2,2.1,0.6c0.6,0.4,1.1,0.9,1.4,1.5v-5h1.1v11.8h-1.1
		v-2c-0.3,0.6-0.7,1.1-1.3,1.5s-1.3,0.6-2.1,0.6s-1.5-0.2-2.2-0.6c-0.6-0.4-1.1-0.9-1.5-1.6c-0.4-0.7-0.5-1.5-0.5-2.4
		S196.9,191.2,197.3,190.5z M203.9,191c-0.3-0.5-0.7-0.9-1.2-1.2s-1-0.4-1.6-0.4s-1.2,0.1-1.7,0.4c-0.5,0.3-0.9,0.7-1.2,1.2
		s-0.4,1.2-0.4,1.9s0.1,1.3,0.4,1.9c0.3,0.5,0.7,0.9,1.2,1.2s1,0.4,1.7,0.4c0.6,0,1.1-0.1,1.6-0.4c0.5-0.3,0.9-0.7,1.2-1.2
		s0.4-1.2,0.4-1.9C204.4,192.2,204.2,191.5,203.9,191z"/>
	<path d="M221.2,193.3H214c0,0.7,0.2,1.2,0.5,1.7s0.7,0.8,1.1,1.1c0.5,0.2,1,0.4,1.5,0.4c0.7,0,1.3-0.2,1.8-0.5
		c0.5-0.4,0.8-0.8,1-1.4h1.2c-0.2,0.9-0.7,1.5-1.4,2.1c-0.7,0.5-1.6,0.8-2.6,0.8c-0.8,0-1.6-0.2-2.2-0.6c-0.7-0.4-1.2-0.9-1.5-1.6
		c-0.4-0.7-0.6-1.5-0.6-2.4s0.2-1.7,0.5-2.4c0.4-0.7,0.9-1.2,1.5-1.6c0.7-0.4,1.4-0.5,2.2-0.5s1.6,0.2,2.2,0.5
		c0.6,0.4,1.1,0.9,1.4,1.5s0.5,1.3,0.5,2C221.3,192.8,221.3,193.1,221.2,193.3z M219.8,190.7c-0.3-0.5-0.6-0.8-1.1-1s-1-0.4-1.5-0.4
		c-0.8,0-1.5,0.3-2.1,0.8s-0.9,1.3-1,2.3h6.1C220.2,191.7,220,191.2,219.8,190.7z"/>
	<path d="M223.8,190.5c0.4-0.7,0.9-1.2,1.5-1.6c0.6-0.4,1.4-0.6,2.2-0.6s1.5,0.2,2.1,0.6c0.6,0.4,1.1,0.9,1.4,1.5v-5h1.1v11.8H231
		v-2c-0.3,0.6-0.7,1.1-1.3,1.5s-1.3,0.6-2.1,0.6s-1.5-0.2-2.2-0.6c-0.6-0.4-1.1-0.9-1.5-1.6c-0.4-0.7-0.5-1.5-0.5-2.4
		S223.5,191.2,223.8,190.5z M230.5,191c-0.3-0.5-0.7-0.9-1.2-1.2s-1-0.4-1.6-0.4s-1.2,0.1-1.7,0.4c-0.5,0.3-0.9,0.7-1.2,1.2
		s-0.4,1.2-0.4,1.9s0.1,1.3,0.4,1.9c0.3,0.5,0.7,0.9,1.2,1.2s1,0.4,1.7,0.4c0.6,0,1.1-0.1,1.6-0.4c0.5-0.3,0.9-0.7,1.2-1.2
		s0.4-1.2,0.4-1.9S230.8,191.5,230.5,191z"/>
	<path d="M235.1,186.6c-0.2-0.2-0.2-0.4-0.2-0.6c0-0.2,0.1-0.4,0.2-0.6c0.2-0.2,0.4-0.2,0.6-0.2c0.2,0,0.4,0.1,0.6,0.2
		s0.2,0.3,0.2,0.6c0,0.2-0.1,0.4-0.2,0.6s-0.4,0.2-0.6,0.2C235.4,186.8,235.2,186.8,235.1,186.6z M236.2,188.5v8.7h-1.1v-8.7H236.2z
		"/>
	<path d="M240.8,189.4v5.4c0,0.5,0.1,0.9,0.3,1.1c0.2,0.2,0.6,0.3,1.1,0.3h1v1H242c-0.8,0-1.4-0.2-1.8-0.6c-0.4-0.4-0.6-1-0.6-1.8
		v-5.4h-1.2v-0.9h1.2v-2.2h1.1v2.2h2.4v0.9H240.8z"/>
	<path d="M245.4,186.6c-0.2-0.2-0.2-0.4-0.2-0.6c0-0.2,0.1-0.4,0.2-0.6c0.2-0.2,0.4-0.2,0.6-0.2c0.2,0,0.4,0.1,0.6,0.2
		s0.2,0.3,0.2,0.6c0,0.2-0.1,0.4-0.2,0.6s-0.4,0.2-0.6,0.2C245.8,186.8,245.6,186.8,245.4,186.6z M246.5,188.5v8.7h-1.1v-8.7H246.5z
		"/>
	<path d="M251.2,196.8c-0.7-0.4-1.2-0.9-1.6-1.6c-0.4-0.7-0.6-1.5-0.6-2.4s0.2-1.7,0.6-2.4c0.4-0.7,0.9-1.2,1.6-1.6
		c0.7-0.4,1.4-0.6,2.2-0.6s1.6,0.2,2.2,0.6c0.7,0.4,1.2,0.9,1.6,1.6c0.4,0.7,0.6,1.5,0.6,2.4s-0.2,1.7-0.6,2.4s-0.9,1.2-1.6,1.6
		c-0.7,0.4-1.4,0.6-2.2,0.6S251.8,197.2,251.2,196.8z M255,196c0.5-0.3,0.9-0.7,1.2-1.2c0.3-0.5,0.5-1.2,0.5-1.9s-0.1-1.4-0.4-1.9
		s-0.7-0.9-1.2-1.2s-1-0.4-1.6-0.4s-1.1,0.1-1.6,0.4c-0.5,0.3-0.9,0.7-1.2,1.2s-0.4,1.2-0.4,1.9s0.1,1.4,0.4,1.9
		c0.3,0.5,0.7,0.9,1.2,1.2s1,0.4,1.6,0.4S254.5,196.2,255,196z"/>
	<path d="M267,189.3c0.7,0.6,1,1.6,1,2.8v5.1h-1.1v-5c0-0.9-0.2-1.7-0.7-2.2s-1.1-0.8-1.9-0.8s-1.5,0.3-2,0.8s-0.8,1.3-0.8,2.4v4.8
		h-1.1v-8.7h1.1v1.5c0.3-0.5,0.7-0.9,1.2-1.2s1.1-0.4,1.8-0.4C265.5,188.3,266.3,188.7,267,189.3z"/>
	<path d="M276.3,196.7c-0.6-0.5-1-1.1-1.1-1.9h1.2c0.1,0.5,0.3,0.9,0.7,1.2c0.4,0.3,1,0.5,1.7,0.5c0.6,0,1.1-0.1,1.4-0.4
		c0.3-0.3,0.5-0.6,0.5-1.1c0-0.3-0.1-0.5-0.3-0.7c-0.2-0.2-0.4-0.3-0.7-0.5c-0.3-0.1-0.7-0.2-1.2-0.4c-0.7-0.2-1.2-0.3-1.6-0.5
		s-0.7-0.4-1-0.8c-0.3-0.4-0.4-0.8-0.4-1.4c0-0.4,0.1-0.8,0.4-1.2s0.6-0.7,1.1-0.9s1-0.3,1.6-0.3c0.9,0,1.7,0.2,2.3,0.7
		s0.9,1.1,0.9,2h-1.1c0-0.5-0.2-0.9-0.6-1.2s-0.9-0.5-1.5-0.5s-1,0.1-1.4,0.4s-0.5,0.6-0.5,1c0,0.3,0.1,0.6,0.3,0.8
		c0.2,0.2,0.5,0.4,0.8,0.5s0.7,0.3,1.2,0.4c0.6,0.2,1.1,0.3,1.5,0.5s0.7,0.4,1,0.7s0.4,0.7,0.4,1.2s-0.1,0.9-0.4,1.3
		c-0.3,0.4-0.6,0.7-1.1,0.9s-1,0.3-1.6,0.3C277.8,197.4,277,197.1,276.3,196.7z"/>
	<path d="M284.5,186.6c-0.2-0.2-0.2-0.4-0.2-0.6c0-0.2,0.1-0.4,0.2-0.6c0.2-0.2,0.4-0.2,0.6-0.2s0.4,0.1,0.6,0.2s0.2,0.3,0.2,0.6
		c0,0.2-0.1,0.4-0.2,0.6c-0.1,0.2-0.4,0.2-0.6,0.2S284.6,186.8,284.5,186.6z M285.5,188.5v8.7h-1.1v-8.7H285.5z"/>
	<path d="M294.5,188.9c0.6,0.4,1,0.9,1.3,1.5v-1.9h1.1v9c0,0.8-0.2,1.5-0.5,2.1s-0.8,1.1-1.4,1.4s-1.3,0.5-2.1,0.5
		c-1.1,0-2.1-0.3-2.8-0.8c-0.7-0.5-1.2-1.3-1.4-2.2h1.1c0.2,0.6,0.6,1.1,1.1,1.5s1.2,0.5,2,0.5c0.6,0,1.1-0.1,1.5-0.4
		c0.4-0.2,0.8-0.6,1.1-1.1c0.3-0.5,0.4-1,0.4-1.7v-2.2c-0.3,0.6-0.7,1.1-1.3,1.5s-1.3,0.6-2.1,0.6s-1.5-0.2-2.2-0.6
		c-0.6-0.4-1.1-0.9-1.5-1.6c-0.4-0.7-0.5-1.5-0.5-2.4s0.2-1.7,0.5-2.4c0.4-0.7,0.9-1.2,1.5-1.6c0.6-0.4,1.4-0.6,2.2-0.6
		C293,188.4,293.8,188.6,294.5,188.9z M295.2,191c-0.3-0.5-0.7-0.9-1.2-1.2s-1-0.4-1.6-0.4s-1.2,0.1-1.7,0.4
		c-0.5,0.3-0.9,0.7-1.2,1.2c-0.3,0.5-0.4,1.2-0.4,1.9s0.1,1.3,0.4,1.9c0.3,0.5,0.7,0.9,1.2,1.2s1,0.4,1.7,0.4c0.6,0,1.1-0.1,1.6-0.4
		c0.5-0.3,0.9-0.7,1.2-1.2s0.4-1.2,0.4-1.9C295.8,192.2,295.5,191.5,295.2,191z"/>
	<path d="M306.5,189.3c0.7,0.6,1,1.6,1,2.8v5.1h-1.1v-5c0-0.9-0.2-1.7-0.7-2.2s-1.1-0.8-1.9-0.8s-1.5,0.3-2,0.8s-0.8,1.3-0.8,2.4
		v4.8h-1.1v-8.7h1.1v1.5c0.3-0.5,0.7-0.9,1.2-1.2s1.1-0.4,1.8-0.4C305,188.3,305.8,188.7,306.5,189.3z"/>
	<path d="M318.3,193.3h-7.2c0,0.7,0.2,1.2,0.5,1.7s0.7,0.8,1.1,1.1c0.5,0.2,1,0.4,1.5,0.4c0.7,0,1.3-0.2,1.8-0.5
		c0.5-0.4,0.8-0.8,1-1.4h1.2c-0.2,0.9-0.7,1.5-1.4,2.1c-0.7,0.5-1.6,0.8-2.6,0.8c-0.8,0-1.6-0.2-2.2-0.6c-0.7-0.4-1.2-0.9-1.5-1.6
		c-0.4-0.7-0.6-1.5-0.6-2.4s0.2-1.7,0.5-2.4c0.4-0.7,0.9-1.2,1.5-1.6c0.7-0.4,1.4-0.5,2.2-0.5s1.6,0.2,2.2,0.5
		c0.6,0.4,1.1,0.9,1.4,1.5s0.5,1.3,0.5,2C318.3,192.8,318.3,193.1,318.3,193.3z M316.8,190.7c-0.3-0.5-0.6-0.8-1.1-1s-1-0.4-1.5-0.4
		c-0.8,0-1.5,0.3-2.1,0.8s-0.9,1.3-1,2.3h6.1C317.2,191.7,317.1,191.2,316.8,190.7z"/>
	<path d="M321,190.5c0.4-0.7,0.9-1.2,1.5-1.6c0.6-0.4,1.4-0.6,2.2-0.6s1.5,0.2,2.1,0.6c0.6,0.4,1.1,0.9,1.4,1.5v-5h1.1v11.8h-1.1v-2
		c-0.3,0.6-0.7,1.1-1.3,1.5c-0.6,0.4-1.3,0.6-2.1,0.6c-0.8,0-1.5-0.2-2.2-0.6c-0.6-0.4-1.1-0.9-1.5-1.6c-0.4-0.7-0.5-1.5-0.5-2.4
		S320.5,191.2,321,190.5z M327.6,191c-0.3-0.5-0.7-0.9-1.2-1.2s-1-0.4-1.6-0.4s-1.2,0.1-1.7,0.4c-0.5,0.3-0.9,0.7-1.2,1.2
		c-0.3,0.5-0.4,1.2-0.4,1.9s0.1,1.3,0.4,1.9c0.3,0.5,0.7,0.9,1.2,1.2s1,0.4,1.7,0.4c0.6,0,1.1-0.1,1.6-0.4c0.5-0.3,0.9-0.7,1.2-1.2
		s0.4-1.2,0.4-1.9S328,191.5,327.6,191z"/>
	<path d="M337.2,188.7c0.5-0.9,1.1-1.5,2-2s1.8-0.7,2.8-0.7c1.2,0,2.3,0.3,3.2,0.9c0.9,0.6,1.5,1.4,1.9,2.5h-1.3
		c-0.3-0.8-0.8-1.3-1.5-1.8c-0.7-0.4-1.4-0.6-2.4-0.6c-0.8,0-1.6,0.2-2.2,0.6c-0.7,0.4-1.2,0.9-1.5,1.7c-0.4,0.7-0.6,1.6-0.6,2.5
		s0.2,1.8,0.6,2.5s0.9,1.3,1.5,1.6c0.7,0.4,1.4,0.6,2.2,0.6c0.9,0,1.7-0.2,2.4-0.6c0.7-0.4,1.1-1,1.5-1.8h1.3
		c-0.4,1.1-1.1,1.9-2,2.5s-2,0.9-3.2,0.9c-1,0-2-0.2-2.8-0.7s-1.5-1.2-2-2c-0.5-0.9-0.7-1.8-0.7-2.9S336.8,189.5,337.2,188.7z"/>
	<path d="M356.4,186.7c0.9,0.4,1.6,1.1,2,1.9c0.5,0.8,0.7,1.8,0.7,3s-0.2,2.1-0.7,3c-0.5,0.8-1.1,1.5-2,1.9s-1.9,0.7-3.2,0.7h-3.3
		V186h3.3C354.4,186,355.4,186.3,356.4,186.7z M356.8,195.1c0.8-0.8,1.2-2,1.2-3.4c0-1.5-0.4-2.6-1.2-3.4c-0.8-0.8-2-1.2-3.6-1.2
		H351v9.3h2.2C354.8,196.3,355.9,195.9,356.8,195.1z"/>
</g>
<g>
	<path d="M160.8,238.2c1.1-1.2,1.6-2.3,1.6-3.4c0-0.7-0.2-1.3-0.6-1.8c-0.4-0.4-1-0.7-1.8-0.7s-1.4,0.3-1.9,0.8
		c-0.4,0.5-0.7,1.2-0.7,2h-1.1c0.1-1.2,0.4-2.1,1.1-2.8s1.5-1,2.6-1c1,0,1.9,0.3,2.5,0.9c0.6,0.6,1,1.4,1,2.5c0,1.3-0.5,2.5-1.6,3.8
		c-1.1,1.2-2.4,2.4-4,3.5h5.9v0.9h-7.6v-0.8C158.1,240.7,159.6,239.4,160.8,238.2z"/>
	<path d="M172.6,235.3v5.4c0,0.5,0.1,0.9,0.3,1.1c0.2,0.2,0.6,0.3,1.1,0.3h1v1h-1.2c-0.8,0-1.4-0.2-1.8-0.6c-0.4-0.4-0.6-1-0.6-1.8
		v-5.4h-1.2v-0.9h1.2v-2.2h1.1v2.2h2.4v0.9H172.6z"/>
	<path d="M177.3,232.4c-0.2-0.2-0.2-0.4-0.2-0.6c0-0.2,0.1-0.4,0.2-0.6c0.2-0.2,0.4-0.2,0.6-0.2c0.2,0,0.4,0.1,0.6,0.2
		s0.2,0.3,0.2,0.6c0,0.2-0.1,0.4-0.2,0.6s-0.4,0.2-0.6,0.2C177.6,232.7,177.4,232.6,177.3,232.4z M178.4,234.3v8.7h-1.1v-8.7H178.4z
		"/>
	<path d="M181.5,236.3c0.4-0.7,0.9-1.2,1.5-1.6c0.6-0.4,1.4-0.6,2.2-0.6c1.1,0,2,0.3,2.7,0.8s1.1,1.3,1.4,2.2h-1.2
		c-0.1-0.6-0.5-1.1-1-1.5s-1.1-0.5-1.8-0.5c-0.6,0-1.1,0.1-1.6,0.4s-0.8,0.7-1.1,1.2s-0.4,1.2-0.4,1.9s0.1,1.4,0.4,2
		c0.3,0.5,0.6,0.9,1.1,1.2s1,0.4,1.6,0.4c0.7,0,1.4-0.2,1.8-0.5s0.8-0.9,1-1.5h1.2c-0.2,0.9-0.7,1.6-1.4,2.2
		c-0.7,0.6-1.6,0.8-2.7,0.8c-0.8,0-1.6-0.2-2.2-0.6c-0.6-0.4-1.1-0.9-1.5-1.6c-0.4-0.7-0.5-1.5-0.5-2.4
		C180.9,237.8,181.1,237,181.5,236.3z"/>
	<path d="M196.4,243l-3.6-3.9v3.9h-1.1v-11.8h1.1v7l3.5-3.9h1.6l-4.1,4.4l4.2,4.4L196.4,243L196.4,243z"/>
	<path d="M207.8,239.1h-7.2c0,0.7,0.2,1.2,0.5,1.7s0.7,0.8,1.1,1.1c0.5,0.2,1,0.4,1.5,0.4c0.7,0,1.3-0.2,1.8-0.5
		c0.5-0.4,0.8-0.8,1-1.4h1.2c-0.2,0.9-0.7,1.5-1.4,2.1c-0.7,0.5-1.6,0.8-2.6,0.8c-0.8,0-1.6-0.2-2.2-0.6c-0.7-0.4-1.2-0.9-1.5-1.6
		c-0.4-0.7-0.6-1.5-0.6-2.4s0.2-1.7,0.5-2.4c0.4-0.7,0.9-1.2,1.5-1.6c0.7-0.4,1.4-0.5,2.2-0.5s1.6,0.2,2.2,0.5
		c0.6,0.4,1.1,0.9,1.4,1.5c0.3,0.6,0.5,1.3,0.5,2C207.8,238.6,207.8,238.9,207.8,239.1z M206.3,236.5c-0.3-0.5-0.6-0.8-1.1-1
		s-1-0.4-1.5-0.4c-0.8,0-1.5,0.3-2.1,0.8s-0.9,1.3-1,2.3h6.1C206.8,237.5,206.5,237,206.3,236.5z"/>
	<path d="M211.8,235.3v5.4c0,0.5,0.1,0.9,0.3,1.1c0.2,0.2,0.6,0.3,1.1,0.3h1v1H213c-0.8,0-1.4-0.2-1.8-0.6c-0.4-0.4-0.6-1-0.6-1.8
		v-5.4h-1.2v-0.9h1.2v-2.2h1.1v2.2h2.4v0.9H211.8z"/>
	<path d="M217,242.5c-0.6-0.5-1-1.1-1.1-1.9h1.2c0.1,0.5,0.3,0.9,0.7,1.2s1,0.5,1.7,0.5c0.6,0,1.1-0.1,1.4-0.4
		c0.3-0.3,0.5-0.6,0.5-1.1c0-0.3-0.1-0.5-0.3-0.7s-0.4-0.3-0.7-0.5c-0.3-0.1-0.7-0.2-1.2-0.4c-0.7-0.2-1.2-0.3-1.6-0.5
		c-0.4-0.2-0.7-0.4-1-0.8c-0.3-0.4-0.4-0.8-0.4-1.4c0-0.4,0.1-0.8,0.4-1.2c0.3-0.4,0.6-0.7,1.1-0.9s1-0.3,1.6-0.3
		c0.9,0,1.7,0.2,2.3,0.7s0.9,1.1,0.9,2h-1.1c0-0.5-0.2-0.9-0.6-1.2c-0.4-0.3-0.9-0.5-1.5-0.5s-1,0.1-1.4,0.4c-0.4,0.3-0.5,0.6-0.5,1
		c0,0.3,0.1,0.6,0.3,0.8s0.5,0.4,0.8,0.5s0.7,0.3,1.2,0.4c0.6,0.2,1.1,0.3,1.5,0.5s0.7,0.4,1,0.7s0.4,0.7,0.4,1.2s-0.1,0.9-0.4,1.3
		c-0.3,0.4-0.6,0.7-1.1,0.9s-1,0.3-1.6,0.3C218.5,243.2,217.8,242.9,217,242.5z"/>
	<path d="M233.4,235.3h-2v7.8h-1.1v-7.8h-1.2v-0.9h1.2v-0.6c0-0.9,0.2-1.6,0.7-2.1c0.5-0.4,1.3-0.7,2.4-0.7v1
		c-0.7,0-1.2,0.1-1.5,0.4s-0.4,0.7-0.4,1.4v0.6h2L233.4,235.3L233.4,235.3z"/>
	<path d="M237.3,242.6c-0.7-0.4-1.2-0.9-1.6-1.6c-0.4-0.7-0.6-1.5-0.6-2.4s0.2-1.7,0.6-2.4c0.4-0.7,0.9-1.2,1.6-1.6
		c0.7-0.4,1.4-0.6,2.2-0.6s1.6,0.2,2.2,0.6c0.7,0.4,1.2,0.9,1.6,1.6c0.4,0.7,0.6,1.5,0.6,2.4s-0.2,1.7-0.6,2.4
		c-0.4,0.7-0.9,1.2-1.6,1.6c-0.7,0.4-1.4,0.6-2.2,0.6S237.9,243,237.3,242.6z M241.1,241.8c0.5-0.3,0.9-0.7,1.2-1.2s0.5-1.2,0.5-1.9
		s-0.1-1.4-0.4-1.9c-0.3-0.5-0.7-0.9-1.2-1.2s-1-0.4-1.6-0.4s-1.1,0.1-1.6,0.4c-0.5,0.3-0.9,0.7-1.2,1.2s-0.4,1.2-0.4,1.9
		s0.1,1.4,0.4,1.9c0.3,0.5,0.7,0.9,1.2,1.2s1,0.4,1.6,0.4S240.6,242.1,241.1,241.8z"/>
	<path d="M248.8,234.6c0.5-0.3,1.1-0.4,1.9-0.4v1.2h-0.3c-0.8,0-1.5,0.2-2,0.7c-0.5,0.4-0.7,1.2-0.7,2.2v4.9h-1.1v-8.7h1.1v1.6
		C247.8,235.3,248.2,234.9,248.8,234.6z"/>
	<path d="M270.5,235.1c0.6,0.6,1,1.6,1,2.8v5.1h-1.1v-5c0-0.9-0.2-1.7-0.7-2.2s-1.1-0.8-1.9-0.8s-1.5,0.3-2,0.8s-0.7,1.3-0.7,2.4
		v4.7H264v-5c0-0.9-0.2-1.7-0.7-2.2s-1.1-0.8-1.9-0.8s-1.5,0.3-2,0.8s-0.7,1.3-0.7,2.4v4.7h-1.1v-8.7h1.1v1.5c0.3-0.5,0.7-1,1.2-1.2
		c0.5-0.3,1.1-0.4,1.7-0.4c0.8,0,1.4,0.2,2,0.5c0.6,0.4,1,0.9,1.2,1.6c0.2-0.7,0.6-1.2,1.2-1.6c0.6-0.4,1.2-0.6,1.9-0.6
		C269,234.2,269.8,234.5,270.5,235.1z"/>
	<path d="M281.6,234.3l-5.2,12.8h-1.2l1.7-4.2l-3.6-8.7h1.2l3,7.5l2.9-7.5L281.6,234.3L281.6,234.3z"/>
	<path d="M288.5,236.3c0.4-0.7,0.9-1.2,1.5-1.6s1.4-0.6,2.2-0.6c1.1,0,2,0.3,2.7,0.8s1.1,1.3,1.4,2.2h-1.2c-0.1-0.6-0.5-1.1-1-1.5
		s-1.1-0.5-1.8-0.5c-0.6,0-1.1,0.1-1.6,0.4s-0.8,0.7-1.1,1.2s-0.4,1.2-0.4,1.9s0.1,1.4,0.4,2c0.3,0.5,0.6,0.9,1.1,1.2s1,0.4,1.6,0.4
		c0.7,0,1.4-0.2,1.8-0.5s0.8-0.9,1-1.5h1.2c-0.2,0.9-0.7,1.6-1.4,2.2s-1.6,0.8-2.7,0.8c-0.8,0-1.6-0.2-2.2-0.6
		c-0.6-0.4-1.1-0.9-1.5-1.6c-0.4-0.7-0.5-1.5-0.5-2.4C288,237.8,288.1,237,288.5,236.3z"/>
	<path d="M300.5,242.6c-0.7-0.4-1.2-0.9-1.6-1.6c-0.4-0.7-0.6-1.5-0.6-2.4s0.2-1.7,0.6-2.4s0.9-1.2,1.6-1.6c0.7-0.4,1.4-0.6,2.2-0.6
		s1.6,0.2,2.2,0.6c0.7,0.4,1.2,0.9,1.6,1.6c0.4,0.7,0.6,1.5,0.6,2.4s-0.2,1.7-0.6,2.4s-0.9,1.2-1.6,1.6c-0.7,0.4-1.4,0.6-2.2,0.6
		S301,243,300.5,242.6z M304.2,241.8c0.5-0.3,0.9-0.7,1.2-1.2c0.3-0.5,0.5-1.2,0.5-1.9s-0.1-1.4-0.4-1.9s-0.7-0.9-1.2-1.2
		s-1-0.4-1.6-0.4s-1.1,0.1-1.6,0.4c-0.5,0.3-0.9,0.7-1.2,1.2c-0.3,0.5-0.4,1.2-0.4,1.9s0.1,1.4,0.4,1.9s0.7,0.9,1.2,1.2
		s1,0.4,1.6,0.4S303.8,242.1,304.2,241.8z"/>
	<path d="M316.2,235.1c0.7,0.6,1,1.6,1,2.8v5.1h-1.1v-5c0-0.9-0.2-1.7-0.7-2.2s-1.1-0.8-1.9-0.8s-1.5,0.3-2,0.8s-0.8,1.3-0.8,2.4
		v4.8h-1.1v-8.7h1.1v1.5c0.3-0.5,0.7-0.9,1.2-1.2s1.1-0.4,1.8-0.4C314.6,234.2,315.5,234.5,316.2,235.1z"/>
	<path d="M320.1,236.3c0.4-0.7,0.9-1.2,1.5-1.6s1.4-0.6,2.2-0.6c1.1,0,2,0.3,2.7,0.8s1.1,1.3,1.4,2.2h-1.2c-0.1-0.6-0.5-1.1-1-1.5
		s-1.1-0.5-1.8-0.5c-0.6,0-1.1,0.1-1.6,0.4s-0.8,0.7-1.1,1.2s-0.4,1.2-0.4,1.9s0.1,1.4,0.4,2c0.3,0.5,0.6,0.9,1.1,1.2s1,0.4,1.6,0.4
		c0.7,0,1.4-0.2,1.8-0.5s0.8-0.9,1-1.5h1.2c-0.2,0.9-0.7,1.6-1.4,2.2s-1.6,0.8-2.7,0.8c-0.8,0-1.6-0.2-2.2-0.6
		c-0.6-0.4-1.1-0.9-1.5-1.6c-0.4-0.7-0.5-1.5-0.5-2.4C319.6,237.8,319.8,237,320.1,236.3z"/>
	<path d="M338.3,239.1h-7.2c0,0.7,0.2,1.2,0.5,1.7s0.7,0.8,1.1,1.1c0.5,0.2,1,0.4,1.5,0.4c0.7,0,1.3-0.2,1.8-0.5
		c0.5-0.4,0.8-0.8,1-1.4h1.2c-0.2,0.9-0.7,1.5-1.4,2.1c-0.7,0.5-1.6,0.8-2.6,0.8c-0.8,0-1.6-0.2-2.2-0.6c-0.7-0.4-1.2-0.9-1.5-1.6
		c-0.4-0.7-0.6-1.5-0.6-2.4s0.2-1.7,0.5-2.4c0.4-0.7,0.9-1.2,1.5-1.6c0.7-0.4,1.4-0.5,2.2-0.5s1.6,0.2,2.2,0.5
		c0.6,0.4,1.1,0.9,1.4,1.5s0.5,1.3,0.5,2C338.3,238.6,338.3,238.9,338.3,239.1z M336.8,236.5c-0.3-0.5-0.6-0.8-1.1-1s-1-0.4-1.5-0.4
		c-0.8,0-1.5,0.3-2.1,0.8s-0.9,1.3-1,2.3h6.1C337.2,237.5,337,237,336.8,236.5z"/>
	<path d="M343.1,234.6c0.5-0.3,1.1-0.4,1.9-0.4v1.2h-0.3c-0.8,0-1.5,0.2-2,0.7c-0.5,0.4-0.7,1.2-0.7,2.2v4.9h-1.1v-8.7h1.1v1.6
		C342.2,235.3,342.6,234.9,343.1,234.6z"/>
	<path d="M348.6,235.3v5.4c0,0.5,0.1,0.9,0.3,1.1c0.2,0.2,0.6,0.3,1.1,0.3h1v1h-1.2c-0.8,0-1.4-0.2-1.8-0.6c-0.4-0.4-0.6-1-0.6-1.8
		v-5.4h-1.2v-0.9h1.2v-2.2h1.1v2.2h2.4v0.9H348.6z"/>
</g>
<g>
	<path d="M125.7,277.4v11.2h-1.1v-5.2h-6.1v5.2h-1.1v-11.2h1.1v5h6.1v-5H125.7z"/>
	<path d="M130.4,288.1c-0.7-0.4-1.2-0.9-1.6-1.6c-0.4-0.7-0.6-1.5-0.6-2.4s0.2-1.7,0.6-2.4c0.4-0.7,0.9-1.2,1.6-1.6s1.4-0.6,2.2-0.6
		s1.6,0.2,2.2,0.6c0.7,0.4,1.2,0.9,1.6,1.6c0.4,0.7,0.6,1.5,0.6,2.4s-0.2,1.7-0.6,2.4c-0.4,0.7-0.9,1.2-1.6,1.6s-1.4,0.6-2.2,0.6
		S131,288.5,130.4,288.1z M134.2,287.3c0.5-0.3,0.9-0.7,1.2-1.2s0.5-1.2,0.5-1.9s-0.1-1.4-0.4-1.9c-0.3-0.5-0.7-0.9-1.2-1.2
		c-0.5-0.3-1-0.4-1.6-0.4s-1.1,0.1-1.6,0.4s-0.9,0.7-1.2,1.2s-0.4,1.2-0.4,1.9s0.1,1.4,0.4,1.9s0.7,0.9,1.2,1.2
		c0.5,0.3,1,0.4,1.6,0.4C133.3,287.7,133.8,287.6,134.2,287.3z"/>
	<path d="M146.2,280.6c0.7,0.6,1,1.6,1,2.8v5.1h-1.1v-5c0-0.9-0.2-1.7-0.7-2.2s-1.1-0.8-1.9-0.8c-0.8,0-1.5,0.3-2,0.8
		s-0.8,1.3-0.8,2.4v4.8h-1.1v-8.7h1.1v1.5c0.3-0.5,0.7-0.9,1.2-1.2c0.5-0.3,1.1-0.4,1.8-0.4C144.8,279.6,145.5,280,146.2,280.6z"/>
	<path d="M151.8,288.1c-0.7-0.4-1.2-0.9-1.6-1.6s-0.6-1.5-0.6-2.4s0.2-1.7,0.6-2.4c0.4-0.7,0.9-1.2,1.6-1.6c0.7-0.4,1.4-0.6,2.2-0.6
		s1.6,0.2,2.2,0.6c0.7,0.4,1.2,0.9,1.6,1.6c0.4,0.7,0.6,1.5,0.6,2.4s-0.2,1.7-0.6,2.4c-0.4,0.7-0.9,1.2-1.6,1.6s-1.4,0.6-2.2,0.6
		S152.4,288.5,151.8,288.1z M155.5,287.3c0.5-0.3,0.9-0.7,1.2-1.2s0.5-1.2,0.5-1.9s-0.1-1.4-0.4-1.9s-0.7-0.9-1.2-1.2
		c-0.5-0.3-1-0.4-1.6-0.4s-1.1,0.1-1.6,0.4s-0.9,0.7-1.2,1.2s-0.4,1.2-0.4,1.9s0.1,1.4,0.4,1.9c0.3,0.5,0.7,0.9,1.2,1.2
		c0.5,0.3,1,0.4,1.6,0.4C154.6,287.7,155.1,287.6,155.5,287.3z"/>
	<path d="M163.1,280.1c0.5-0.3,1.1-0.4,1.9-0.4v1.2h-0.3c-0.8,0-1.5,0.2-2,0.7c-0.5,0.4-0.7,1.2-0.7,2.2v4.9h-1.1v-8.9h1.1v1.6
		C162.2,280.8,162.6,280.4,163.1,280.1z"/>
	<path d="M167.2,281.8c0.4-0.7,0.9-1.2,1.5-1.6s1.4-0.6,2.2-0.6s1.5,0.2,2.2,0.6c0.6,0.4,1,0.9,1.3,1.5v-1.9h1.1v8.7h-1.1v-1.9
		c-0.3,0.6-0.7,1.1-1.3,1.5s-1.3,0.6-2.2,0.6c-0.8,0-1.5-0.2-2.1-0.6s-1.1-0.9-1.5-1.6s-0.5-1.5-0.5-2.4S166.8,282.5,167.2,281.8z
		 M173.8,282.3c-0.3-0.5-0.7-0.9-1.2-1.2s-1-0.4-1.6-0.4s-1.2,0.1-1.7,0.4s-0.9,0.7-1.2,1.2s-0.4,1.2-0.4,1.9c0,0.7,0.1,1.3,0.4,1.9
		c0.3,0.5,0.7,0.9,1.2,1.2s1,0.4,1.7,0.4c0.6,0,1.1-0.1,1.6-0.4s0.9-0.7,1.2-1.2s0.4-1.2,0.4-1.9
		C174.3,283.5,174.1,282.8,173.8,282.3z"/>
	<path d="M180.9,280.2c0.6-0.4,1.3-0.6,2.1-0.6s1.5,0.2,2.1,0.6s1.1,0.9,1.5,1.6s0.5,1.5,0.5,2.4s-0.2,1.7-0.5,2.4
		c-0.4,0.7-0.9,1.2-1.5,1.6s-1.3,0.6-2.1,0.6s-1.5-0.2-2.2-0.6c-0.6-0.4-1-0.9-1.3-1.5v1.9h-1.1v-11.8h1.1v5
		C179.8,281.1,180.3,280.6,180.9,280.2z M185.6,282.3c-0.3-0.5-0.7-0.9-1.2-1.2c-0.5-0.3-1-0.4-1.7-0.4c-0.6,0-1.1,0.1-1.6,0.4
		s-0.9,0.7-1.2,1.2s-0.4,1.2-0.4,1.9c0,0.7,0.1,1.3,0.4,1.9c0.3,0.5,0.7,0.9,1.2,1.2c0.5,0.3,1,0.4,1.6,0.4s1.2-0.1,1.7-0.4
		s0.9-0.7,1.2-1.2s0.4-1.2,0.4-1.9C186,283.4,185.9,282.8,185.6,282.3z"/>
	<path d="M190.8,276.7v11.8h-1.1v-11.8H190.8z"/>
	<path d="M201.8,284.6h-7.2c0,0.7,0.2,1.2,0.5,1.7s0.7,0.8,1.1,1.1c0.5,0.2,1,0.4,1.5,0.4c0.7,0,1.3-0.2,1.8-0.5
		c0.5-0.4,0.8-0.8,1-1.4h1.2c-0.2,0.9-0.7,1.5-1.4,2.1c-0.7,0.5-1.6,0.8-2.6,0.8c-0.8,0-1.6-0.2-2.2-0.6c-0.7-0.4-1.2-0.9-1.5-1.6
		c-0.4-0.7-0.6-1.5-0.6-2.4s0.2-1.7,0.5-2.4c0.4-0.7,0.9-1.2,1.5-1.6c0.7-0.4,1.4-0.5,2.2-0.5s1.6,0.2,2.2,0.5
		c0.6,0.4,1.1,0.9,1.4,1.5s0.5,1.3,0.5,2C201.8,284.1,201.8,284.4,201.8,284.6z M200.2,282c-0.3-0.5-0.6-0.8-1.1-1s-1-0.4-1.5-0.4
		c-0.8,0-1.5,0.3-2.1,0.8s-0.9,1.3-1,2.3h6.1C200.6,283,200.5,282.5,200.2,282z"/>
	<path d="M222,280.6c0.6,0.6,1,1.6,1,2.8v5.1h-1.1v-5c0-0.9-0.2-1.7-0.7-2.2s-1.1-0.8-1.9-0.8c-0.8,0-1.5,0.3-2,0.8
		s-0.7,1.3-0.7,2.4v4.7h-1.1v-5c0-0.9-0.2-1.7-0.7-2.2s-1.1-0.8-1.9-0.8s-1.5,0.3-2,0.8s-0.7,1.3-0.7,2.4v4.7h-1.1v-8.5h1.1v1.5
		c0.3-0.5,0.7-1,1.2-1.2c0.5-0.3,1.1-0.4,1.7-0.4c0.8,0,1.4,0.2,2,0.5c0.6,0.4,1,0.9,1.2,1.6c0.2-0.7,0.6-1.2,1.2-1.6
		c0.6-0.4,1.2-0.6,1.9-0.6C220.6,279.6,221.4,280,222,280.6z"/>
	<path d="M233.8,284.6h-7.2c0,0.7,0.2,1.2,0.5,1.7s0.7,0.8,1.1,1.1c0.5,0.2,1,0.4,1.5,0.4c0.7,0,1.3-0.2,1.8-0.5
		c0.5-0.4,0.8-0.8,1-1.4h1.2c-0.2,0.9-0.7,1.5-1.4,2.1c-0.7,0.5-1.6,0.8-2.6,0.8c-0.8,0-1.6-0.2-2.2-0.6c-0.7-0.4-1.2-0.9-1.5-1.6
		c-0.4-0.7-0.6-1.5-0.6-2.4s0.2-1.7,0.5-2.4c0.4-0.7,0.9-1.2,1.5-1.6c0.7-0.4,1.4-0.5,2.2-0.5s1.6,0.2,2.2,0.5
		c0.6,0.4,1.1,0.9,1.4,1.5s0.5,1.3,0.5,2C233.9,284.1,233.9,284.4,233.8,284.6z M232.4,282c-0.3-0.5-0.6-0.8-1.1-1s-1-0.4-1.5-0.4
		c-0.8,0-1.5,0.3-2.1,0.8s-0.9,1.3-1,2.3h6.1C232.8,283,232.6,282.5,232.4,282z"/>
	<path d="M243.1,280.6c0.7,0.6,1,1.6,1,2.8v5.1H243v-5c0-0.9-0.2-1.7-0.7-2.2s-1.1-0.8-1.9-0.8c-0.8,0-1.5,0.3-2,0.8
		s-0.8,1.3-0.8,2.4v4.8h-1.1v-8.7h1.1v1.5c0.3-0.5,0.7-0.9,1.2-1.2c0.5-0.3,1.1-0.4,1.8-0.4C241.5,279.6,242.4,280,243.1,280.6z"/>
	<path d="M248.5,280.7v5.4c0,0.5,0.1,0.9,0.3,1.1s0.6,0.3,1.1,0.3h1v1h-1.2c-0.8,0-1.4-0.2-1.8-0.6c-0.4-0.4-0.6-1-0.6-1.8v-5.4
		h-1.2v-0.9h1.2v-2.2h1.1v2.2h2.4v0.9H248.5z"/>
	<path d="M253.2,277.9c-0.2-0.2-0.2-0.4-0.2-0.6s0.1-0.4,0.2-0.6c0.2-0.2,0.4-0.2,0.6-0.2c0.2,0,0.4,0.1,0.6,0.2s0.2,0.3,0.2,0.6
		c0,0.2-0.1,0.4-0.2,0.6s-0.4,0.2-0.6,0.2C253.5,278.2,253.3,278.1,253.2,277.9z M254.3,279.8v8.7h-1.1v-8.7H254.3z"/>
	<path d="M259,288.1c-0.7-0.4-1.2-0.9-1.6-1.6s-0.6-1.5-0.6-2.4s0.2-1.7,0.6-2.4c0.4-0.7,0.9-1.2,1.6-1.6s1.4-0.6,2.2-0.6
		s1.6,0.2,2.2,0.6c0.7,0.4,1.2,0.9,1.6,1.6s0.6,1.5,0.6,2.4s-0.2,1.7-0.6,2.4c-0.4,0.7-0.9,1.2-1.6,1.6s-1.4,0.6-2.2,0.6
		S259.6,288.5,259,288.1z M262.8,287.3c0.5-0.3,0.9-0.7,1.2-1.2s0.5-1.2,0.5-1.9s-0.1-1.4-0.4-1.9s-0.7-0.9-1.2-1.2
		c-0.5-0.3-1-0.4-1.6-0.4s-1.1,0.1-1.6,0.4s-0.9,0.7-1.2,1.2s-0.4,1.2-0.4,1.9s0.1,1.4,0.4,1.9s0.7,0.9,1.2,1.2
		c0.5,0.3,1,0.4,1.6,0.4C262,287.7,262.3,287.6,262.8,287.3z"/>
	<path d="M274.8,280.6c0.7,0.6,1,1.6,1,2.8v5.1h-1.1v-5c0-0.9-0.2-1.7-0.7-2.2s-1.1-0.8-1.9-0.8s-1.5,0.3-2,0.8s-0.8,1.3-0.8,2.4
		v4.8h-1.1v-8.7h1.1v1.5c0.3-0.5,0.7-0.9,1.2-1.2c0.5-0.3,1.1-0.4,1.8-0.4C273.2,279.6,274.1,280,274.8,280.6z"/>
	<path d="M283.5,277.9c-0.2-0.2-0.2-0.4-0.2-0.6s0.1-0.4,0.2-0.6c0.2-0.2,0.4-0.2,0.6-0.2s0.4,0.1,0.6,0.2s0.2,0.3,0.2,0.6
		c0,0.2-0.1,0.4-0.2,0.6s-0.4,0.2-0.6,0.2C284,278.2,283.8,278.1,283.5,277.9z M284.8,279.8v8.7h-1.1v-8.7H284.8z"/>
	<path d="M294.5,280.6c0.7,0.6,1,1.6,1,2.8v5.1h-1.1v-5c0-0.9-0.2-1.7-0.7-2.2s-1.1-0.8-1.9-0.8s-1.5,0.3-2,0.8s-0.8,1.3-0.8,2.4
		v4.8h-1.1v-8.7h1.1v1.5c0.3-0.5,0.7-0.9,1.2-1.2c0.5-0.3,1.1-0.4,1.8-0.4C292.8,279.6,293.8,280,294.5,280.6z"/>
	<path d="M304.6,280.7v5.4c0,0.5,0.1,0.9,0.3,1.1c0.2,0.2,0.6,0.3,1.1,0.3h1v1h-1.2c-0.8,0-1.4-0.2-1.8-0.6s-0.6-1-0.6-1.8v-5.4
		h-1.2v-0.9h1.2v-2.2h1.1v2.2h2.4v0.9H304.6z"/>
	<path d="M315.3,280.1c0.5,0.3,0.9,0.7,1.2,1.3c0.3,0.6,0.5,1.3,0.5,2.1v5.1h-1.1v-5c0-0.9-0.2-1.7-0.7-2.2s-1.1-0.8-1.9-0.8
		s-1.5,0.3-2,0.8s-0.8,1.3-0.8,2.4v4.8h-1.1v-11.8h1.1v4.6c0.3-0.5,0.7-0.9,1.2-1.2s1.1-0.4,1.8-0.4
		C314.2,279.6,314.8,279.8,315.3,280.1z"/>
	<path d="M327.8,284.6h-7.2c0,0.7,0.2,1.2,0.5,1.7s0.7,0.8,1.1,1.1c0.5,0.2,1,0.4,1.5,0.4c0.7,0,1.3-0.2,1.8-0.5
		c0.5-0.4,0.8-0.8,1-1.4h1.2c-0.2,0.9-0.7,1.5-1.4,2.1c-0.7,0.5-1.6,0.8-2.6,0.8c-0.8,0-1.6-0.2-2.2-0.6c-0.7-0.4-1.2-0.9-1.5-1.6
		c-0.4-0.7-0.6-1.5-0.6-2.4s0.2-1.7,0.5-2.4c0.4-0.7,0.9-1.2,1.5-1.6c0.7-0.4,1.4-0.5,2.2-0.5s1.6,0.2,2.2,0.5
		c0.6,0.4,1.1,0.9,1.4,1.5s0.5,1.3,0.5,2C328,284.1,328,284.4,327.8,284.6z M326.3,282c-0.3-0.5-0.6-0.8-1.1-1s-1-0.4-1.5-0.4
		c-0.8,0-1.5,0.3-2.1,0.8s-0.9,1.3-1,2.3h6.1C326.8,283,326.6,282.5,326.3,282z"/>
	<path d="M335.3,281.8c0.4-0.7,0.9-1.2,1.5-1.6s1.4-0.6,2.2-0.6c1.1,0,2,0.3,2.7,0.8s1.1,1.3,1.4,2.2h-1.2c-0.1-0.6-0.5-1.1-1-1.5
		s-1.1-0.5-1.8-0.5c-0.6,0-1.1,0.1-1.6,0.4s-0.8,0.7-1.1,1.2c-0.3,0.5-0.4,1.2-0.4,1.9s0.1,1.4,0.4,2c0.3,0.5,0.6,0.9,1.1,1.2
		s1,0.4,1.6,0.4c0.7,0,1.4-0.2,1.8-0.5s0.8-0.9,1-1.5h1.2c-0.2,0.9-0.7,1.6-1.4,2.2c-0.7,0.6-1.6,0.8-2.7,0.8
		c-0.8,0-1.6-0.2-2.2-0.6s-1.1-0.9-1.5-1.6s-0.5-1.5-0.5-2.4C334.8,283.3,335,282.5,335.3,281.8z"/>
	<path d="M347.9,280.1c0.5-0.3,1.1-0.4,1.9-0.4v1.2h-0.3c-0.8,0-1.5,0.2-2,0.7c-0.5,0.4-0.7,1.2-0.7,2.2v4.9h-1.1v-8.9h1.1v1.6
		C347,280.8,347.4,280.4,347.9,280.1z"/>
	<path d="M359.8,284.6h-7.2c0,0.7,0.2,1.2,0.5,1.7s0.7,0.8,1.1,1.1c0.5,0.2,1,0.4,1.5,0.4c0.7,0,1.3-0.2,1.8-0.5
		c0.5-0.4,0.8-0.8,1-1.4h1.2c-0.2,0.9-0.7,1.5-1.4,2.1c-0.7,0.5-1.6,0.8-2.6,0.8c-0.8,0-1.6-0.2-2.2-0.6c-0.7-0.4-1.2-0.9-1.5-1.6
		c-0.4-0.7-0.6-1.5-0.6-2.4s0.2-1.7,0.5-2.4c0.4-0.7,0.9-1.2,1.5-1.6c0.7-0.4,1.4-0.5,2.2-0.5s1.6,0.2,2.2,0.5
		c0.6,0.4,1.1,0.9,1.4,1.5s0.5,1.3,0.5,2C359.8,284.1,359.8,284.4,359.8,284.6z M358.2,282c-0.3-0.5-0.6-0.8-1.1-1s-1-0.4-1.5-0.4
		c-0.8,0-1.5,0.3-2.1,0.8s-0.9,1.3-1,2.3h6.1C358.6,283,358.5,282.5,358.2,282z"/>
	<path d="M362.4,281.8c0.4-0.7,0.9-1.2,1.5-1.6s1.4-0.6,2.2-0.6c0.8,0,1.5,0.2,2.1,0.6s1.1,0.9,1.4,1.5v-5h1.1v11.8h-1.1v-2
		c-0.3,0.6-0.7,1.1-1.3,1.5c-0.6,0.4-1.3,0.6-2.1,0.6c-0.8,0-1.5-0.2-2.2-0.6c-0.6-0.4-1.1-0.9-1.5-1.6s-0.5-1.5-0.5-2.4
		S361.9,282.5,362.4,281.8z M368.9,282.3c-0.3-0.5-0.7-0.9-1.2-1.2s-1-0.4-1.6-0.4s-1.2,0.1-1.7,0.4s-0.9,0.7-1.2,1.2
		c-0.3,0.5-0.4,1.2-0.4,1.9c0,0.7,0.1,1.3,0.4,1.9c0.3,0.5,0.7,0.9,1.2,1.2s1,0.4,1.7,0.4c0.6,0,1.1-0.1,1.6-0.4s0.9-0.7,1.2-1.2
		c0.3-0.5,0.4-1.2,0.4-1.9C369.4,283.5,369.2,282.8,368.9,282.3z"/>
	<path d="M373.5,277.9c-0.2-0.2-0.2-0.4-0.2-0.6s0.1-0.4,0.2-0.6c0.2-0.2,0.4-0.2,0.6-0.2s0.4,0.1,0.6,0.2s0.2,0.3,0.2,0.6
		c0,0.2-0.1,0.4-0.2,0.6s-0.4,0.2-0.6,0.2C373.9,278.2,373.8,278.1,373.5,277.9z M374.6,279.8v8.7h-1.1v-8.7H374.6z"/>
	<path d="M379.1,280.7v5.4c0,0.5,0.1,0.9,0.3,1.1c0.2,0.2,0.6,0.3,1.1,0.3h1v1h-1.2c-0.8,0-1.4-0.2-1.8-0.6s-0.6-1-0.6-1.8v-5.4
		h-1.2v-0.9h1.2v-2.2h1.1v2.2h2.4v0.9H379.1z"/>
	<path d="M384.4,288c-0.6-0.5-1-1.1-1.1-1.9h1.2c0.1,0.5,0.3,0.9,0.7,1.2c0.4,0.3,1,0.5,1.7,0.5c0.6,0,1.1-0.1,1.4-0.4
		s0.5-0.6,0.5-1.1c0-0.3-0.1-0.5-0.3-0.7c-0.2-0.2-0.4-0.3-0.7-0.5c-0.3-0.1-0.7-0.2-1.2-0.4c-0.7-0.2-1.2-0.3-1.6-0.5
		s-0.7-0.4-1-0.8s-0.4-0.8-0.4-1.4c0-0.4,0.1-0.8,0.4-1.2c0.3-0.4,0.6-0.7,1.1-0.9c0.5-0.2,1-0.3,1.6-0.3c0.9,0,1.7,0.2,2.3,0.7
		c0.6,0.5,0.9,1.1,0.9,2h-1.1c0-0.5-0.2-0.9-0.6-1.2c-0.4-0.3-0.9-0.5-1.5-0.5s-1,0.1-1.4,0.4s-0.5,0.6-0.5,1c0,0.3,0.1,0.6,0.3,0.8
		s0.5,0.4,0.8,0.5s0.7,0.3,1.2,0.4c0.6,0.2,1.1,0.3,1.5,0.5s0.7,0.4,1,0.7c0.3,0.3,0.4,0.7,0.4,1.2s-0.1,0.9-0.4,1.3
		s-0.6,0.7-1.1,0.9c-0.5,0.2-1,0.3-1.6,0.3C385.9,288.7,385,288.4,384.4,288z"/>
	<path d="M165.9,305.8c0.4-0.7,0.9-1.2,1.5-1.6s1.4-0.6,2.2-0.6s1.5,0.2,2.2,0.6c0.6,0.4,1,0.9,1.3,1.5v-1.9h1v8.7H173v-1.9
		c-0.3,0.6-0.7,1.1-1.3,1.5s-1.3,0.6-2.2,0.6c-0.8,0-1.5-0.2-2.1-0.6s-1.1-0.9-1.5-1.6s-0.5-1.5-0.5-2.4S165.5,306.5,165.9,305.8z
		 M172.5,306.3c-0.3-0.5-0.7-0.9-1.2-1.2s-1-0.4-1.6-0.4s-1.2,0.1-1.7,0.4s-0.9,0.7-1.2,1.2s-0.4,1.2-0.4,1.9c0,0.7,0.1,1.3,0.4,1.9
		c0.3,0.5,0.7,0.9,1.2,1.2s1,0.4,1.7,0.4c0.6,0,1.1-0.1,1.6-0.4s0.9-0.7,1.2-1.2s0.4-1.2,0.4-1.9C173,307.5,172.8,306.8,172.5,306.3
		z"/>
	<path d="M178.6,304.7v5.4c0,0.5,0.1,0.9,0.3,1.1s0.6,0.3,1.1,0.3h1v1h-1.2c-0.8,0-1.4-0.2-1.8-0.6c-0.4-0.4-0.6-1-0.6-1.8v-5.4
		h-1.2v-0.9h1.2v-2.2h1.1v2.2h2.4v0.9H178.6z"/>
	<path d="M189.6,304.7v5.4c0,0.5,0.1,0.9,0.3,1.1s0.6,0.3,1.1,0.3h1v1h-1.2c-0.8,0-1.4-0.2-1.8-0.6c-0.4-0.4-0.6-1-0.6-1.8v-5.4
		h-1.2v-0.9h1.2v-2.2h1.1v2.2h2.4v0.9H189.6z"/>
	<path d="M200.3,304.1c0.5,0.3,0.9,0.7,1.2,1.3c0.3,0.6,0.5,1.3,0.5,2.1v5.1h-1.1v-5c0-0.9-0.2-1.7-0.7-2.2s-1.1-0.8-1.9-0.8
		s-1.5,0.3-2,0.8s-0.8,1.3-0.8,2.4v4.8h-1.1v-11.8h1.1v4.6c0.3-0.5,0.7-0.9,1.2-1.2s1.1-0.4,1.8-0.4
		C199.1,303.6,199.8,303.8,200.3,304.1z"/>
	<path d="M212.8,308.6h-7.2c0,0.7,0.2,1.2,0.5,1.7s0.7,0.8,1.1,1.1c0.5,0.2,1,0.4,1.5,0.4c0.7,0,1.3-0.2,1.8-0.5
		c0.5-0.4,0.8-0.8,1-1.4h1.2c-0.2,0.9-0.7,1.5-1.4,2.1c-0.7,0.5-1.6,0.8-2.6,0.8c-0.8,0-1.6-0.2-2.2-0.6c-0.7-0.4-1.2-0.9-1.5-1.6
		c-0.4-0.7-0.6-1.5-0.6-2.4s0.2-1.7,0.5-2.4c0.4-0.7,0.9-1.2,1.5-1.6c0.7-0.4,1.4-0.5,2.2-0.5s1.6,0.2,2.2,0.5
		c0.6,0.4,1.1,0.9,1.4,1.5c0.3,0.6,0.5,1.3,0.5,2C212.8,308.1,212.8,308.4,212.8,308.6z M211.3,306c-0.3-0.5-0.6-0.8-1.1-1
		s-1-0.4-1.5-0.4c-0.8,0-1.5,0.3-2.1,0.8s-0.9,1.3-1,2.3h6.1C211.8,307,211.6,306.5,211.3,306z"/>
	<path d="M222.8,304.2c0.6-0.4,1.3-0.6,2.1-0.6s1.5,0.2,2.1,0.6s1.1,0.9,1.5,1.6s0.5,1.5,0.5,2.4s-0.2,1.7-0.5,2.4
		c-0.4,0.7-0.9,1.2-1.5,1.6s-1.3,0.6-2.1,0.6s-1.5-0.2-2.2-0.6c-0.6-0.4-1-0.9-1.3-1.5v1.9h-1.1v-11.8h1.1v5
		C221.6,305.1,222.1,304.6,222.8,304.2z M227.4,306.3c-0.3-0.5-0.7-0.9-1.2-1.2c-0.5-0.3-1-0.4-1.7-0.4c-0.6,0-1.1,0.1-1.6,0.4
		s-0.9,0.7-1.2,1.2s-0.4,1.2-0.4,1.9c0,0.7,0.1,1.3,0.4,1.9c0.3,0.5,0.7,0.9,1.2,1.2c0.5,0.3,1,0.4,1.6,0.4s1.2-0.1,1.7-0.4
		s0.9-0.7,1.2-1.2s0.4-1.2,0.4-1.9C227.8,307.4,227.8,306.8,227.4,306.3z"/>
	<path d="M231.5,305.8c0.4-0.7,0.9-1.2,1.5-1.6s1.4-0.6,2.2-0.6s1.5,0.2,2.2,0.6c0.6,0.4,1,0.9,1.3,1.5v-1.9h1.1v8.7h-1.1v-1.9
		c-0.3,0.6-0.7,1.1-1.3,1.5s-1.3,0.6-2.2,0.6c-0.8,0-1.5-0.2-2.1-0.6s-1.1-0.9-1.5-1.6s-0.5-1.5-0.5-2.4S231.2,306.5,231.5,305.8z
		 M238.2,306.3c-0.3-0.5-0.7-0.9-1.2-1.2s-1-0.4-1.6-0.4s-1.2,0.1-1.7,0.4s-0.9,0.7-1.2,1.2s-0.4,1.2-0.4,1.9c0,0.7,0.1,1.3,0.4,1.9
		c0.3,0.5,0.7,0.9,1.2,1.2s1,0.4,1.7,0.4c0.6,0,1.1-0.1,1.6-0.4s0.9-0.7,1.2-1.2s0.4-1.2,0.4-1.9S238.5,306.8,238.2,306.3z"/>
	<path d="M242.8,305.8c0.4-0.7,0.9-1.2,1.5-1.6s1.4-0.6,2.2-0.6c1.1,0,2,0.3,2.7,0.8s1.1,1.3,1.4,2.2h-1.2c-0.1-0.6-0.5-1.1-1-1.5
		s-1.1-0.5-1.8-0.5c-0.6,0-1.1,0.1-1.6,0.4s-0.8,0.7-1.1,1.2s-0.4,1.2-0.4,1.9s0.1,1.4,0.4,2c0.3,0.5,0.6,0.9,1.1,1.2s1,0.4,1.6,0.4
		c0.7,0,1.4-0.2,1.8-0.5s0.8-0.9,1-1.5h1.2c-0.2,0.9-0.7,1.6-1.4,2.2s-1.6,0.8-2.7,0.8c-0.8,0-1.6-0.2-2.2-0.6
		c-0.6-0.4-1.1-0.9-1.5-1.6s-0.5-1.5-0.5-2.4C242.3,307.3,242.5,306.5,242.8,305.8z"/>
	<path d="M257.8,312.5l-3.6-3.9v3.9h-1.1v-11.8h1.1v7l3.5-3.9h1.6l-4.1,4.4l4.2,4.4h-1.6V312.5z"/>
	<path d="M267.8,312.1c-0.7-0.4-1.2-0.9-1.6-1.6s-0.6-1.5-0.6-2.4s0.2-1.7,0.6-2.4c0.4-0.7,0.9-1.2,1.6-1.6s1.4-0.6,2.2-0.6
		c0.8,0,1.6,0.2,2.2,0.6c0.7,0.4,1.2,0.9,1.6,1.6s0.6,1.5,0.6,2.4s-0.2,1.7-0.6,2.4c-0.4,0.7-0.9,1.2-1.6,1.6s-1.4,0.6-2.2,0.6
		C269.1,312.7,268.5,312.5,267.8,312.1z M271.5,311.3c0.5-0.3,0.9-0.7,1.2-1.2c0.3-0.5,0.5-1.2,0.5-1.9s-0.1-1.4-0.4-1.9
		s-0.7-0.9-1.2-1.2c-0.5-0.3-1-0.4-1.6-0.4s-1.1,0.1-1.6,0.4s-0.9,0.7-1.2,1.2c-0.3,0.5-0.4,1.2-0.4,1.9s0.1,1.4,0.4,1.9
		s0.7,0.9,1.2,1.2c0.5,0.3,1,0.4,1.6,0.4S271,311.6,271.5,311.3z"/>
	<path d="M280.3,304.7h-2v7.8h-1.2v-7.8H276v-0.9h1.2v-0.6c0-0.9,0.2-1.6,0.7-2.1c0.5-0.4,1.3-0.7,2.4-0.7v1c-0.7,0-1.2,0.1-1.5,0.4
		s-0.4,0.7-0.4,1.4v0.6h2v0.9H280.3z"/>
	<path d="M289,304.7v5.4c0,0.5,0.1,0.9,0.3,1.1s0.6,0.3,1.1,0.3h1v1h-1.2c-0.8,0-1.4-0.2-1.8-0.6s-0.6-1-0.6-1.8v-5.4h-1.2v-0.9h1.2
		v-2.2h1.1v2.2h2.4v0.9H289z"/>
	<path d="M299.5,304.1c0.5,0.3,0.9,0.7,1.2,1.3c0.3,0.6,0.5,1.3,0.5,2.1v5.1h-1.1v-5c0-0.9-0.2-1.7-0.7-2.2s-1.1-0.8-1.9-0.8
		s-1.5,0.3-2,0.8s-0.8,1.3-0.8,2.4v4.8h-1.1v-11.8h1.1v4.6c0.3-0.5,0.7-0.9,1.2-1.2s1.1-0.4,1.8-0.4
		C298.5,303.6,299,303.8,299.5,304.1z"/>
	<path d="M312.1,308.6H305c0,0.7,0.2,1.2,0.5,1.7s0.7,0.8,1.1,1.1c0.5,0.2,1,0.4,1.5,0.4c0.7,0,1.3-0.2,1.8-0.5
		c0.5-0.4,0.8-0.8,1-1.4h1.2c-0.2,0.9-0.7,1.5-1.4,2.1c-0.7,0.5-1.6,0.8-2.6,0.8c-0.8,0-1.6-0.2-2.2-0.6c-0.7-0.4-1.2-0.9-1.5-1.6
		c-0.4-0.7-0.6-1.5-0.6-2.4s0.2-1.7,0.5-2.4c0.4-0.7,0.9-1.2,1.5-1.6c0.7-0.4,1.4-0.5,2.2-0.5c0.8,0,1.6,0.2,2.2,0.5
		c0.6,0.4,1.1,0.9,1.4,1.5s0.5,1.3,0.5,2C312.1,308.1,312.1,308.4,312.1,308.6z M310.6,306c-0.3-0.5-0.6-0.8-1.1-1s-1-0.4-1.5-0.4
		c-0.8,0-1.5,0.3-2.1,0.8s-0.9,1.3-1,2.3h6.1C311,307,310.8,306.5,310.6,306z"/>
	<path d="M319.8,304c0.5-0.9,1.1-1.5,2-2s1.8-0.7,2.8-0.7c1.2,0,2.3,0.3,3.2,0.9s1.5,1.4,1.9,2.5h-1.3c-0.3-0.8-0.8-1.3-1.5-1.8
		c-0.7-0.4-1.4-0.6-2.4-0.6c-0.8,0-1.6,0.2-2.2,0.6c-0.7,0.4-1.2,0.9-1.5,1.7c-0.4,0.7-0.6,1.6-0.6,2.5s0.2,1.8,0.6,2.5
		s0.9,1.3,1.5,1.6c0.7,0.4,1.4,0.6,2.2,0.6c0.9,0,1.7-0.2,2.4-0.6c0.7-0.4,1.1-1,1.5-1.8h1.3c-0.4,1.1-1.1,1.9-2,2.5s-2,0.9-3.2,0.9
		c-1,0-2-0.2-2.8-0.7s-1.5-1.2-2-2c-0.5-0.9-0.7-1.8-0.7-2.9S319.2,304.9,319.8,304z"/>
	<path d="M338.8,302c0.9,0.4,1.6,1.1,2,1.9c0.5,0.8,0.7,1.8,0.7,3s-0.2,2.1-0.7,3c-0.5,0.8-1.1,1.5-2,1.9s-1.9,0.7-3.2,0.7h-3.3
		v-11.2h3.3C336.8,301.4,338,301.6,338.8,302z M339.2,310.4c0.8-0.8,1.2-2,1.2-3.4c0-1.5-0.4-2.6-1.2-3.4s-2-1.2-3.6-1.2h-2.2v9.3
		h2.2C337.2,311.6,338.3,311.2,339.2,310.4z"/>
</g>
<g>
	<path class="st0" d="M206.3,418h3.2v1.6h-5.2v-9.8h2V418z"/>
	<path class="st0" d="M211,410.5c-0.2-0.2-0.3-0.5-0.3-0.8s0.1-0.6,0.3-0.8c0.2-0.2,0.5-0.3,0.9-0.3s0.6,0.1,0.9,0.3
		c0.2,0.2,0.3,0.5,0.3,0.8s-0.1,0.6-0.3,0.8c-0.2,0.2-0.5,0.3-0.9,0.3S211.2,410.7,211,410.5z M212.8,411.8v7.8h-2v-7.8H212.8z"/>
	<path class="st0" d="M216.2,419.3c-0.5-0.2-0.9-0.5-1.2-0.9s-0.5-0.8-0.5-1.3h2c0,0.3,0.2,0.5,0.4,0.7c0.3,0.2,0.6,0.3,1,0.3
		s0.7-0.1,0.9-0.2s0.3-0.3,0.3-0.6c0-0.3-0.1-0.4-0.4-0.6c-0.3-0.1-0.7-0.3-1.2-0.4c-0.6-0.1-1.1-0.3-1.4-0.4
		c-0.4-0.1-0.7-0.4-1-0.7c-0.3-0.3-0.4-0.7-0.4-1.2c0-0.4,0.1-0.8,0.4-1.2c0.2-0.4,0.6-0.6,1.1-0.8c0.5-0.2,1-0.3,1.6-0.3
		c0.9,0,1.7,0.2,2.2,0.7s0.9,1.1,0.9,1.9H219c0-0.3-0.2-0.6-0.4-0.7c-0.2-0.2-0.5-0.3-0.9-0.3s-0.6,0.1-0.8,0.2s-0.3,0.3-0.3,0.5
		c0,0.3,0.1,0.5,0.4,0.6s0.7,0.3,1.2,0.4c0.6,0.1,1,0.3,1.4,0.4s0.7,0.4,0.9,0.7c0.3,0.3,0.4,0.7,0.4,1.2c0,0.4-0.1,0.8-0.4,1.2
		c-0.2,0.4-0.6,0.6-1.1,0.8c-0.5,0.2-1,0.3-1.6,0.3C217.2,419.6,216.8,419.5,216.2,419.3z"/>
	<path class="st0" d="M225,413.4v3.8c0,0.3,0.1,0.5,0.2,0.6c0.1,0.1,0.3,0.2,0.6,0.2h0.9v1.7h-1.2c-1.7,0-2.5-0.8-2.5-2.4v-3.7h-0.9
		v-1.8h0.9v-2h2v1.9h1.7v1.6L225,413.4L225,413.4z"/>
	<path class="st0" d="M235.4,416.2h-5.7c0,0.6,0.2,1,0.6,1.3c0.3,0.3,0.8,0.5,1.3,0.5c0.7,0,1.2-0.3,1.6-0.9h2.1
		c-0.2,0.7-0.7,1.4-1.3,1.8s-1.4,0.7-2.3,0.7c-0.7,0-1.4-0.2-2-0.5s-1.1-0.8-1.4-1.4c-0.3-0.6-0.5-1.3-0.5-2.1
		c0-0.8,0.2-1.5,0.5-2.1s0.8-1.1,1.4-1.4c0.6-0.3,1.3-0.5,2-0.5s1.4,0.2,2,0.5s1,0.8,1.4,1.4c0.3,0.6,0.5,1.3,0.5,2
		C235.5,415.7,235.4,416,235.4,416.2z M233.4,414.9c0-0.5-0.2-0.9-0.5-1.2c-0.4-0.3-0.8-0.5-1.3-0.5s-0.9,0.1-1.2,0.4
		s-0.5,0.7-0.6,1.2h3.6V414.9z"/>
	<path class="st0" d="M243.6,412.5c0.6,0.6,0.9,1.4,0.9,2.4v4.5h-2v-4.3c0-0.6-0.2-1.1-0.5-1.4s-0.7-0.5-1.3-0.5
		c-0.5,0-1,0.2-1.3,0.5s-0.5,0.8-0.5,1.4v4.3h-2v-7.6h2v1c0.3-0.3,0.6-0.6,1-0.8c0.4-0.2,0.9-0.3,1.3-0.3
		C242.2,411.6,243,411.9,243.6,412.5z"/>
	<path class="st0" d="M252.2,413.4v3.8c0,0.3,0.1,0.5,0.2,0.6c0.1,0.1,0.3,0.2,0.6,0.2h0.9v1.7h-1.2c-1.7,0-2.5-0.8-2.5-2.4v-3.7
		h-0.9v-1.8h0.9v-2h2v1.9h1.7v1.6L252.2,413.4L252.2,413.4z"/>
	<path class="st0" d="M257,419.1c-0.6-0.3-1.1-0.8-1.4-1.4c-0.3-0.6-0.5-1.3-0.5-2.1c0-0.8,0.2-1.5,0.5-2.1s0.8-1.1,1.4-1.4
		s1.3-0.5,2-0.5s1.4,0.2,2,0.5s1.1,0.8,1.4,1.4s0.5,1.3,0.5,2.1c0,0.8-0.2,1.5-0.5,2.1c-0.4,0.6-0.8,1.1-1.5,1.4
		c-0.6,0.3-1.3,0.5-2.1,0.5C258.2,419.6,257.5,419.5,257,419.1z M260,417.7c0.3-0.2,0.6-0.4,0.7-0.8c0.2-0.3,0.3-0.8,0.3-1.3
		c0-0.7-0.2-1.3-0.6-1.7c-0.4-0.4-0.9-0.6-1.4-0.6s-1,0.2-1.4,0.6s-0.6,1-0.6,1.7s0.2,1.3,0.6,1.7c0.4,0.4,0.8,0.6,1.4,0.6
		C259.3,417.9,259.6,417.8,260,417.7z"/>
	<path class="st0" d="M268,413.5c0.3-0.6,0.7-1.1,1.3-1.4c0.5-0.3,1.1-0.5,1.8-0.5c0.6,0,1.1,0.1,1.5,0.3c0.4,0.2,0.8,0.5,1,0.9v-1
		h2v7.8h-2v-1.1c-0.3,0.4-0.6,0.7-1,0.9c-0.4,0.2-1,0.4-1.5,0.4c-0.7,0-1.2-0.2-1.8-0.5c-0.5-0.3-1-0.8-1.3-1.4s-0.5-1.3-0.5-2.1
		C267.5,414.8,267.8,414.1,268,413.5z M273.3,414.4c-0.2-0.3-0.4-0.6-0.8-0.8s-0.7-0.3-1-0.3c-0.4,0-0.7,0.1-1,0.3
		c-0.3,0.2-0.6,0.4-0.7,0.8c-0.2,0.3-0.3,0.7-0.3,1.2s0.1,0.9,0.3,1.2c0.2,0.3,0.4,0.6,0.8,0.8c0.3,0.2,0.6,0.3,1,0.3s0.7-0.1,1-0.3
		c0.3-0.2,0.6-0.4,0.8-0.8c0.2-0.3,0.3-0.7,0.3-1.2C273.6,415.2,273.5,414.7,273.3,414.4z"/>
	<path class="st0" d="M281.1,413.5c0.3-0.6,0.7-1.1,1.3-1.4c0.5-0.3,1.1-0.5,1.8-0.5c0.5,0,1,0.1,1.4,0.3c0.5,0.2,0.8,0.5,1.1,0.9
		v-3.7h2v10.4h-2v-1.1c-0.2,0.4-0.6,0.7-1,0.9c-0.4,0.2-0.9,0.3-1.5,0.3c-0.7,0-1.3-0.2-1.8-0.5s-1-0.8-1.3-1.4s-0.5-1.3-0.5-2.1
		C280.6,414.8,280.8,414.1,281.1,413.5z M286.5,414.4c-0.2-0.3-0.4-0.6-0.8-0.8s-0.7-0.3-1-0.3c-0.4,0-0.7,0.1-1,0.3
		c-0.3,0.2-0.6,0.4-0.7,0.8c-0.2,0.3-0.3,0.7-0.3,1.2s0.1,0.9,0.3,1.2c0.2,0.3,0.4,0.6,0.8,0.8c0.3,0.2,0.6,0.3,1,0.3s0.7-0.1,1-0.3
		c0.3-0.2,0.6-0.4,0.8-0.8c0.2-0.3,0.3-0.7,0.3-1.2C286.8,415.2,286.6,414.7,286.5,414.4z"/>
	<path class="st0" d="M298,416.2h-5.7c0,0.6,0.2,1,0.6,1.3c0.3,0.3,0.8,0.5,1.3,0.5c0.7,0,1.2-0.3,1.6-0.9h2.1
		c-0.2,0.7-0.7,1.4-1.3,1.8s-1.4,0.7-2.3,0.7c-0.7,0-1.4-0.2-2-0.5s-1.1-0.8-1.4-1.4s-0.5-1.3-0.5-2.1c0-0.8,0.2-1.5,0.5-2.1
		s0.8-1.1,1.4-1.4s1.3-0.5,2-0.5s1.4,0.2,2,0.5s1,0.8,1.4,1.4c0.3,0.6,0.5,1.3,0.5,2C298,415.7,298,416,298,416.2z M296,414.9
		c0-0.5-0.2-0.9-0.5-1.2c-0.4-0.3-0.8-0.5-1.3-0.5s-0.9,0.1-1.2,0.4c-0.3,0.3-0.5,0.7-0.6,1.2h3.6V414.9z"/>
	<path class="st0" d="M311.5,412.5c0.6,0.6,0.9,1.4,0.9,2.4v4.5h-2v-4.3c0-0.6-0.2-1.1-0.5-1.4s-0.7-0.5-1.3-0.5
		c-0.5,0-1,0.2-1.3,0.5s-0.5,0.8-0.5,1.4v4.3h-2v-4.3c0-0.6-0.2-1.1-0.5-1.4s-0.7-0.5-1.3-0.5c-0.5,0-1,0.2-1.3,0.5
		s-0.5,0.8-0.5,1.4v4.3h-2v-7.6h2v0.9c0.3-0.3,0.6-0.6,1-0.8c0.4-0.2,0.8-0.3,1.3-0.3c0.6,0,1.1,0.1,1.6,0.4s0.8,0.6,1.1,1.1
		c0.3-0.4,0.6-0.8,1.1-1.1c0.5-0.3,1-0.4,1.6-0.4C310.1,411.6,311,411.9,311.5,412.5z"/>
	<path class="st0" d="M315.8,419.1c-0.6-0.3-1.1-0.8-1.4-1.4s-0.5-1.3-0.5-2.1c0-0.8,0.2-1.5,0.5-2.1s0.8-1.1,1.4-1.4s1.3-0.5,2-0.5
		s1.4,0.2,2,0.5s1.1,0.8,1.4,1.4s0.5,1.3,0.5,2.1c0,0.8-0.2,1.5-0.5,2.1c-0.4,0.6-0.8,1.1-1.5,1.4c-0.6,0.3-1.3,0.5-2.1,0.5
		C317,419.6,316.5,419.5,315.8,419.1z M318.8,417.7c0.3-0.2,0.6-0.4,0.7-0.8c0.2-0.3,0.3-0.8,0.3-1.3c0-0.7-0.2-1.3-0.6-1.7
		c-0.4-0.4-0.9-0.6-1.4-0.6s-1,0.2-1.4,0.6s-0.6,1-0.6,1.7s0.2,1.3,0.6,1.7c0.4,0.4,0.8,0.6,1.4,0.6
		C318.1,417.9,318.5,417.8,318.8,417.7z"/>
	<path class="st0" d="M328.1,419.3c-0.5-0.2-0.9-0.5-1.2-0.9c-0.3-0.4-0.5-0.8-0.5-1.3h2c0,0.3,0.2,0.5,0.4,0.7
		c0.3,0.2,0.6,0.3,1,0.3s0.7-0.1,0.9-0.2c0.2-0.1,0.3-0.3,0.3-0.6c0-0.3-0.1-0.4-0.4-0.6c-0.3-0.1-0.7-0.3-1.2-0.4
		c-0.6-0.1-1.1-0.3-1.4-0.4c-0.4-0.1-0.7-0.4-1-0.7c-0.3-0.3-0.4-0.7-0.4-1.2c0-0.4,0.1-0.8,0.4-1.2c0.2-0.4,0.6-0.6,1.1-0.8
		c0.5-0.2,1-0.3,1.6-0.3c0.9,0,1.7,0.2,2.2,0.7s0.9,1.1,0.9,1.9H331c0-0.3-0.2-0.6-0.4-0.7c-0.2-0.2-0.5-0.3-0.9-0.3
		s-0.6,0.1-0.8,0.2c-0.2,0.1-0.3,0.3-0.3,0.5c0,0.3,0.1,0.5,0.4,0.6s0.7,0.3,1.2,0.4c0.6,0.1,1,0.3,1.4,0.4s0.7,0.4,0.9,0.7
		c0.3,0.3,0.4,0.7,0.4,1.2c0,0.4-0.1,0.8-0.4,1.2c-0.2,0.4-0.6,0.6-1.1,0.8c-0.5,0.2-1,0.3-1.6,0.3S328.6,419.5,328.1,419.3z"/>
	<path class="st0" d="M336.1,419.1c-0.6-0.3-1.1-0.8-1.4-1.4s-0.5-1.3-0.5-2.1c0-0.8,0.2-1.5,0.5-2.1s0.8-1.1,1.4-1.4s1.3-0.5,2-0.5
		s1.4,0.2,2,0.5s1.1,0.8,1.4,1.4s0.5,1.3,0.5,2.1c0,0.8-0.2,1.5-0.5,2.1c-0.4,0.6-0.8,1.1-1.5,1.4c-0.6,0.3-1.3,0.5-2.1,0.5
		C337.3,419.6,336.8,419.5,336.1,419.1z M339.1,417.7c0.3-0.2,0.6-0.4,0.7-0.8c0.2-0.3,0.3-0.8,0.3-1.3c0-0.7-0.2-1.3-0.6-1.7
		c-0.4-0.4-0.9-0.6-1.4-0.6s-1,0.2-1.4,0.6s-0.6,1-0.6,1.7s0.2,1.3,0.6,1.7c0.4,0.4,0.8,0.6,1.4,0.6
		C338.5,417.9,338.8,417.8,339.1,417.7z"/>
	<path class="st0" d="M350.4,412.5c0.6,0.6,0.9,1.4,0.9,2.4v4.5h-2v-4.3c0-0.6-0.2-1.1-0.5-1.4s-0.7-0.5-1.3-0.5
		c-0.5,0-1,0.2-1.3,0.5s-0.5,0.8-0.5,1.4v4.3h-2v-7.6h2v1c0.3-0.3,0.6-0.6,1-0.8c0.4-0.2,0.9-0.3,1.3-0.3
		C348.9,411.6,349.8,411.9,350.4,412.5z"/>
	<path class="st0" d="M357.8,412c0.4,0.2,0.8,0.5,1,0.9v-1.1h2v7.8c0,0.7-0.1,1.4-0.4,1.9c-0.3,0.6-0.7,1-1.3,1.3
		c-0.6,0.3-1.3,0.5-2.1,0.5c-1.1,0-2-0.3-2.7-0.8s-1.1-1.2-1.2-2.1h1.9c0.1,0.4,0.3,0.6,0.7,0.8c0.3,0.2,0.8,0.3,1.2,0.3
		c0.6,0,1-0.2,1.4-0.5s0.5-0.9,0.5-1.5v-1.2c-0.3,0.4-0.6,0.7-1,0.9c-0.4,0.2-0.9,0.4-1.5,0.4c-0.7,0-1.3-0.2-1.8-0.5
		s-1-0.8-1.3-1.4s-0.5-1.3-0.5-2.1c0-0.8,0.2-1.5,0.5-2.1s0.7-1.1,1.3-1.4c0.5-0.3,1.1-0.5,1.8-0.5
		C356.8,411.6,357.2,411.7,357.8,412z M358.4,414.4c-0.2-0.3-0.4-0.6-0.8-0.8s-0.7-0.3-1-0.3c-0.4,0-0.7,0.1-1,0.3
		c-0.3,0.2-0.6,0.4-0.7,0.8c-0.2,0.3-0.3,0.7-0.3,1.2s0.1,0.9,0.3,1.2s0.4,0.6,0.8,0.8c0.3,0.2,0.6,0.3,1,0.3s0.7-0.1,1-0.3
		c0.3-0.2,0.6-0.4,0.8-0.8c0.2-0.3,0.3-0.7,0.3-1.2C358.8,415.2,358.6,414.7,358.4,414.4z"/>
</g>
<g>
	<path class="st0" d="M162.5,396.3c-9.6,0-17.4,7.8-17.4,17.4s7.8,17.4,17.4,17.4c9.6,0,17.4-7.8,17.4-17.4S172.1,396.3,162.5,396.3
		z M162.5,429.2c-8.5,0-15.4-6.9-15.4-15.4s6.9-15.4,15.4-15.4s15.4,6.9,15.4,15.4S171,429.2,162.5,429.2z"/>
</g>
<g>
	<path class="st0" d="M162.5,425.8c-6.6,0-12-5.4-12-12c0-0.3-0.2-0.5-0.5-0.5s-0.5,0.2-0.5,0.5c0,7.2,5.8,13,13,13
		c0.3,0,0.5-0.2,0.5-0.5S162.8,425.8,162.5,425.8z"/>
</g>
<g>
	<path class="st3" d="M167.1,413.4l-6.8,4.9h-0.1c0,0-0.1,0-0.1-0.1v-8.8c0-0.1,0.1-0.2,0.1-0.2s0.1,0,0.2,0l5.3,3.6
		c0.2,0.2,0.5,0.1,0.7-0.1s0.1-0.5-0.1-0.7l-5.3-3.7c-0.4-0.2-0.8-0.3-1.2,0c-0.4,0.2-0.6,0.6-0.6,1.1v8.8c0,0.4,0.2,0.8,0.6,1
		c0.2,0.1,0.3,0.1,0.5,0.1s0.4-0.1,0.6-0.2l6.8-4.9c0.2-0.2,0.3-0.5,0.1-0.7C167.8,413.3,167.4,413.3,167.1,413.4z"/>
</g>
<g>
	<g>
		<path class="st4" d="M373.4,519.2H133.5c-2.7,0-4.8-1.6-4.8-3.6v-42.2c0-2,2.2-3.6,4.8-3.6h239.9c2.7,0,4.8,1.6,4.8,3.6v42.2
			C378.2,517.6,376.1,519.2,373.4,519.2z"/>
	</g>
</g>
<g>
	<path class="st0" d="M190.6,495.1c0.4,0.4,0.5,1,0.5,1.5s-0.1,1-0.4,1.4c-0.3,0.4-0.6,0.7-1.1,0.9c-0.5,0.2-1.1,0.3-1.7,0.3h-4.2
		v-9.8h4c0.7,0,1.2,0.1,1.7,0.3s0.8,0.5,1.1,0.9c0.2,0.4,0.4,0.8,0.4,1.3c0,0.6-0.2,1-0.5,1.4s-0.7,0.7-1.2,0.8
		C189.8,494.4,190.2,494.7,190.6,495.1z M185.6,493.6h1.8c0.5,0,0.8-0.1,1.1-0.3c0.3-0.2,0.4-0.5,0.4-0.9s-0.1-0.7-0.4-0.9
		c-0.3-0.2-0.6-0.3-1.1-0.3h-1.8V493.6z M188.8,497.4c0.3-0.2,0.4-0.5,0.4-1c0-0.4-0.1-0.7-0.4-1c-0.3-0.2-0.7-0.4-1.1-0.4h-1.9v2.6
		h2C188.1,497.7,188.4,497.6,188.8,497.4z"/>
	<path class="st0" d="M194.8,491.1v2.5h3.3v1.6h-3.3v2.6h3.7v1.6h-5.7v-9.8h5.7v1.6h-3.7V491.1z"/>
	<path class="st0" d="M200.6,491.8c0.4-0.8,1-1.4,1.8-1.8s1.6-0.6,2.5-0.6c1.1,0,2,0.3,2.9,0.8c0.8,0.6,1.4,1.3,1.7,2.3h-2.3
		c-0.2-0.5-0.5-0.8-0.9-1s-0.9-0.3-1.4-0.3c-0.6,0-1.1,0.1-1.5,0.4s-0.8,0.6-1,1.1s-0.4,1.1-0.4,1.7s0.1,1.2,0.4,1.7
		c0.2,0.5,0.6,0.9,1,1.1c0.4,0.3,0.9,0.4,1.5,0.4c0.5,0,1-0.1,1.4-0.4c0.4-0.2,0.7-0.6,0.9-1.1h2.3c-0.3,1-0.9,1.8-1.7,2.3
		c-0.8,0.6-1.8,0.8-2.9,0.8c-0.9,0-1.8-0.2-2.5-0.6c-0.8-0.4-1.3-1-1.8-1.8s-0.7-1.6-0.7-2.6C199.9,493.5,200.1,492.6,200.6,491.8z"
		/>
	<path class="st0" d="M213.3,498.8c-0.8-0.4-1.4-1-1.8-1.8s-0.7-1.6-0.7-2.6s0.2-1.8,0.7-2.6c0.4-0.8,1.1-1.4,1.8-1.8
		c0.8-0.4,1.6-0.6,2.5-0.6s1.8,0.2,2.5,0.6c0.8,0.4,1.4,1,1.8,1.8s0.7,1.6,0.7,2.6s-0.2,1.8-0.7,2.6s-1,1.4-1.8,1.8
		s-1.6,0.6-2.5,0.6S214.1,499.2,213.3,498.8z M217.4,497.3c0.4-0.3,0.8-0.6,1-1.1c0.3-0.5,0.4-1.1,0.4-1.7s-0.1-1.2-0.4-1.7
		s-0.6-0.9-1-1.1c-0.4-0.3-1-0.4-1.6-0.4s-1.1,0.1-1.6,0.4s-0.8,0.6-1.1,1.1s-0.4,1.1-0.4,1.7s0.1,1.2,0.4,1.7
		c0.3,0.5,0.6,0.9,1.1,1.1c0.5,0.3,1,0.4,1.6,0.4C216.4,497.7,216.9,497.5,217.4,497.3z"/>
	<path class="st0" d="M233.1,489.6v9.8h-2V493l-2.6,6.4H227l-2.6-6.4v6.4h-2v-9.8h2.2l3.1,7.3l3.1-7.3H233.1z"/>
	<path class="st0" d="M237.1,491.1v2.5h3.3v1.6h-3.3v2.6h3.7v1.6h-5.7v-9.8h5.7v1.6h-3.7V491.1z"/>
	<path class="st0" d="M252.2,497.5h-3.9l-0.6,1.9h-2.1l3.5-9.8h2.3l3.5,9.8h-2.1L252.2,497.5z M251.8,495.9l-1.4-4.1l-1.4,4.1H251.8
		z"/>
	<path class="st0" d="M266.6,494c-0.2,0.5-0.6,0.8-1.2,1.1c-0.5,0.3-1.2,0.4-2,0.4h-1.6v3.8h-2v-9.8h3.6c0.8,0,1.4,0.1,1.9,0.4
		s0.9,0.6,1.2,1.1s0.4,1,0.4,1.6C267,493.1,266.8,493.6,266.6,494z M264.6,493.6c0.3-0.2,0.4-0.6,0.4-1c0-1-0.5-1.4-1.6-1.4h-1.6
		v2.8h1.6C264,494,264.3,493.9,264.6,493.6z"/>
	<path class="st0" d="M274.5,497.5h-3.9l-0.6,1.9h-2.1l3.5-9.8h2.3l3.5,9.8h-2.1L274.5,497.5z M274,495.9l-1.4-4.1l-1.4,4.1H274z"/>
	<path class="st0" d="M285.3,489.6v1.6h-2.6v8.2h-2v-8.2h-2.6v-1.6H285.3z"/>
	<path class="st0" d="M292,499.3l-2.2-3.8h-0.9v3.8h-2v-9.8h3.7c0.8,0,1.4,0.1,1.9,0.4s0.9,0.6,1.2,1.1s0.4,1,0.4,1.5
		c0,0.6-0.2,1.2-0.6,1.7s-0.9,0.9-1.7,1.1l2.3,4L292,499.3L292,499.3z M288.8,494h1.6c0.5,0,0.9-0.1,1.2-0.4s0.4-0.6,0.4-1.1
		c0-0.4-0.1-0.8-0.4-1s-0.7-0.4-1.2-0.4h-1.6V494z"/>
	<path class="st0" d="M298,491.1v2.5h3.3v1.6H298v2.6h3.7v1.6H296v-9.8h5.7v1.6H298V491.1z"/>
	<path class="st0" d="M305.6,498.8c-0.8-0.4-1.4-1-1.8-1.8s-0.7-1.6-0.7-2.6s0.2-1.8,0.7-2.6c0.4-0.8,1.1-1.4,1.8-1.8
		c0.8-0.4,1.6-0.6,2.5-0.6s1.8,0.2,2.5,0.6c0.8,0.4,1.4,1,1.8,1.8s0.7,1.6,0.7,2.6s-0.2,1.8-0.7,2.6s-1,1.4-1.8,1.8
		s-1.6,0.6-2.5,0.6S306.5,499.2,305.6,498.8z M309.8,497.3c0.4-0.3,0.8-0.6,1-1.1c0.3-0.5,0.4-1.1,0.4-1.7s-0.1-1.2-0.4-1.7
		s-0.6-0.9-1-1.1c-0.4-0.3-1-0.4-1.6-0.4s-1.1,0.1-1.6,0.4s-0.8,0.6-1.1,1.1s-0.4,1.1-0.4,1.7s0.1,1.2,0.4,1.7s0.6,0.9,1.1,1.1
		c0.5,0.3,1,0.4,1.6,0.4S309.2,497.5,309.8,497.3z"/>
	<path class="st0" d="M323.1,499.3h-2l-4.4-6.7v6.7h-2v-9.8h2l4.4,6.7v-6.7h2V499.3z"/>
</g>
</svg>
