<?xml version="1.0" encoding="utf-8"?>
<!-- Generator: Adobe Illustrator 25.3.1, SVG Export Plug-In . SVG Version: 6.00 Build 0)  -->
<svg version="1.1" id="Layer_1" xmlns="http://www.w3.org/2000/svg" xmlns:xlink="http://www.w3.org/1999/xlink" x="0px" y="0px"
	 viewBox="0 0 507 520" style="enable-background:new 0 0 507 520;" xml:space="preserve">
<style type="text/css">
	.st0{fill:#59E876;}
	.st1{fill:#FFFFFF;}
</style>
<g>
	<path class="st0" d="M253.5,355.4c-0.7,0-1.5,0-2.2,0c-74.9-1.2-134.9-63.2-133.7-138.1c0.6-37.5,16.1-72.1,43.6-97.6l6.8,7.3
		c-25.5,23.6-39.8,55.7-40.4,90.5c-1.1,69.4,54.4,126.8,123.9,127.9c69.4,1.1,126.8-54.4,127.9-123.9c0.5-33.6-12-65.5-35.4-89.6
		s-54.8-37.7-88.4-38.3c-0.5,0-1.1,0-1.6,0h-0.5v-10h0.4c0.6,0,1.2,0,1.8,0c75,1.2,134.9,63.2,133.7,138.1
		C388.2,295.9,327.5,355.4,253.5,355.4z"/>
</g>
<g>
	<path class="st1" d="M180.9,182.1c0-2.7,0.7-5.2,2-7.5c1.4-2.3,3.4-4.1,6.1-5.4c2.7-1.3,6-2,10-2c3.9,0,7.2,0.7,9.9,2
		c2.7,1.3,4.8,3.1,6.2,5.4s2,4.8,2,7.5c0,2.8-0.7,5.3-2.2,7.4c-1.4,2.1-3.3,3.8-5.7,5c2.9,1.1,5.1,2.8,6.8,5.2s2.5,5.2,2.5,8.4
		c0,3.3-0.8,6.2-2.5,8.7s-4,4.5-7,5.8c-3,1.4-6.4,2-10.1,2c-3.8,0-7.1-0.7-10.1-2c-2.9-1.4-5.3-3.3-6.9-5.8
		c-1.7-2.5-2.5-5.4-2.5-8.7c0-3.3,0.8-6.1,2.5-8.5c1.7-2.4,3.9-4.1,6.7-5.1C183.5,191.9,180.9,187.7,180.9,182.1z M190.9,200.7
		c-2.1,1.6-3.1,4-3.1,7.1c0,2.9,1,5.2,3,7s4.8,2.7,8.2,2.7c3.4,0,6.1-0.9,8.1-2.7s3-4.1,3-7c0-3-1-5.4-3.1-7c-2-1.7-4.7-2.5-8.1-2.5
		C195.7,198.3,193,199.1,190.9,200.7z M206.3,176.6c-1.8-1.5-4.2-2.3-7.3-2.3c-3,0-5.4,0.8-7.2,2.3s-2.6,3.7-2.6,6.6
		c0,2.5,0.9,4.6,2.8,6.2c1.8,1.6,4.2,2.4,7.1,2.4s5.2-0.8,7.1-2.4c1.9-1.6,2.8-3.7,2.8-6.2C208.9,180.3,208.1,178.1,206.3,176.6z"/>
	<path class="st1" d="M226.6,211.8v-6.5l25.4-36.4h10.4v35.5h7v7.5h-7v11.5h-8.5v-11.5L226.6,211.8L226.6,211.8z M254.4,177.6
		l-17.8,26.7h17.8V177.6z"/>
	<path class="st1" d="M278.5,172.8c2.1-2.1,4.9-3.1,8.3-3.1c3.4,0,6.1,1,8.3,3.1c2.1,2.1,3.2,5,3.2,8.7s-1.1,6.6-3.2,8.7
		s-4.9,3.2-8.3,3.2c-3.4,0-6.1-1.1-8.3-3.2c-2.1-2.1-3.2-5-3.2-8.7S276.3,174.9,278.5,172.8z M282,181.5c0,4.4,1.6,6.7,4.8,6.7
		c1.5,0,2.7-0.5,3.5-1.6c0.8-1.1,1.2-2.8,1.2-5c0-4.4-1.6-6.6-4.8-6.6C283.6,174.9,282,177.1,282,181.5z M321.4,170.7l-30.2,52.6
		h-8.5l30.2-52.6H321.4z M309.2,203.7c2.1-2.1,4.9-3.1,8.3-3.1c3.3,0,6.1,1,8.2,3.1c2.1,2.1,3.2,5,3.2,8.7s-1.1,6.6-3.2,8.7
		c-2.1,2.1-4.9,3.2-8.2,3.2c-3.4,0-6.1-1.1-8.3-3.2c-2.1-2.1-3.2-5-3.2-8.7S307.1,205.8,309.2,203.7z M312.7,212.4
		c0,4.4,1.6,6.6,4.8,6.6c3.2,0,4.8-2.2,4.8-6.6s-1.6-6.6-4.8-6.6C314.3,205.8,312.7,208,312.7,212.4z"/>
	<path class="st1" d="M201.7,241.8v2.2h-9.1v7h7.4v2.2h-7.4v9.4h-2.7v-20.9h11.8V241.8z"/>
	<path class="st1" d="M208,262c-1.2-0.7-2.2-1.7-2.9-3c-0.7-1.3-1.1-2.8-1.1-4.5c0-1.7,0.4-3.2,1.1-4.5s1.7-2.3,3-3s2.7-1,4.2-1
		s3,0.3,4.2,1c1.3,0.7,2.3,1.7,3,3s1.1,2.8,1.1,4.5c0,1.7-0.4,3.2-1.1,4.5s-1.8,2.3-3,3c-1.3,0.7-2.7,1-4.3,1
		C210.6,263,209.2,262.7,208,262z M214.9,259.9c0.9-0.5,1.6-1.1,2.1-2.1c0.5-0.9,0.8-2,0.8-3.4s-0.3-2.4-0.8-3.4s-1.2-1.6-2-2.1
		c-0.8-0.5-1.8-0.7-2.7-0.7c-1,0-1.9,0.2-2.7,0.7c-0.8,0.5-1.5,1.1-2,2.1c-0.5,0.9-0.8,2-0.8,3.4c0,1.3,0.2,2.5,0.7,3.4
		c0.5,0.9,1.1,1.6,2,2.1c0.8,0.5,1.7,0.7,2.7,0.7S214.1,260.4,214.9,259.9z"/>
	<path class="st1" d="M238.8,246.3v16.4h-2.7v-2.4c-0.5,0.8-1.2,1.5-2.2,2c-0.9,0.5-2,0.7-3.1,0.7c-1.3,0-2.4-0.3-3.5-0.8
		c-1-0.5-1.8-1.3-2.4-2.4c-0.6-1.1-0.9-2.4-0.9-3.9v-9.6h2.7v9.3c0,1.6,0.4,2.9,1.2,3.7c0.8,0.9,1.9,1.3,3.4,1.3s2.6-0.5,3.4-1.4
		c0.8-0.9,1.3-2.2,1.3-3.9v-9L238.8,246.3L238.8,246.3z"/>
	<path class="st1" d="M256.3,247.8c1.2,1.2,1.9,3,1.9,5.2v9.7h-2.7v-9.3c0-1.6-0.4-2.9-1.2-3.8c-0.8-0.9-1.9-1.3-3.4-1.3
		c-1.4,0-2.6,0.5-3.4,1.4s-1.3,2.2-1.3,3.9v9.1h-2.7v-16.4h2.7v2.3c0.5-0.8,1.3-1.5,2.2-1.9c0.9-0.5,2-0.7,3.1-0.7
		C253.4,246,255,246.6,256.3,247.8z"/>
	<path class="st1" d="M262.6,250c0.7-1.3,1.6-2.3,2.8-3c1.2-0.7,2.5-1,4-1c1.3,0,2.5,0.3,3.6,0.9c1.1,0.6,1.9,1.4,2.5,2.3v-8.7h2.8
		v22.2h-2.8v-3.1c-0.5,1-1.3,1.8-2.4,2.4c-1.1,0.6-2.3,0.9-3.7,0.9c-1.5,0-2.8-0.4-4-1.1s-2.1-1.7-2.8-3c-0.7-1.3-1-2.8-1-4.4
		C261.6,252.8,261.9,251.3,262.6,250z M274.8,251.2c-0.5-0.9-1.2-1.6-2-2.1c-0.9-0.5-1.8-0.7-2.8-0.7s-1.9,0.2-2.8,0.7
		c-0.8,0.5-1.5,1.2-2,2.1c-0.5,0.9-0.8,2-0.8,3.2c0,1.3,0.2,2.4,0.8,3.3c0.5,0.9,1.2,1.6,2,2.1c0.8,0.5,1.8,0.7,2.8,0.7
		s2-0.2,2.8-0.7c0.8-0.5,1.5-1.2,2-2.1c0.5-0.9,0.8-2,0.8-3.3C275.5,253.2,275.3,252.2,274.8,251.2z"/>
	<path class="st1" d="M297.8,255.5h-13.1c0.1,1.6,0.7,2.9,1.7,3.8c1,0.9,2.2,1.4,3.7,1.4c1.2,0,2.2-0.3,3-0.8
		c0.8-0.5,1.3-1.3,1.7-2.2h2.9c-0.4,1.6-1.3,2.9-2.6,3.9s-3,1.5-4.9,1.5c-1.6,0-3-0.3-4.2-1c-1.2-0.7-2.2-1.7-2.9-3
		c-0.7-1.3-1-2.8-1-4.5s0.3-3.2,1-4.5c0.7-1.3,1.6-2.3,2.9-3c1.2-0.7,2.6-1,4.2-1s2.9,0.3,4.1,1s2.1,1.6,2.8,2.8c0.7,1.2,1,2.5,1,4
		C297.9,254.4,297.9,255,297.8,255.5z M294.4,250.6c-0.5-0.8-1.1-1.3-1.9-1.7s-1.7-0.6-2.6-0.6c-1.4,0-2.6,0.4-3.5,1.3
		c-1,0.9-1.5,2.1-1.7,3.7h10.4C295.1,252.3,294.8,251.4,294.4,250.6z"/>
	<path class="st1" d="M301.5,250c0.7-1.3,1.6-2.3,2.8-3c1.2-0.7,2.5-1,4-1c1.3,0,2.5,0.3,3.6,0.9c1.1,0.6,1.9,1.4,2.5,2.3v-8.7h2.8
		v22.2h-2.8v-3.1c-0.5,1-1.3,1.8-2.4,2.4c-1.1,0.6-2.3,0.9-3.7,0.9c-1.5,0-2.8-0.4-4-1.1s-2.1-1.7-2.8-3c-0.7-1.3-1-2.8-1-4.4
		S300.8,251.3,301.5,250z M313.6,251.2c-0.5-0.9-1.2-1.6-2-2.1c-0.9-0.5-1.8-0.7-2.8-0.7s-1.9,0.2-2.8,0.7c-0.8,0.5-1.5,1.2-2,2.1
		c-0.5,0.9-0.8,2-0.8,3.2c0,1.3,0.2,2.4,0.8,3.3c0.5,0.9,1.2,1.6,2,2.1s1.8,0.7,2.8,0.7s2-0.2,2.8-0.7s1.5-1.2,2-2.1
		c0.5-0.9,0.8-2,0.8-3.3C314.4,253.2,314.1,252.2,313.6,251.2z"/>
</g>
<g>
	<path class="st1" d="M221.4,389.3h2.4v0.9h-3.5v-7h1.1V389.3z"/>
	<path class="st1" d="M224.6,386c0.2-0.4,0.5-0.8,0.9-1c0.4-0.2,0.8-0.4,1.3-0.4c0.4,0,0.8,0.1,1.1,0.3c0.3,0.2,0.6,0.4,0.8,0.6
		v-0.8h1.1v5.5h-1.1v-0.8c-0.2,0.3-0.5,0.5-0.8,0.7s-0.7,0.3-1.1,0.3c-0.5,0-0.9-0.1-1.3-0.4c-0.4-0.3-0.7-0.6-0.9-1
		s-0.3-0.9-0.3-1.5S224.4,386.4,224.6,386z M228.6,386.5c-0.2-0.3-0.4-0.5-0.6-0.6c-0.3-0.1-0.5-0.2-0.8-0.2c-0.3,0-0.6,0.1-0.8,0.2
		c-0.3,0.1-0.5,0.4-0.6,0.6c-0.2,0.3-0.2,0.6-0.2,1s0.1,0.7,0.2,1c0.2,0.3,0.4,0.5,0.6,0.7c0.3,0.1,0.5,0.2,0.8,0.2
		c0.3,0,0.6-0.1,0.8-0.2c0.2-0.1,0.5-0.4,0.6-0.6c0.2-0.3,0.2-0.6,0.2-1C228.8,387.1,228.7,386.8,228.6,386.5z"/>
	<path class="st1" d="M236.5,384.7v5.5h-1.1v-0.6c-0.2,0.2-0.4,0.4-0.7,0.5s-0.6,0.2-0.9,0.2c-0.4,0-0.8-0.1-1.2-0.3
		c-0.3-0.2-0.6-0.4-0.8-0.8c-0.2-0.4-0.3-0.8-0.3-1.3v-3.2h1.1v3.1c0,0.5,0.1,0.9,0.4,1.1c0.2,0.3,0.6,0.4,1,0.4
		c0.4,0,0.8-0.1,1-0.4c0.2-0.3,0.4-0.6,0.4-1.1v-3.1L236.5,384.7L236.5,384.7z"/>
	<path class="st1" d="M241.9,384.9c0.3,0.2,0.6,0.4,0.8,0.8s0.3,0.8,0.3,1.3v3.2h-1.1v-3.1c0-0.5-0.1-0.9-0.4-1.1
		c-0.2-0.3-0.6-0.4-1-0.4s-0.8,0.1-1,0.4s-0.4,0.6-0.4,1.1v3.1H238v-5.5h1.1v0.6c0.2-0.2,0.4-0.4,0.7-0.5c0.3-0.1,0.6-0.2,0.9-0.2
		C241.2,384.6,241.6,384.7,241.9,384.9z"/>
	<path class="st1" d="M244.4,386c0.2-0.4,0.5-0.8,1-1s0.9-0.4,1.4-0.4c0.7,0,1.2,0.2,1.7,0.5c0.4,0.3,0.7,0.8,0.9,1.4h-1.2
		c-0.1-0.3-0.3-0.5-0.5-0.6c-0.2-0.2-0.5-0.2-0.8-0.2c-0.5,0-0.8,0.2-1.1,0.5s-0.4,0.8-0.4,1.4s0.1,1.1,0.4,1.4s0.6,0.5,1.1,0.5
		c0.7,0,1.1-0.3,1.3-0.9h1.2c-0.2,0.6-0.5,1-0.9,1.3s-1,0.5-1.6,0.5c-0.5,0-1-0.1-1.4-0.4c-0.4-0.2-0.7-0.6-1-1
		c-0.2-0.4-0.3-0.9-0.3-1.5C244.1,386.9,244.2,386.4,244.4,386z"/>
	<path class="st1" d="M254.4,384.9c0.3,0.2,0.6,0.4,0.8,0.8s0.3,0.8,0.3,1.3v3.2h-1.1v-3.1c0-0.5-0.1-0.9-0.4-1.1
		c-0.2-0.3-0.6-0.4-1-0.4s-0.8,0.1-1,0.4s-0.4,0.6-0.4,1.1v3.1h-1.1v-7.4h1.1v2.5c0.2-0.2,0.4-0.4,0.7-0.5s0.6-0.2,1-0.2
		C253.7,384.6,254.1,384.7,254.4,384.9z"/>
	<path class="st1" d="M259.5,386c0.2-0.4,0.5-0.8,0.9-1s0.8-0.4,1.3-0.4c0.4,0,0.7,0.1,1.1,0.2c0.4,0.1,0.6,0.4,0.8,0.6v-2.7h1.1
		v7.4h-1.1v-0.8c-0.2,0.3-0.4,0.5-0.8,0.7c-0.3,0.2-0.7,0.3-1.1,0.3c-0.5,0-0.9-0.1-1.3-0.4c-0.4-0.2-0.7-0.6-0.9-1
		s-0.3-0.9-0.3-1.5S259.3,386.4,259.5,386z M263.4,386.5c-0.2-0.3-0.4-0.5-0.6-0.6c-0.3-0.1-0.5-0.2-0.8-0.2s-0.6,0.1-0.8,0.2
		c-0.3,0.1-0.5,0.4-0.6,0.6c-0.2,0.3-0.2,0.6-0.2,1s0.1,0.7,0.2,1c0.2,0.3,0.4,0.5,0.6,0.7c0.3,0.1,0.5,0.2,0.8,0.2s0.6-0.1,0.8-0.2
		c0.2-0.1,0.5-0.4,0.6-0.6c0.2-0.3,0.2-0.6,0.2-1C263.7,387.1,263.6,386.8,263.4,386.5z"/>
	<path class="st1" d="M266.3,386c0.2-0.4,0.5-0.8,0.9-1c0.4-0.2,0.8-0.4,1.3-0.4c0.4,0,0.8,0.1,1.1,0.3c0.3,0.2,0.6,0.4,0.8,0.6
		v-0.8h1.1v5.5h-1.1v-0.8c-0.2,0.3-0.5,0.5-0.8,0.7s-0.7,0.3-1.1,0.3c-0.5,0-0.9-0.1-1.3-0.4c-0.4-0.3-0.7-0.6-0.9-1
		c-0.2-0.4-0.3-0.9-0.3-1.5S266,386.4,266.3,386z M270.2,386.5c-0.2-0.3-0.4-0.5-0.6-0.6c-0.3-0.1-0.5-0.2-0.8-0.2
		c-0.3,0-0.6,0.1-0.8,0.2c-0.3,0.1-0.5,0.4-0.6,0.6c-0.2,0.3-0.2,0.6-0.2,1s0.1,0.7,0.2,1c0.2,0.3,0.4,0.5,0.6,0.7
		c0.3,0.1,0.5,0.2,0.8,0.2c0.3,0,0.6-0.1,0.8-0.2s0.5-0.4,0.6-0.6c0.2-0.3,0.2-0.6,0.2-1C270.4,387.1,270.4,386.8,270.2,386.5z"/>
	<path class="st1" d="M274.4,385.6v3c0,0.2,0,0.4,0.1,0.4c0.1,0,0.3,0.1,0.5,0.1h0.7v1h-0.9c-0.5,0-0.9-0.1-1.2-0.4
		c-0.3-0.3-0.4-0.6-0.4-1.2v-3h-0.6v-0.9h0.7v-1.4h1.1v1.4h1.3v0.9h-1.3V385.6z"/>
	<path class="st1" d="M281.8,387.9h-4.2c0,0.4,0.2,0.8,0.5,1.1s0.7,0.4,1.1,0.4c0.6,0,1-0.3,1.3-0.8h1.2c-0.2,0.5-0.5,0.9-0.9,1.2
		c-0.4,0.3-1,0.5-1.6,0.5c-0.5,0-1-0.1-1.4-0.4c-0.4-0.2-0.7-0.6-1-1c-0.2-0.4-0.4-0.9-0.4-1.5s0.1-1.1,0.3-1.5c0.2-0.4,0.6-0.8,1-1
		c0.4-0.2,0.9-0.4,1.4-0.4s1,0.1,1.4,0.3c0.4,0.2,0.7,0.5,1,1c0.2,0.4,0.3,0.9,0.3,1.4C281.9,387.5,281.8,387.7,281.8,387.9z
		 M280.7,387c0-0.4-0.2-0.8-0.4-1c-0.3-0.3-0.7-0.4-1.1-0.4c-0.4,0-0.7,0.1-1,0.4c-0.3,0.2-0.4,0.6-0.5,1H280.7z"/>
</g>
<g>
	<path class="st1" d="M192.4,423.5h-4.2l-0.9,2.6h-1.4l3.8-10h1.1l3.8,10h-1.3L192.4,423.5z M188.6,422.4h3.4l-1.7-4.7L188.6,422.4z
		"/>
	<path class="st1" d="M197.3,422.2v3.9H196v-10h3.7c1.1,0,1.9,0.3,2.6,0.8c0.6,0.6,0.9,1.3,0.9,2.2c0,1-0.3,1.7-0.9,2.2
		c-0.6,0.5-1.5,0.8-2.6,0.8h-2.4V422.2z M197.3,421.1h2.4c0.7,0,1.2-0.2,1.6-0.5s0.6-0.8,0.6-1.4s-0.2-1.1-0.6-1.4
		c-0.4-0.4-0.9-0.5-1.5-0.6h-2.4L197.3,421.1L197.3,421.1z"/>
	<path class="st1" d="M208.5,422.1h-2.3v4h-1.3v-10h3.3c1.1,0,2,0.3,2.6,0.8s0.9,1.3,0.9,2.2c0,0.6-0.2,1.2-0.5,1.6
		c-0.3,0.5-0.8,0.8-1.4,1l2.3,4.2v0.1h-1.4L208.5,422.1z M206.2,421h2c0.7,0,1.2-0.2,1.6-0.5s0.6-0.8,0.6-1.4s-0.2-1.1-0.6-1.4
		s-0.9-0.5-1.6-0.5h-2V421z"/>
	<path class="st1" d="M214.9,426.1h-1.3v-10h1.3V426.1z"/>
	<path class="st1" d="M218.6,425h4.7v1.1h-6v-10h1.3V425z"/>
</g>
<g>
	<path class="st1" d="M252.5,426.1h-1.3v-8.4l-2.6,0.9v-1.1l3.6-1.4h0.2L252.5,426.1L252.5,426.1z"/>
	<path class="st1" d="M260.3,426.1H259v-8.4l-2.5,0.9v-1.1l3.6-1.4h0.2V426.1z"/>
</g>
<g>
	<path class="st1" d="M296.6,426.1h-6.5v-0.9l3.4-3.8c0.5-0.6,0.9-1,1.1-1.4s0.3-0.7,0.3-1.1c0-0.5-0.2-0.9-0.5-1.3
		c-0.3-0.3-0.7-0.5-1.3-0.5s-1.1,0.2-1.5,0.5c-0.3,0.4-0.5,0.9-0.5,1.5h-1.3c0-0.9,0.3-1.7,0.9-2.2c0.6-0.6,1.4-0.8,2.4-0.8
		c0.9,0,1.7,0.2,2.2,0.7s0.8,1.1,0.8,1.9c0,1-0.6,2.1-1.9,3.5l-2.7,2.9h5v1H296.6z"/>
	<path class="st1" d="M304.2,421.9c0,1.5-0.3,2.6-0.8,3.3c-0.5,0.7-1.3,1.1-2.4,1.1c-1.1,0-1.8-0.4-2.4-1.1
		c-0.6-0.7-0.8-1.8-0.8-3.2v-1.7c0-1.5,0.3-2.5,0.8-3.3s1.3-1.1,2.4-1.1c1.1,0,1.9,0.3,2.4,1s0.8,1.7,0.8,3.2V421.9z M302.9,420.1
		c0-1.1-0.2-1.9-0.5-2.3c-0.3-0.5-0.8-0.7-1.4-0.7c-0.6,0-1.1,0.2-1.4,0.7c-0.3,0.5-0.4,1.2-0.5,2.2v2c0,1.1,0.2,1.9,0.5,2.4
		c0.3,0.5,0.8,0.8,1.4,0.8c0.6,0,1.1-0.2,1.4-0.7s0.5-1.2,0.5-2.3V420.1z"/>
	<path class="st1" d="M312.3,426.1h-6.5v-0.9l3.4-3.8c0.5-0.6,0.9-1,1.1-1.4s0.3-0.7,0.3-1.1c0-0.5-0.2-0.9-0.5-1.3
		c-0.3-0.3-0.7-0.5-1.3-0.5c-0.6,0-1.1,0.2-1.5,0.5c-0.3,0.4-0.5,0.9-0.5,1.5h-1.2c0-0.9,0.3-1.7,0.9-2.2c0.6-0.6,1.4-0.8,2.4-0.8
		c0.9,0,1.7,0.2,2.2,0.7s0.8,1.1,0.8,1.9c0,1-0.6,2.1-1.9,3.5l-2.7,2.9h5V426.1z"/>
	<path class="st1" d="M320.2,426.1h-6.6v-0.9l3.4-3.8c0.5-0.6,0.9-1,1.1-1.4s0.3-0.7,0.3-1.1c0-0.5-0.2-0.9-0.5-1.3
		c-0.3-0.3-0.7-0.5-1.3-0.5s-1.1,0.2-1.5,0.5c-0.3,0.4-0.5,0.9-0.5,1.5h-1.3c0-0.9,0.3-1.7,0.9-2.2c0.6-0.6,1.4-0.8,2.4-0.8
		c0.9,0,1.7,0.2,2.2,0.7s0.8,1.1,0.8,1.9c0,1-0.6,2.1-1.9,3.5l-2.7,2.9h5v1H320.2z"/>
</g>
<g>
	<g>
		<path class="st1" d="M230.2,436.4h-51c-1.1,0-2-0.9-2-2v-27.1c0-1.1,0.9-2,2-2h51c1.1,0,2,0.9,2,2v27.1
			C232.2,435.5,231.3,436.4,230.2,436.4z M179.2,406.2c-0.6,0-1,0.5-1,1v27.1c0,0.6,0.5,1,1,1h51c0.6,0,1-0.5,1-1v-27.1
			c0-0.6-0.5-1-1-1H179.2z"/>
	</g>
	<g>
		<path class="st1" d="M269.5,436.4h-28.4c-1.1,0-2-0.9-2-2v-27.1c0-1.1,0.9-2,2-2h28.4c1.1,0,2,0.9,2,2v27.1
			C271.6,435.5,270.7,436.4,269.5,436.4z M241.1,406.2c-0.6,0-1,0.5-1,1v27.1c0,0.6,0.5,1,1,1h28.4c0.6,0,1-0.5,1-1v-27.1
			c0-0.6-0.5-1-1-1H241.1z"/>
	</g>
	<g>
		<path class="st1" d="M327.9,436.4h-45.8c-1.1,0-2-0.9-2-2v-27.1c0-1.1,0.9-2,2-2h45.8c1.1,0,2,0.9,2,2v27.1
			C329.9,435.5,329,436.4,327.9,436.4z M282,406.2c-0.6,0-1,0.5-1,1v27.1c0,0.6,0.5,1,1,1h45.8c0.6,0,1-0.5,1-1v-27.1
			c0-0.6-0.5-1-1-1H282z"/>
	</g>
</g>
</svg>
