<?xml version="1.0" encoding="utf-8"?>
<!-- Generator: Adobe Illustrator 25.3.1, SVG Export Plug-In . SVG Version: 6.00 Build 0)  -->
<svg version="1.1" id="Layer_1" xmlns="http://www.w3.org/2000/svg" xmlns:xlink="http://www.w3.org/1999/xlink" x="0px" y="0px"
	 viewBox="0 0 271.8 352.8" style="enable-background:new 0 0 271.8 352.8;" xml:space="preserve">
<style type="text/css">
	.st0{fill:#59E876;}
	.st1{fill:#FFFFFF;}
</style>
<g>
	<path class="st0" d="M135.9,271.8c-0.7,0-1.5,0-2.2,0C58.8,270.6-1.2,208.6,0,133.7c0.6-37.5,16.1-72.1,43.6-97.6l6.8,7.3
		C24.9,67,10.6,99.1,10,133.9c-1.1,69.4,54.4,126.8,123.9,127.9c69.4,1.1,126.8-54.4,127.9-123.9c0.5-33.6-12-65.5-35.4-89.6
		S171.6,10.6,138,10c-0.5,0-1.1,0-1.6,0l-0.5,0V0l0.4,0c0.6,0,1.2,0,1.8,0C213.1,1.2,273,63.2,271.8,138.1
		C270.6,212.3,209.9,271.8,135.9,271.8z"/>
</g>
<g>
	<path class="st1" d="M63.3,98.5c0-2.7,0.7-5.2,2-7.5c1.4-2.3,3.4-4.1,6.1-5.4c2.7-1.3,6-2,10-2c3.9,0,7.2,0.7,9.9,2
		c2.7,1.3,4.8,3.1,6.2,5.4c1.4,2.3,2,4.8,2,7.5c0,2.8-0.7,5.3-2.2,7.4c-1.4,2.1-3.3,3.8-5.7,5c2.9,1.1,5.1,2.8,6.8,5.2
		c1.7,2.4,2.5,5.2,2.5,8.4c0,3.3-0.8,6.2-2.5,8.7c-1.7,2.5-4,4.5-7,5.8c-3,1.4-6.4,2-10.1,2c-3.8,0-7.1-0.7-10.1-2
		c-2.9-1.4-5.3-3.3-6.9-5.8c-1.7-2.5-2.5-5.4-2.5-8.7c0-3.3,0.8-6.1,2.5-8.5c1.7-2.4,3.9-4.1,6.7-5.1
		C65.9,108.3,63.3,104.1,63.3,98.5z M73.3,117.1c-2.1,1.6-3.1,4-3.1,7.1c0,2.9,1,5.2,3,7c2,1.8,4.8,2.7,8.2,2.7
		c3.4,0,6.1-0.9,8.1-2.7c2-1.8,3-4.1,3-7c0-3-1-5.4-3.1-7c-2-1.7-4.7-2.5-8.1-2.5C78.1,114.7,75.4,115.5,73.3,117.1z M88.7,93
		c-1.8-1.5-4.2-2.3-7.3-2.3c-3,0-5.4,0.8-7.2,2.3c-1.8,1.5-2.6,3.7-2.6,6.6c0,2.5,0.9,4.6,2.8,6.2c1.8,1.6,4.2,2.4,7.1,2.4
		c2.9,0,5.2-0.8,7.1-2.4c1.9-1.6,2.8-3.7,2.8-6.2C91.3,96.7,90.5,94.5,88.7,93z"/>
	<path class="st1" d="M109,128.2v-6.5l25.4-36.4h10.4v35.5h7v7.5h-7v11.5h-8.5v-11.5H109z M136.8,94l-17.8,26.7h17.8V94z"/>
	<path class="st1" d="M160.9,89.2c2.1-2.1,4.9-3.1,8.3-3.1c3.4,0,6.1,1,8.3,3.1c2.1,2.1,3.2,5,3.2,8.7c0,3.7-1.1,6.6-3.2,8.7
		c-2.1,2.1-4.9,3.2-8.3,3.2c-3.4,0-6.1-1.1-8.3-3.2c-2.1-2.1-3.2-5-3.2-8.7C157.7,94.2,158.7,91.3,160.9,89.2z M164.4,97.9
		c0,4.4,1.6,6.7,4.8,6.7c1.5,0,2.7-0.5,3.5-1.6c0.8-1.1,1.2-2.8,1.2-5c0-4.4-1.6-6.6-4.8-6.6C166,91.3,164.4,93.5,164.4,97.9z
		 M203.8,87.1l-30.2,52.6h-8.5l30.2-52.6H203.8z M191.6,120.1c2.1-2.1,4.9-3.1,8.3-3.1c3.3,0,6.1,1,8.2,3.1c2.1,2.1,3.2,5,3.2,8.7
		c0,3.7-1.1,6.6-3.2,8.7c-2.1,2.1-4.9,3.2-8.2,3.2c-3.4,0-6.1-1.1-8.3-3.2c-2.1-2.1-3.2-5-3.2-8.7
		C188.4,125.1,189.5,122.2,191.6,120.1z M195.1,128.8c0,4.4,1.6,6.6,4.8,6.6c3.2,0,4.8-2.2,4.8-6.6c0-4.4-1.6-6.6-4.8-6.6
		C196.7,122.2,195.1,124.4,195.1,128.8z"/>
	<path class="st1" d="M84.1,158.2v2.2H75v7h7.4v2.2H75v9.4h-2.7v-20.9H84.1z"/>
	<path class="st1" d="M90.4,178.4c-1.2-0.7-2.2-1.7-2.9-3c-0.7-1.3-1.1-2.8-1.1-4.5c0-1.7,0.4-3.2,1.1-4.5s1.7-2.3,3-3
		c1.3-0.7,2.7-1,4.2-1s3,0.3,4.2,1c1.3,0.7,2.3,1.7,3,3c0.7,1.3,1.1,2.8,1.1,4.5c0,1.7-0.4,3.2-1.1,4.5s-1.8,2.3-3,3
		c-1.3,0.7-2.7,1-4.3,1C93,179.4,91.6,179.1,90.4,178.4z M97.3,176.3c0.9-0.5,1.6-1.1,2.1-2.1c0.5-0.9,0.8-2,0.8-3.4
		s-0.3-2.4-0.8-3.4s-1.2-1.6-2-2.1c-0.8-0.5-1.8-0.7-2.7-0.7c-1,0-1.9,0.2-2.7,0.7c-0.8,0.5-1.5,1.1-2,2.1c-0.5,0.9-0.8,2-0.8,3.4
		c0,1.3,0.2,2.5,0.7,3.4c0.5,0.9,1.1,1.6,2,2.1c0.8,0.5,1.7,0.7,2.7,0.7C95.6,177,96.5,176.8,97.3,176.3z"/>
	<path class="st1" d="M121.2,162.7v16.4h-2.7v-2.4c-0.5,0.8-1.2,1.5-2.2,2c-0.9,0.5-2,0.7-3.1,0.7c-1.3,0-2.4-0.3-3.5-0.8
		c-1-0.5-1.8-1.3-2.4-2.4s-0.9-2.4-0.9-3.9v-9.6h2.7v9.3c0,1.6,0.4,2.9,1.2,3.7c0.8,0.9,1.9,1.3,3.4,1.3c1.5,0,2.6-0.5,3.4-1.4
		c0.8-0.9,1.3-2.2,1.3-3.9v-9H121.2z"/>
	<path class="st1" d="M138.7,164.2c1.2,1.2,1.9,3,1.9,5.2v9.7h-2.7v-9.3c0-1.6-0.4-2.9-1.2-3.8c-0.8-0.9-1.9-1.3-3.4-1.3
		c-1.4,0-2.6,0.5-3.4,1.4s-1.3,2.2-1.3,3.9v9.1h-2.7v-16.4h2.7v2.3c0.5-0.8,1.3-1.5,2.2-1.9c0.9-0.5,2-0.7,3.1-0.7
		C135.8,162.4,137.4,163,138.7,164.2z"/>
	<path class="st1" d="M145,166.4c0.7-1.3,1.6-2.3,2.8-3c1.2-0.7,2.5-1,4-1c1.3,0,2.5,0.3,3.6,0.9c1.1,0.6,1.9,1.4,2.5,2.3v-8.7h2.8
		v22.2h-2.8V176c-0.5,1-1.3,1.8-2.4,2.4c-1.1,0.6-2.3,0.9-3.7,0.9c-1.5,0-2.8-0.4-4-1.1c-1.2-0.7-2.1-1.7-2.8-3
		c-0.7-1.3-1-2.8-1-4.4C144,169.2,144.3,167.7,145,166.4z M157.2,167.6c-0.5-0.9-1.2-1.6-2-2.1c-0.9-0.5-1.8-0.7-2.8-0.7
		s-1.9,0.2-2.8,0.7c-0.8,0.5-1.5,1.2-2,2.1c-0.5,0.9-0.8,2-0.8,3.2c0,1.3,0.2,2.4,0.8,3.3c0.5,0.9,1.2,1.6,2,2.1
		c0.8,0.5,1.8,0.7,2.8,0.7s2-0.2,2.8-0.7c0.8-0.5,1.5-1.2,2-2.1c0.5-0.9,0.8-2,0.8-3.3C157.9,169.6,157.7,168.6,157.2,167.6z"/>
	<path class="st1" d="M180.2,171.9h-13.1c0.1,1.6,0.7,2.9,1.7,3.8c1,0.9,2.2,1.4,3.7,1.4c1.2,0,2.2-0.3,3-0.8
		c0.8-0.5,1.3-1.3,1.7-2.2h2.9c-0.4,1.6-1.3,2.9-2.6,3.9c-1.3,1-3,1.5-4.9,1.5c-1.6,0-3-0.3-4.2-1s-2.2-1.7-2.9-3s-1-2.8-1-4.5
		c0-1.7,0.3-3.2,1-4.5c0.7-1.3,1.6-2.3,2.9-3c1.2-0.7,2.6-1,4.2-1c1.6,0,2.9,0.3,4.1,1c1.2,0.7,2.1,1.6,2.8,2.8s1,2.5,1,4
		C180.3,170.8,180.3,171.4,180.2,171.9z M176.8,167c-0.5-0.8-1.1-1.3-1.9-1.7s-1.7-0.6-2.6-0.6c-1.4,0-2.6,0.4-3.5,1.3
		c-1,0.9-1.5,2.1-1.7,3.7h10.4C177.5,168.7,177.2,167.8,176.8,167z"/>
	<path class="st1" d="M183.9,166.4c0.7-1.3,1.6-2.3,2.8-3c1.2-0.7,2.5-1,4-1c1.3,0,2.5,0.3,3.6,0.9c1.1,0.6,1.9,1.4,2.5,2.3v-8.7
		h2.8v22.2h-2.8V176c-0.5,1-1.3,1.8-2.4,2.4c-1.1,0.6-2.3,0.9-3.7,0.9c-1.5,0-2.8-0.4-4-1.1c-1.2-0.7-2.1-1.7-2.8-3
		c-0.7-1.3-1-2.8-1-4.4C182.9,169.2,183.2,167.7,183.9,166.4z M196,167.6c-0.5-0.9-1.2-1.6-2-2.1c-0.9-0.5-1.8-0.7-2.8-0.7
		s-1.9,0.2-2.8,0.7c-0.8,0.5-1.5,1.2-2,2.1c-0.5,0.9-0.8,2-0.8,3.2c0,1.3,0.2,2.4,0.8,3.3c0.5,0.9,1.2,1.6,2,2.1
		c0.8,0.5,1.8,0.7,2.8,0.7s2-0.2,2.8-0.7c0.8-0.5,1.5-1.2,2-2.1c0.5-0.9,0.8-2,0.8-3.3C196.8,169.6,196.5,168.6,196,167.6z"/>
</g>
<g>
	<path class="st1" d="M103.8,305.7h2.4v0.9h-3.5v-7h1.1V305.7z"/>
	<path class="st1" d="M107,302.4c0.2-0.4,0.5-0.8,0.9-1c0.4-0.2,0.8-0.4,1.3-0.4c0.4,0,0.8,0.1,1.1,0.3c0.3,0.2,0.6,0.4,0.8,0.6
		v-0.8h1.1v5.5h-1.1v-0.8c-0.2,0.3-0.5,0.5-0.8,0.7c-0.3,0.2-0.7,0.3-1.1,0.3c-0.5,0-0.9-0.1-1.3-0.4s-0.7-0.6-0.9-1
		s-0.3-0.9-0.3-1.5S106.8,302.8,107,302.4z M111,302.9c-0.2-0.3-0.4-0.5-0.6-0.6c-0.3-0.1-0.5-0.2-0.8-0.2s-0.6,0.1-0.8,0.2
		c-0.3,0.1-0.5,0.4-0.6,0.6c-0.2,0.3-0.2,0.6-0.2,1s0.1,0.7,0.2,1c0.2,0.3,0.4,0.5,0.6,0.7c0.3,0.1,0.5,0.2,0.8,0.2
		c0.3,0,0.6-0.1,0.8-0.2s0.5-0.4,0.6-0.6c0.2-0.3,0.2-0.6,0.2-1C111.2,303.5,111.1,303.2,111,302.9z"/>
	<path class="st1" d="M118.9,301.1v5.5h-1.1V306c-0.2,0.2-0.4,0.4-0.7,0.5s-0.6,0.2-0.9,0.2c-0.4,0-0.8-0.1-1.2-0.3
		c-0.3-0.2-0.6-0.4-0.8-0.8c-0.2-0.4-0.3-0.8-0.3-1.3v-3.2h1.1v3.1c0,0.5,0.1,0.9,0.4,1.1c0.2,0.3,0.6,0.4,1,0.4s0.8-0.1,1-0.4
		c0.2-0.3,0.4-0.6,0.4-1.1v-3.1H118.9z"/>
	<path class="st1" d="M124.3,301.3c0.3,0.2,0.6,0.4,0.8,0.8s0.3,0.8,0.3,1.3v3.2h-1.1v-3.1c0-0.5-0.1-0.9-0.4-1.1
		c-0.2-0.3-0.6-0.4-1-0.4c-0.4,0-0.8,0.1-1,0.4c-0.2,0.3-0.4,0.6-0.4,1.1v3.1h-1.1v-5.5h1.1v0.6c0.2-0.2,0.4-0.4,0.7-0.5
		s0.6-0.2,0.9-0.2C123.6,301,124,301.1,124.3,301.3z"/>
	<path class="st1" d="M126.8,302.4c0.2-0.4,0.5-0.8,1-1s0.9-0.4,1.4-0.4c0.7,0,1.2,0.2,1.7,0.5c0.4,0.3,0.7,0.8,0.9,1.4h-1.2
		c-0.1-0.3-0.3-0.5-0.5-0.6c-0.2-0.2-0.5-0.2-0.8-0.2c-0.5,0-0.8,0.2-1.1,0.5c-0.3,0.3-0.4,0.8-0.4,1.4c0,0.6,0.1,1.1,0.4,1.4
		c0.3,0.3,0.6,0.5,1.1,0.5c0.7,0,1.1-0.3,1.3-0.9h1.2c-0.2,0.6-0.5,1-0.9,1.3s-1,0.5-1.6,0.5c-0.5,0-1-0.1-1.4-0.4
		c-0.4-0.2-0.7-0.6-1-1c-0.2-0.4-0.3-0.9-0.3-1.5C126.5,303.3,126.6,302.8,126.8,302.4z"/>
	<path class="st1" d="M136.8,301.3c0.3,0.2,0.6,0.4,0.8,0.8s0.3,0.8,0.3,1.3v3.2h-1.1v-3.1c0-0.5-0.1-0.9-0.4-1.1
		c-0.2-0.3-0.6-0.4-1-0.4c-0.4,0-0.8,0.1-1,0.4c-0.2,0.3-0.4,0.6-0.4,1.1v3.1h-1.1v-7.4h1.1v2.5c0.2-0.2,0.4-0.4,0.7-0.5
		c0.3-0.1,0.6-0.2,1-0.2C136.1,301,136.5,301.1,136.8,301.3z"/>
	<path class="st1" d="M141.9,302.4c0.2-0.4,0.5-0.8,0.9-1c0.4-0.2,0.8-0.4,1.3-0.4c0.4,0,0.7,0.1,1.1,0.2s0.6,0.4,0.8,0.6v-2.7h1.1
		v7.4h-1.1v-0.8c-0.2,0.3-0.4,0.5-0.8,0.7c-0.3,0.2-0.7,0.3-1.1,0.3c-0.5,0-0.9-0.1-1.3-0.4c-0.4-0.2-0.7-0.6-0.9-1
		s-0.3-0.9-0.3-1.5S141.7,302.8,141.9,302.4z M145.8,302.9c-0.2-0.3-0.4-0.5-0.6-0.6c-0.3-0.1-0.5-0.2-0.8-0.2s-0.6,0.1-0.8,0.2
		c-0.3,0.1-0.5,0.4-0.6,0.6c-0.2,0.3-0.2,0.6-0.2,1s0.1,0.7,0.2,1c0.2,0.3,0.4,0.5,0.6,0.7c0.3,0.1,0.5,0.2,0.8,0.2
		c0.3,0,0.6-0.1,0.8-0.2s0.5-0.4,0.6-0.6c0.2-0.3,0.2-0.6,0.2-1C146.1,303.5,146,303.2,145.8,302.9z"/>
	<path class="st1" d="M148.7,302.4c0.2-0.4,0.5-0.8,0.9-1c0.4-0.2,0.8-0.4,1.3-0.4c0.4,0,0.8,0.1,1.1,0.3c0.3,0.2,0.6,0.4,0.8,0.6
		v-0.8h1.1v5.5h-1.1v-0.8c-0.2,0.3-0.5,0.5-0.8,0.7c-0.3,0.2-0.7,0.3-1.1,0.3c-0.5,0-0.9-0.1-1.3-0.4s-0.7-0.6-0.9-1
		s-0.3-0.9-0.3-1.5S148.4,302.8,148.7,302.4z M152.6,302.9c-0.2-0.3-0.4-0.5-0.6-0.6c-0.3-0.1-0.5-0.2-0.8-0.2s-0.6,0.1-0.8,0.2
		c-0.3,0.1-0.5,0.4-0.6,0.6c-0.2,0.3-0.2,0.6-0.2,1s0.1,0.7,0.2,1c0.2,0.3,0.4,0.5,0.6,0.7c0.3,0.1,0.5,0.2,0.8,0.2
		c0.3,0,0.6-0.1,0.8-0.2s0.5-0.4,0.6-0.6c0.2-0.3,0.2-0.6,0.2-1C152.8,303.5,152.8,303.2,152.6,302.9z"/>
	<path class="st1" d="M156.8,302v3c0,0.2,0,0.4,0.1,0.4s0.3,0.1,0.5,0.1h0.7v1h-0.9c-0.5,0-0.9-0.1-1.2-0.4s-0.4-0.6-0.4-1.2v-3H155
		v-0.9h0.7v-1.4h1.1v1.4h1.3v0.9H156.8z"/>
	<path class="st1" d="M164.2,304.3H160c0,0.4,0.2,0.8,0.5,1.1s0.7,0.4,1.1,0.4c0.6,0,1-0.3,1.3-0.8h1.2c-0.2,0.5-0.5,0.9-0.9,1.2
		c-0.4,0.3-1,0.5-1.6,0.5c-0.5,0-1-0.1-1.4-0.4c-0.4-0.2-0.7-0.6-1-1c-0.2-0.4-0.4-0.9-0.4-1.5c0-0.6,0.1-1.1,0.3-1.5
		c0.2-0.4,0.6-0.8,1-1c0.4-0.2,0.9-0.4,1.4-0.4c0.5,0,1,0.1,1.4,0.3c0.4,0.2,0.7,0.5,1,1c0.2,0.4,0.3,0.9,0.3,1.4
		C164.3,303.9,164.2,304.1,164.2,304.3z M163.1,303.4c0-0.4-0.2-0.8-0.4-1c-0.3-0.3-0.7-0.4-1.1-0.4c-0.4,0-0.7,0.1-1,0.4
		c-0.3,0.2-0.4,0.6-0.5,1H163.1z"/>
</g>
<g>
	<path class="st1" d="M74.8,339.9h-4.2l-0.9,2.6h-1.4l3.8-10h1.1l3.8,10h-1.3L74.8,339.9z M71,338.8h3.4l-1.7-4.7L71,338.8z"/>
	<path class="st1" d="M79.7,338.6v3.9h-1.3v-10h3.7c1.1,0,1.9,0.3,2.6,0.8c0.6,0.6,0.9,1.3,0.9,2.2c0,1-0.3,1.7-0.9,2.2
		c-0.6,0.5-1.5,0.8-2.6,0.8H79.7z M79.7,337.5h2.4c0.7,0,1.2-0.2,1.6-0.5c0.4-0.3,0.6-0.8,0.6-1.4c0-0.6-0.2-1.1-0.6-1.4
		c-0.4-0.4-0.9-0.5-1.5-0.6h-2.4V337.5z"/>
	<path class="st1" d="M90.9,338.5h-2.3v4h-1.3v-10h3.3c1.1,0,2,0.3,2.6,0.8c0.6,0.5,0.9,1.3,0.9,2.2c0,0.6-0.2,1.2-0.5,1.6
		c-0.3,0.5-0.8,0.8-1.4,1l2.3,4.2v0.1h-1.4L90.9,338.5z M88.6,337.4h2c0.7,0,1.2-0.2,1.6-0.5s0.6-0.8,0.6-1.4c0-0.6-0.2-1.1-0.6-1.4
		c-0.4-0.3-0.9-0.5-1.6-0.5h-2V337.4z"/>
	<path class="st1" d="M97.3,342.5H96v-10h1.3V342.5z"/>
	<path class="st1" d="M101,341.4h4.7v1.1h-6v-10h1.3V341.4z"/>
</g>
<g>
	<path class="st1" d="M134.9,342.5h-1.3v-8.4L131,335v-1.1l3.6-1.4h0.2V342.5z"/>
	<path class="st1" d="M142.7,342.5h-1.3v-8.4l-2.5,0.9v-1.1l3.6-1.4h0.2V342.5z"/>
</g>
<g>
	<path class="st1" d="M179,342.5h-6.5v-0.9l3.4-3.8c0.5-0.6,0.9-1,1.1-1.4s0.3-0.7,0.3-1.1c0-0.5-0.2-0.9-0.5-1.3
		c-0.3-0.3-0.7-0.5-1.3-0.5c-0.6,0-1.1,0.2-1.5,0.5c-0.3,0.4-0.5,0.9-0.5,1.5h-1.3c0-0.9,0.3-1.7,0.9-2.2c0.6-0.6,1.4-0.8,2.4-0.8
		c0.9,0,1.7,0.2,2.2,0.7s0.8,1.1,0.8,1.9c0,1-0.6,2.1-1.9,3.5l-2.7,2.9h5V342.5z"/>
	<path class="st1" d="M186.6,338.3c0,1.5-0.3,2.6-0.8,3.3c-0.5,0.7-1.3,1.1-2.4,1.1c-1.1,0-1.8-0.4-2.4-1.1s-0.8-1.8-0.8-3.2v-1.7
		c0-1.5,0.3-2.5,0.8-3.3s1.3-1.1,2.4-1.1c1.1,0,1.9,0.3,2.4,1c0.5,0.7,0.8,1.7,0.8,3.2V338.3z M185.3,336.5c0-1.1-0.2-1.9-0.5-2.3
		c-0.3-0.5-0.8-0.7-1.4-0.7c-0.6,0-1.1,0.2-1.4,0.7c-0.3,0.5-0.4,1.2-0.5,2.2v2c0,1.1,0.2,1.9,0.5,2.4s0.8,0.8,1.4,0.8
		c0.6,0,1.1-0.2,1.4-0.7c0.3-0.5,0.5-1.2,0.5-2.3V336.5z"/>
	<path class="st1" d="M194.7,342.5h-6.5v-0.9l3.4-3.8c0.5-0.6,0.9-1,1.1-1.4s0.3-0.7,0.3-1.1c0-0.5-0.2-0.9-0.5-1.3
		c-0.3-0.3-0.7-0.5-1.3-0.5c-0.6,0-1.1,0.2-1.5,0.5c-0.3,0.4-0.5,0.9-0.5,1.5H188c0-0.9,0.3-1.7,0.9-2.2c0.6-0.6,1.4-0.8,2.4-0.8
		c0.9,0,1.7,0.2,2.2,0.7s0.8,1.1,0.8,1.9c0,1-0.6,2.1-1.9,3.5l-2.7,2.9h5V342.5z"/>
	<path class="st1" d="M202.6,342.5H196v-0.9l3.4-3.8c0.5-0.6,0.9-1,1.1-1.4s0.3-0.7,0.3-1.1c0-0.5-0.2-0.9-0.5-1.3
		c-0.3-0.3-0.7-0.5-1.3-0.5c-0.6,0-1.1,0.2-1.5,0.5c-0.3,0.4-0.5,0.9-0.5,1.5h-1.3c0-0.9,0.3-1.7,0.9-2.2c0.6-0.6,1.4-0.8,2.4-0.8
		c0.9,0,1.7,0.2,2.2,0.7s0.8,1.1,0.8,1.9c0,1-0.6,2.1-1.9,3.5l-2.7,2.9h5V342.5z"/>
</g>
<g>
	<g>
		<path class="st1" d="M112.6,352.8h-51c-1.1,0-2-0.9-2-2v-27.1c0-1.1,0.9-2,2-2h51c1.1,0,2,0.9,2,2v27.1
			C114.6,351.9,113.7,352.8,112.6,352.8z M61.6,322.6c-0.6,0-1,0.5-1,1v27.1c0,0.6,0.5,1,1,1h51c0.6,0,1-0.5,1-1v-27.1
			c0-0.6-0.5-1-1-1H61.6z"/>
	</g>
	<g>
		<path class="st1" d="M151.9,352.8h-28.4c-1.1,0-2-0.9-2-2v-27.1c0-1.1,0.9-2,2-2h28.4c1.1,0,2,0.9,2,2v27.1
			C154,351.9,153.1,352.8,151.9,352.8z M123.5,322.6c-0.6,0-1,0.5-1,1v27.1c0,0.6,0.5,1,1,1h28.4c0.6,0,1-0.5,1-1v-27.1
			c0-0.6-0.5-1-1-1H123.5z"/>
	</g>
	<g>
		<path class="st1" d="M210.3,352.8h-45.8c-1.1,0-2-0.9-2-2v-27.1c0-1.1,0.9-2,2-2h45.8c1.1,0,2,0.9,2,2v27.1
			C212.3,351.9,211.4,352.8,210.3,352.8z M164.4,322.6c-0.6,0-1,0.5-1,1v27.1c0,0.6,0.5,1,1,1h45.8c0.6,0,1-0.5,1-1v-27.1
			c0-0.6-0.5-1-1-1H164.4z"/>
	</g>
</g>
</svg>
