<svg id="Layer_1" data-name="Layer 1" xmlns="http://www.w3.org/2000/svg" viewBox="0 0 793.49 50.12"><path d="M24.36.56H22a.77.77,0,0,0-.77.49l-8.4,18.34a.23.23,0,0,1-.42,0L3.85,1.05A.77.77,0,0,0,3.08.56H.7a.62.62,0,0,0-.7.7v47.6a.62.62,0,0,0,.7.7H3a.62.62,0,0,0,.7-.7V9.31c0-.14,0-.21.1-.21a.38.38,0,0,1,.25.14l7.77,17a.77.77,0,0,0,.77.49.73.73,0,0,0,.7-.56L21,9.1A.24.24,0,0,1,21.21,9c.09,0,.14.07.14.21V48.86a.62.62,0,0,0,.7.7h2.31a.62.62,0,0,0,.7-.7V1.26A.62.62,0,0,0,24.36.56Z" style="fill:#fff"/><path d="M81.27.56H58.94a.62.62,0,0,0-.7.7V3.15a.62.62,0,0,0,.7.7h8.75a.24.24,0,0,1,.28.28V48.86a.62.62,0,0,0,.7.7H71a.62.62,0,0,0,.7-.7V4.13A.24.24,0,0,1,72,3.85h9.31a.62.62,0,0,0,.7-.7V1.26A.62.62,0,0,0,81.27.56Z" style="fill:#fff"/><rect x="115.22" y="0.56" width="3.71" height="49" rx="0.7" style="fill:#fff"/><path d="M175.21.56H152.88a.62.62,0,0,0-.7.7V3.15a.62.62,0,0,0,.7.7h8.75a.25.25,0,0,1,.28.28V48.86a.62.62,0,0,0,.7.7h2.31a.62.62,0,0,0,.7-.7V4.13a.24.24,0,0,1,.28-.28h9.31a.62.62,0,0,0,.7-.7V1.26A.62.62,0,0,0,175.21.56Z" style="fill:#fff"/><path d="M229,46.27H212.59a.24.24,0,0,1-.28-.28V1.26a.62.62,0,0,0-.7-.7H209.3a.62.62,0,0,0-.7.7v47.6a.62.62,0,0,0,.7.7H229a.62.62,0,0,0,.7-.7V47A.62.62,0,0,0,229,46.27Z" style="fill:#fff"/><path d="M281.54.56H261.66a.62.62,0,0,0-.7.7v47.6a.62.62,0,0,0,.7.7h19.88a.62.62,0,0,0,.7-.7V47a.62.62,0,0,0-.7-.7H265a.24.24,0,0,1-.28-.28V27a.24.24,0,0,1,.28-.28h10.64a.62.62,0,0,0,.7-.7V24.08a.62.62,0,0,0-.7-.7H265a.24.24,0,0,1-.28-.28v-19a.24.24,0,0,1,.28-.28h16.59a.62.62,0,0,0,.7-.7V1.26A.62.62,0,0,0,281.54.56Z" style="fill:#fff"/><path d="M357.33,0a12.42,12.42,0,0,0-9.14,3.43,12.32,12.32,0,0,0-3.46,9.17V37.45a12.64,12.64,0,1,0,25.27,0V36.4a.62.62,0,0,0-.7-.7L364,35.42a.62.62,0,0,0-.7.7v1.82a6.47,6.47,0,0,1-1.65,4.62,5.62,5.62,0,0,1-4.3,1.75,5.5,5.5,0,0,1-4.27-1.75,6.54,6.54,0,0,1-1.61-4.62V12.18a6.54,6.54,0,0,1,1.61-4.62,5.5,5.5,0,0,1,4.27-1.75,5.62,5.62,0,0,1,4.3,1.75,6.47,6.47,0,0,1,1.65,4.62V14a.62.62,0,0,0,.7.7l5.32-.28a.62.62,0,0,0,.7-.7V12.6a12.33,12.33,0,0,0-3.47-9.17A12.5,12.5,0,0,0,357.33,0Z" style="fill:#fff"/><rect x="402.55" y="0.56" width="6.72" height="49" rx="0.7" style="fill:#fff"/><path d="M468.83.56h-5.25a.62.62,0,0,0-.7.7V33c0,.14,0,.22-.14.24s-.16,0-.21-.17l-12-32a.77.77,0,0,0-.77-.56h-6a.62.62,0,0,0-.7.7v47.6a.62.62,0,0,0,.7.7h5.32a.62.62,0,0,0,.7-.7l-.07-31.78a.18.18,0,0,1,.14-.18.17.17,0,0,1,.21.11L462,49a.78.78,0,0,0,.77.56h6a.62.62,0,0,0,.7-.7V1.26A.62.62,0,0,0,468.83.56Z" style="fill:#fff"/><path d="M526.16.56h-22a.62.62,0,0,0-.7.7v47.6a.62.62,0,0,0,.7.7h22a.62.62,0,0,0,.7-.7V44.45a.62.62,0,0,0-.7-.7H510.41a.25.25,0,0,1-.28-.28V28.21a.25.25,0,0,1,.28-.28h9.66a.62.62,0,0,0,.7-.7V22.82a.62.62,0,0,0-.7-.7h-9.66a.25.25,0,0,1-.28-.28V6.65a.25.25,0,0,1,.28-.28h15.75a.62.62,0,0,0,.7-.7V1.26A.62.62,0,0,0,526.16.56Z" style="fill:#fff"/><path d="M586.78.56h-5.32a.91.91,0,0,0-.84.49l-7.28,13.16a.25.25,0,0,1-.21.07.28.28,0,0,1-.21-.07L565.57,1.05a1,1,0,0,0-.84-.49h-5.32a.62.62,0,0,0-.7.7v47.6a.62.62,0,0,0,.7.7h5.32a.62.62,0,0,0,.7-.7V14.21c0-.14,0-.21.11-.21a.38.38,0,0,1,.24.14l6.65,12.46a.65.65,0,0,0,1.26,0l6.72-12.53a.43.43,0,0,1,.25-.14c.07,0,.1.07.1.21V48.86a.62.62,0,0,0,.7.7h5.32a.62.62,0,0,0,.7-.7V1.26A.62.62,0,0,0,586.78.56Z" style="fill:#fff"/><path d="M635.15.56h-6.23a.72.72,0,0,0-.77.63l-10.43,47.6a.65.65,0,0,0,.11.56.63.63,0,0,0,.52.21h5.32c.47,0,.73-.21.77-.63l1.47-8a.25.25,0,0,1,.11-.21.4.4,0,0,1,.24-.07h11.41a.41.41,0,0,1,.25.07.24.24,0,0,1,.1.21l1.54,8a.72.72,0,0,0,.77.63h5.46a.56.56,0,0,0,.63-.63v-.14l-10.5-47.6C635.88.77,635.62.56,635.15.56Zm1.47,34.72h-9.31c-.14,0-.21-.09-.21-.28l4.69-24.85c.05-.09.1-.14.14-.14s.1.05.14.14L636.83,35C636.83,35.19,636.76,35.28,636.62,35.28Z" style="fill:#fff"/><path d="M696.26.56H671.13a.62.62,0,0,0-.7.7V5.67a.62.62,0,0,0,.7.7h8.68a.24.24,0,0,1,.28.28V48.86a.62.62,0,0,0,.7.7h5.32a.62.62,0,0,0,.7-.7V6.65a.25.25,0,0,1,.28-.28h9.17a.62.62,0,0,0,.7-.7V1.26A.62.62,0,0,0,696.26.56Z" style="fill:#fff"/><rect x="728.6" y="0.56" width="6.72" height="49" rx="0.7" style="fill:#fff"/><path d="M787.47,14.7l5.32-.28a.62.62,0,0,0,.7-.7V12.6A12.32,12.32,0,0,0,790,3.43a14,14,0,0,0-18.34,0,12.33,12.33,0,0,0-3.47,9.17V37.45a12.64,12.64,0,1,0,25.27,0V36.4a.62.62,0,0,0-.7-.7l-5.32-.28a.62.62,0,0,0-.7.7v1.82a6.51,6.51,0,0,1-1.64,4.62,5.63,5.63,0,0,1-4.31,1.75,5.51,5.51,0,0,1-4.27-1.75,6.58,6.58,0,0,1-1.61-4.62V12.18a6.58,6.58,0,0,1,1.61-4.62,5.51,5.51,0,0,1,4.27-1.75,5.63,5.63,0,0,1,4.31,1.75,6.51,6.51,0,0,1,1.64,4.62V14A.62.62,0,0,0,787.47,14.7Z" style="fill:#fff"/></svg>