<?xml version="1.0" encoding="utf-8"?>
<!-- Generator: Adobe Illustrator 25.2.3, SVG Export Plug-In . SVG Version: 6.00 Build 0)  -->
<svg version="1.1" id="Layer_1" xmlns="http://www.w3.org/2000/svg" xmlns:xlink="http://www.w3.org/1999/xlink" x="0px" y="0px"
	 viewBox="0 0 18 18" style="enable-background:new 0 0 18 18;" xml:space="preserve">
<style type="text/css">
	.st0{fill:#FFFFFF;}
</style>
<g>
	<path d="M9,0c5,0,9,4,9,9s-4,9-9,9s-9-4-9-9C0,4,4,0,9,0"/>
	<path class="st0" d="M6.5,13.7H5.3c-0.3,0-0.6-0.3-0.6-0.6V4.8c0-0.3,0.2-0.5,0.5-0.5h1.3C6.8,4.3,7,4.5,7,4.8v8.3
		C7,13.4,6.8,13.7,6.5,13.7"/>
	<path class="st0" d="M12.7,13.7h-1.2c-0.3,0-0.6-0.3-0.6-0.6V4.8c0-0.3,0.2-0.5,0.5-0.5h1.3c0.3,0,0.5,0.2,0.5,0.5v8.3
		C13.2,13.4,13,13.7,12.7,13.7"/>
	<path class="st0" d="M9.2,9.9C9.1,10,8.9,10,8.8,9.9c-0.3-0.2-1-0.8-1-1V4.8c0-0.3,0.2-0.5,0.5-0.5h1.3c0.3,0,0.5,0.2,0.5,0.5v4.1
		C10.1,9.1,9.5,9.7,9.2,9.9"/>
</g>
</svg>
