<?xml version="1.0" encoding="utf-8"?>
<!-- Generator: Adobe Illustrator 25.2.3, SVG Export Plug-In . SVG Version: 6.00 Build 0)  -->
<svg version="1.1" id="Layer_1" xmlns="http://www.w3.org/2000/svg" xmlns:xlink="http://www.w3.org/1999/xlink" x="0px" y="0px"
	 viewBox="0 0 28 28" style="enable-background:new 0 0 28 28;" xml:space="preserve">
<style type="text/css">
	.st0{fill:#FFFFFF;}
</style>
<g>
	<path class="st0" d="M24.7,19.3c-0.9-0.5-2.7-1.6-2.7-4.5c0-2.4,1.6-3.6,2.5-4.3l0.6-0.5l-0.4-0.6c-1.8-2.7-4.9-3-5.9-3h0
		c-1.3,0-2.5,0.5-3.4,0.8c-0.4,0.2-0.9,0.4-1.1,0.4c-0.3,0-1-0.2-1.6-0.5c-0.9-0.3-1.9-0.7-2.8-0.7c-2,0-7.4,1.5-7.4,8.6
		C2.5,19.5,6,28,10.1,28h0c1,0,2-0.3,2.8-0.6c0.6-0.2,1.2-0.4,1.6-0.4c0.9,0,1.4,0.2,2,0.5c0.6,0.3,1.3,0.5,2.3,0.5
		c4,0,6.7-7.3,6.7-7.7C25.5,19.7,25.1,19.5,24.7,19.3z"/>
	<path class="st0" d="M19.2,0c-2.6,0-5.7,3.2-5.2,6.1C16.7,6.3,19.3,3.7,19.2,0z"/>
</g>
<g>
	<polygon class="st0" points="0,13.1 12.2,13.1 12.2,2.8 0,4.4 	"/>
	<polygon class="st0" points="14,2.6 14,13.1 28,13.1 28,0.9 	"/>
	<polygon class="st0" points="14,25.4 28,27.1 28,14.9 14,14.9 	"/>
	<polygon class="st0" points="0,23.6 12.2,25.2 12.2,14.9 0,14.9 	"/>
</g>
</svg>
